<svg width="64" height="64" viewBox="0 0 64 64" fill="none" xmlns="http://www.w3.org/2000/svg">
<path d="M19.5288 34.5343C19.5288 34.3022 19.621 34.0797 19.7851 33.9156C19.9492 33.7515 20.1717 33.6593 20.4038 33.6593H43.1223C43.3543 33.6593 43.5769 33.7515 43.741 33.9156C43.9051 34.0797 43.9973 34.3022 43.9973 34.5343C43.9973 34.7663 43.9051 34.9889 43.741 35.153C43.5769 35.3171 43.3543 35.4093 43.1223 35.4093H20.4038C20.1717 35.4093 19.9492 35.3171 19.7851 35.153C19.621 34.9889 19.5288 34.7663 19.5288 34.5343ZM31.4125 12.7077V22.2435C31.4125 22.4756 31.3203 22.6982 31.1563 22.8622C30.9922 23.0263 30.7696 23.1185 30.5375 23.1185H21.0022C20.7701 23.1185 20.5475 23.0263 20.3834 22.8622C20.2193 22.6982 20.1272 22.4756 20.1272 22.2435V12.7077C20.1272 12.4756 20.2193 12.253 20.3834 12.0889C20.5475 11.9248 20.7701 11.8327 21.0022 11.8327H30.5375C30.7696 11.8327 30.9922 11.9248 31.1563 12.0889C31.3203 12.253 31.4125 12.4756 31.4125 12.7077ZM29.6625 13.5827H21.8772V21.3685H29.6625V13.5827ZM42.7728 14.1987H34.3228C34.0907 14.1987 33.8682 14.2908 33.7041 14.4549C33.54 14.619 33.4478 14.8416 33.4478 15.0737C33.4478 15.3057 33.54 15.5283 33.7041 15.6924C33.8682 15.8565 34.0907 15.9487 34.3228 15.9487H42.7728C43.0048 15.9487 43.2274 15.8565 43.3915 15.6924C43.5556 15.5283 43.6478 15.3057 43.6478 15.0737C43.6478 14.8416 43.5556 14.619 43.3915 14.4549C43.2274 14.2908 43.0048 14.1987 42.7728 14.1987ZM42.7728 18.4237H34.3228C34.0907 18.4237 33.8682 18.5158 33.7041 18.6799C33.54 18.844 33.4478 19.0666 33.4478 19.2987C33.4478 19.5307 33.54 19.7533 33.7041 19.9174C33.8682 20.0815 34.0907 20.1737 34.3228 20.1737H42.7728C43.0048 20.1737 43.2274 20.0815 43.3915 19.9174C43.5556 19.7533 43.6478 19.5307 43.6478 19.2987C43.6478 19.0666 43.5556 18.844 43.3915 18.6799C43.2274 18.5158 43.0048 18.4237 42.7728 18.4237ZM53.8129 40.3862V54.3808C53.812 55.1899 53.4902 55.9656 52.918 56.5378C52.3459 57.1099 51.5702 57.4317 50.761 57.4327H36.7667C35.985 57.4317 35.2333 57.1312 34.6664 56.593C34.0995 56.0548 33.7604 55.3198 33.7189 54.5392H16.4303C14.7454 54.5392 13.3747 53.2198 13.3747 51.598V39.1949L11.0308 41.5063C10.5975 41.9319 10.0134 42.1691 9.40604 42.166C8.79863 42.1629 8.21705 41.9199 7.78804 41.4899L1.79304 35.4584C1.58011 35.2442 1.41151 34.9901 1.29689 34.7107C1.18226 34.4313 1.12386 34.132 1.12502 33.83C1.12618 33.528 1.18688 33.2292 1.30365 32.9506C1.42042 32.6721 1.59097 32.4193 1.80554 32.2068L10.843 23.2528C11.0633 23.0303 11.3276 22.8563 11.619 22.742C11.9104 22.6276 12.2225 22.5754 12.5353 22.5887L13.374 22.6162V9.55553C13.375 8.76294 13.6903 8.00309 14.2508 7.4427C14.8113 6.88232 15.5712 6.56717 16.3638 6.56641H47.4167C48.2092 6.5673 48.969 6.88251 49.5293 7.44288C50.0897 8.00325 50.405 8.76303 50.4059 9.55553V37.3342H50.7615C51.5707 37.3351 52.3464 37.6569 52.9185 38.2291C53.4907 38.8012 53.8125 39.5769 53.8134 40.386L53.8129 40.3862ZM50.761 39.0843H36.7667C36.5545 39.0842 36.3455 39.1363 36.1582 39.236L43.7373 46.1735L50.8229 39.087C50.8024 39.0863 50.7823 39.0842 50.7615 39.0842L50.761 39.0843ZM13.6304 36.4843L18.9688 31.22C19.0618 31.1349 19.1189 31.0175 19.1284 30.8918L19.7763 25.1683C19.7848 25.0932 19.7776 25.0171 19.7553 24.945C19.733 24.8728 19.6959 24.806 19.6465 24.7488C19.5971 24.6916 19.5364 24.6453 19.4682 24.6127C19.4 24.5801 19.3258 24.562 19.2503 24.5595L12.478 24.3375C12.4695 24.3375 12.4613 24.3375 12.453 24.3375C12.3823 24.3356 12.312 24.3488 12.2468 24.3762C12.1815 24.4036 12.1229 24.4445 12.0747 24.4963L3.03754 33.4495C2.98641 33.5002 2.94576 33.5604 2.91794 33.6268C2.89011 33.6932 2.87565 33.7644 2.87537 33.8364C2.87509 33.9084 2.889 33.9797 2.91631 34.0463C2.94363 34.1129 2.9838 34.1735 3.03454 34.2245L9.02966 40.2562C9.13189 40.3586 9.27049 40.4166 9.41524 40.4173C9.55999 40.418 9.69916 40.3615 9.80241 40.26L13.6304 36.4843ZM16.4304 52.7889H33.7149V50.3082H19.6408C19.4087 50.3082 19.1862 50.216 19.0221 50.0519C18.858 49.8878 18.7658 49.6652 18.7658 49.4332C18.7658 49.2011 18.858 48.9785 19.0221 48.8144C19.1862 48.6503 19.4087 48.5582 19.6408 48.5582H33.7149V45.9707H19.6408C19.4087 45.9707 19.1862 45.8785 19.0221 45.7144C18.858 45.5503 18.7658 45.3277 18.7658 45.0957C18.7658 44.8636 18.858 44.641 19.0221 44.4769C19.1862 44.3128 19.4087 44.2207 19.6408 44.2207H33.7149V40.6963H20.4038C20.2889 40.6963 20.1751 40.6736 20.0689 40.6297C19.9628 40.5857 19.8663 40.5213 19.7851 40.44C19.7038 40.3587 19.6394 40.2623 19.5954 40.1561C19.5514 40.05 19.5288 39.9362 19.5288 39.8213C19.5288 39.7064 19.5514 39.5926 19.5954 39.4864C19.6394 39.3803 19.7038 39.2838 19.7851 39.2026C19.8663 39.1213 19.9628 39.0569 20.0689 39.0129C20.1751 38.9689 20.2889 38.9463 20.4038 38.9463H34.0767C34.3374 38.4594 34.7252 38.0524 35.1989 37.7684C35.6726 37.4845 36.2144 37.3343 36.7667 37.3338H48.6559V9.55553C48.6555 9.22699 48.5248 8.91203 48.2925 8.67973C48.0602 8.44743 47.7452 8.31677 47.4167 8.31641H16.3638C16.0353 8.31687 15.7205 8.44758 15.4882 8.67987C15.256 8.91216 15.1254 9.22707 15.125 9.55553V22.6735L19.3085 22.811C19.6255 22.8214 19.937 22.8973 20.2232 23.034C20.5094 23.1706 20.7642 23.3651 20.9716 23.605C21.179 23.845 21.3344 24.1254 21.4281 24.4284C21.5218 24.7314 21.5517 25.0505 21.516 25.3657L21.175 28.3722H43.1223C43.3543 28.3722 43.5769 28.4643 43.741 28.6284C43.9051 28.7925 43.9973 29.0151 43.9973 29.2472C43.9973 29.4792 43.9051 29.7018 43.741 29.8659C43.5769 30.03 43.3543 30.1222 43.1223 30.1222H20.9772L20.8678 31.0889C20.813 31.6123 20.576 32.0998 20.1982 32.4662L15.125 37.4693V51.598C15.125 52.2437 15.7225 52.7892 16.4303 52.7892L16.4304 52.7889ZM52.0635 40.3858C52.0635 40.365 52.0614 40.3449 52.0604 40.3244L44.3829 48.0019C44.2235 48.1613 44.0088 48.253 43.7835 48.2579C43.5582 48.2629 43.3396 48.1807 43.1734 48.0285L35.465 40.9734V54.3808C35.4654 54.7259 35.6027 55.0568 35.8467 55.3009C36.0907 55.545 36.4216 55.6823 36.7668 55.6827H50.7615C51.1067 55.6823 51.4376 55.545 51.6817 55.3009C51.9257 55.0568 52.063 54.7259 52.0634 54.3808L52.0635 40.3858ZM62.875 44.8553V44.8684C62.875 44.8853 62.8737 44.9022 62.8724 44.9184C62.8715 44.9309 62.8708 44.9434 62.8693 44.9559C62.8675 44.9707 62.865 44.9853 62.8625 45C62.86 45.0148 62.8577 45.0295 62.8545 45.0439C62.8519 45.0557 62.8485 45.0673 62.8455 45.0789C62.8409 45.0962 62.8363 45.1133 62.8307 45.13C62.8275 45.1394 62.8239 45.1487 62.8204 45.1579C62.8135 45.1764 62.8064 45.1947 62.7984 45.2125C62.7969 45.2158 62.7959 45.219 62.7945 45.2223L59.9962 51.2634C59.926 51.4149 59.814 51.5431 59.6733 51.633C59.5326 51.7229 59.3692 51.7706 59.2023 51.7707C59.1958 51.7707 59.1898 51.7707 59.1828 51.7707C59.0126 51.7669 58.8472 51.7135 58.7068 51.6172C58.5665 51.5208 58.4573 51.3855 58.3927 51.228L55.9185 45.1995C55.9174 45.1969 55.9164 45.1942 55.9153 45.1915L55.9139 45.188C55.9123 45.1844 55.9114 45.1805 55.9099 45.1768C55.9009 45.154 55.8925 45.131 55.8849 45.1074C55.882 45.0979 55.88 45.0883 55.8775 45.0787C55.8728 45.0608 55.868 45.0429 55.8644 45.0245C55.8614 45.009 55.8594 44.9934 55.8573 44.9778C55.8555 44.9653 55.8533 44.9528 55.852 44.9403C55.85 44.9189 55.8493 44.8977 55.8488 44.8764C55.8488 44.8695 55.8478 44.8629 55.8478 44.856V9.24816C55.8478 8.16228 56.559 7.31178 57.467 7.31178H61.2554C62.1638 7.31203 62.875 8.16203 62.875 9.24816V44.8553ZM61.125 16.1645H57.5983V35.4507H61.125V16.1645ZM57.5983 43.9803H61.125V37.2007H57.5983V43.9803ZM57.5983 9.24816V14.4145H61.125V9.24816C61.1258 9.18474 61.1155 9.12167 61.0947 9.06178H57.6287C57.6078 9.12167 57.5975 9.18474 57.5983 9.24816ZM60.6304 45.7303H58.028L59.25 48.7098L60.6304 45.7303ZM12.95 27.9722C12.95 27.4953 13.0915 27.0291 13.3564 26.6325C13.6214 26.236 13.998 25.9269 14.4386 25.7444C14.8792 25.5619 15.364 25.5142 15.8317 25.6072C16.2995 25.7003 16.7291 25.93 17.0663 26.2672C17.4036 26.6044 17.6332 27.0341 17.7262 27.5018C17.8192 27.9696 17.7715 28.4544 17.589 28.895C17.4064 29.3356 17.0974 29.7122 16.7008 29.9771C16.3043 30.242 15.8381 30.3834 15.3612 30.3834C14.7219 30.3826 14.109 30.1284 13.657 29.6763C13.205 29.2243 12.9508 28.6114 12.95 27.9722ZM14.7 27.9722C14.7 28.1029 14.7388 28.2308 14.8115 28.3395C14.8841 28.4483 14.9874 28.533 15.1083 28.5831C15.2291 28.6331 15.3621 28.6462 15.4903 28.6207C15.6186 28.5952 15.7364 28.5322 15.8289 28.4397C15.9214 28.3472 15.9843 28.2294 16.0098 28.1011C16.0353 27.9728 16.0222 27.8398 15.9722 27.719C15.9221 27.5982 15.8373 27.4949 15.7286 27.4223C15.6198 27.3496 15.4919 27.3109 15.3612 27.3109C15.1859 27.3113 15.0179 27.3811 14.894 27.505C14.7701 27.6289 14.7004 27.7969 14.7 27.9722Z" fill="#FB602F"/>
</svg>
