<svg width="64" height="64" viewBox="0 0 64 64" fill="none" xmlns="http://www.w3.org/2000/svg">
<path d="M61 33H34V6C34 5.86868 33.9741 5.73864 33.9239 5.61731C33.8736 5.49598 33.8 5.38574 33.7071 5.29288C33.6143 5.20003 33.504 5.12637 33.3827 5.07611C33.2614 5.02586 33.1313 5 33 5H5C4.20463 5.00091 3.4421 5.31727 2.87968 5.87968C2.31727 6.4421 2.00091 7.20463 2 8V43C2.00091 43.7954 2.31727 44.5579 2.87968 45.1203C3.4421 45.6827 4.20463 45.9991 5 46H26V54H23C22.8687 54 22.7386 54.0259 22.6173 54.0761C22.496 54.1264 22.3857 54.2 22.2929 54.2929C22.2 54.3857 22.1264 54.496 22.0761 54.6173C22.0259 54.7386 22 54.8687 22 55V59C22 59.1313 22.0259 59.2614 22.0761 59.3827C22.1264 59.504 22.2 59.6143 22.2929 59.7071C22.3857 59.8 22.496 59.8736 22.6173 59.9239C22.7386 59.9741 22.8687 60 23 60H41C41.1313 60 41.2614 59.9741 41.3827 59.9239C41.504 59.8736 41.6143 59.8 41.7071 59.7071C41.8 59.6143 41.8736 59.504 41.9239 59.3827C41.9741 59.2614 42 59.1313 42 59V55C42 54.8687 41.9741 54.7386 41.9239 54.6173C41.8736 54.496 41.8 54.3857 41.7071 54.2929C41.6143 54.2 41.504 54.1264 41.3827 54.0761C41.2614 54.0259 41.1313 54 41 54H38V46H59C59.7954 45.9991 60.5579 45.6827 61.1203 45.1203C61.6827 44.5579 61.9991 43.7954 62 43V34C62 33.8687 61.9741 33.7386 61.9239 33.6173C61.8736 33.496 61.8 33.3857 61.7071 33.2929C61.6143 33.2 61.504 33.1264 61.3827 33.0761C61.2614 33.0259 61.1313 33 61 33ZM5 7H32V11H4V8C4.0003 7.73488 4.10576 7.4807 4.29323 7.29323C4.4807 7.10576 4.73488 7.0003 5 7ZM40 58H24V56H40V58ZM36 54H28V46H31V49C31 49.2652 31.1054 49.5196 31.2929 49.7071C31.4804 49.8946 31.7348 50 32 50C32.2652 50 32.5196 49.8946 32.7071 49.7071C32.8946 49.5196 33 49.2652 33 49V46H36V54ZM60 43C59.9997 43.2651 59.8942 43.5193 59.7068 43.7068C59.5193 43.8942 59.2651 43.9997 59 44H5C4.73488 43.9997 4.4807 43.8942 4.29323 43.7068C4.10576 43.5193 4.0003 43.2651 4 43V13H32V34C32 34.1313 32.0259 34.2614 32.0761 34.3827C32.1264 34.504 32.2 34.6143 32.2929 34.7071C32.3857 34.8 32.496 34.8736 32.6173 34.9239C32.7386 34.9741 32.8687 35 33 35H60V43Z" fill="#FB602F"/>
<path d="M6 10C6.55228 10 7 9.55228 7 9C7 8.44772 6.55228 8 6 8C5.44772 8 5 8.44772 5 9C5 9.55228 5.44772 10 6 10Z" fill="#FB602F"/>
<path d="M9 10C9.55228 10 10 9.55228 10 9C10 8.44772 9.55228 8 9 8C8.44772 8 8 8.44772 8 9C8 9.55228 8.44772 10 9 10Z" fill="#FB602F"/>
<path d="M12 10C12.5523 10 13 9.55228 13 9C13 8.44772 12.5523 8 12 8C11.4477 8 11 8.44772 11 9C11 9.55228 11.4477 10 12 10Z" fill="#FB602F"/>
<path d="M30 16C30 15.8687 29.9741 15.7386 29.9239 15.6173C29.8736 15.496 29.8 15.3857 29.7071 15.2929C29.6143 15.2 29.504 15.1264 29.3827 15.0761C29.2614 15.0259 29.1313 15 29 15H25C24.8687 15 24.7386 15.0259 24.6173 15.0761C24.496 15.1264 24.3857 15.2 24.2929 15.2929C24.2 15.3857 24.1264 15.496 24.0761 15.6173C24.0259 15.7386 24 15.8687 24 16V20H21C20.8687 20 20.7386 20.0259 20.6173 20.0761C20.496 20.1264 20.3857 20.2 20.2929 20.2929C20.2 20.3857 20.1264 20.496 20.0761 20.6173C20.0259 20.7386 20 20.8687 20 21V24H17C16.8687 24 16.7386 24.0259 16.6173 24.0761C16.496 24.1264 16.3857 24.2 16.2929 24.2929C16.2 24.3857 16.1264 24.496 16.0761 24.6173C16.0259 24.7386 16 24.8687 16 25V29H13C12.8687 29 12.7386 29.0259 12.6173 29.0761C12.496 29.1264 12.3857 29.2 12.2929 29.2929C12.2 29.3857 12.1264 29.496 12.0761 29.6173C12.0259 29.7386 12 29.8687 12 30V33H9C8.86868 33 8.73864 33.0259 8.61731 33.0761C8.49599 33.1264 8.38574 33.2 8.29288 33.2929C8.20003 33.3857 8.12637 33.496 8.07611 33.6173C8.02586 33.7386 8 33.8687 8 34V37H6V39H34V37H30V16ZM10 35H12V37H10V35ZM14 31H16V37H14V31ZM18 26H20V37H18V26ZM22 22H24V37H22V22ZM26 37V17H28V37H26Z" fill="#FB602F"/>
<path d="M38 37H36V39H38V37Z" fill="#FB602F"/>
<path d="M43 27C43.55 27.0001 44.0895 26.849 44.5594 26.5631C45.0293 26.2773 45.4116 25.8678 45.6645 25.3794C45.9174 24.891 46.0312 24.3424 45.9933 23.7937C45.9555 23.245 45.7676 22.7172 45.4501 22.2681C45.1325 21.819 44.6977 21.4658 44.193 21.2472C43.6883 21.0286 43.1332 20.9529 42.5884 21.0284C42.0436 21.104 41.53 21.3278 41.1039 21.6756C40.6777 22.0233 40.3554 22.4814 40.172 23H36V25H40.172C40.3794 25.5845 40.7625 26.0904 41.2688 26.4485C41.7751 26.8066 42.3799 26.9992 43 27ZM43 23C43.1978 23 43.3911 23.0586 43.5556 23.1685C43.72 23.2784 43.8482 23.4346 43.9239 23.6173C43.9996 23.8 44.0194 24.0011 43.9808 24.1951C43.9422 24.3891 43.847 24.5673 43.7071 24.7071C43.5673 24.847 43.3891 24.9422 43.1951 24.9808C43.0011 25.0194 42.8 24.9996 42.6173 24.9239C42.4346 24.8482 42.2784 24.72 42.1685 24.5556C42.0586 24.3911 42 24.1978 42 24C42.0003 23.7349 42.1058 23.4807 42.2932 23.2932C42.4807 23.1058 42.7349 23.0003 43 23Z" fill="#FB602F"/>
<path d="M59 5C58.3799 5.00078 57.7751 5.19342 57.2688 5.5515C56.7625 5.90958 56.3794 6.41555 56.172 7H54C53.8557 7 53.7132 7.03121 53.5821 7.09148C53.4511 7.15176 53.3346 7.23967 53.2407 7.34918L47.9435 13.5293L44.7071 10.2929C44.6142 10.2 44.504 10.1264 44.3827 10.0761C44.2614 10.0259 44.1313 10 44 10H36V12H43.5858L47.2929 15.7071C47.3858 15.8 47.496 15.8736 47.6173 15.9239C47.7386 15.9741 47.8687 16 48 16H53.172C53.4079 16.6672 53.8721 17.2296 54.4825 17.5876C55.0929 17.9457 55.8102 18.0765 56.5077 17.9568C57.2052 17.8371 57.838 17.4747 58.2941 16.9337C58.7503 16.3926 59.0004 15.7077 59.0004 15C59.0004 14.2923 58.7503 13.6074 58.2941 13.0663C57.838 12.5253 57.2052 12.1629 56.5077 12.0432C55.8102 11.9235 55.0929 12.0543 54.4825 12.4124C53.8721 12.7704 53.4079 13.3328 53.172 14H50.1743L54.46 9H56.172C56.3554 9.51849 56.6777 9.9766 57.1039 10.3242C57.53 10.6719 58.0435 10.8957 58.5883 10.9712C59.133 11.0467 59.6881 10.971 60.1927 10.7524C60.6973 10.5338 61.1322 10.1806 61.4496 9.73158C61.7671 9.28252 61.9551 8.75482 61.9929 8.20616C62.0307 7.65751 61.917 7.10901 61.6642 6.62062C61.4113 6.13223 61.0291 5.72275 60.5592 5.43694C60.0893 5.15112 59.55 4.99997 59 5ZM56 14C56.1978 14 56.3911 14.0586 56.5556 14.1685C56.72 14.2784 56.8482 14.4346 56.9239 14.6173C56.9996 14.8 57.0194 15.0011 56.9808 15.1951C56.9422 15.3891 56.847 15.5673 56.7071 15.7071C56.5673 15.847 56.3891 15.9422 56.1951 15.9808C56.0011 16.0194 55.8 15.9996 55.6173 15.9239C55.4346 15.8482 55.2784 15.72 55.1685 15.5556C55.0586 15.3911 55 15.1978 55 15C55.0003 14.7349 55.1058 14.4807 55.2932 14.2932C55.4807 14.1058 55.7349 14.0003 56 14ZM59 9C58.8022 9 58.6089 8.94135 58.4444 8.83147C58.28 8.72159 58.1518 8.56541 58.0761 8.38268C58.0004 8.19996 57.9806 7.99889 58.0192 7.80491C58.0578 7.61093 58.153 7.43275 58.2929 7.29289C58.4327 7.15304 58.6109 7.0578 58.8049 7.01921C58.9989 6.98063 59.2 7.00043 59.3827 7.07612C59.5654 7.15181 59.7216 7.27998 59.8315 7.44443C59.9414 7.60888 60 7.80222 60 8C59.9997 8.26512 59.8942 8.5193 59.7068 8.70677C59.5193 8.89424 59.2651 8.9997 59 9Z" fill="#FB602F"/>
<path d="M47 10C47.55 10.0001 48.0895 9.84895 48.5594 9.56314C49.0293 9.27732 49.4116 8.86782 49.6645 8.3794C49.9174 7.89097 50.0312 7.34242 49.9933 6.79371C49.9555 6.24499 49.7676 5.71724 49.4501 5.26813C49.1325 4.81902 48.6977 4.46585 48.193 4.24721C47.6883 4.02857 47.1332 3.95289 46.5884 4.02843C46.0436 4.10398 45.53 4.32784 45.1039 4.67555C44.6777 5.02326 44.3554 5.48144 44.172 6H36V8H44.172C44.3794 8.58445 44.7625 9.09043 45.2688 9.4485C45.7751 9.80658 46.3799 9.99923 47 10ZM47 6C47.1978 6 47.3911 6.05865 47.5556 6.16853C47.72 6.27841 47.8482 6.43459 47.9239 6.61732C47.9996 6.80004 48.0194 7.00111 47.9808 7.19509C47.9422 7.38907 47.847 7.56726 47.7071 7.70711C47.5673 7.84696 47.3891 7.9422 47.1951 7.98079C47.0011 8.01937 46.8 7.99957 46.6173 7.92388C46.4346 7.84819 46.2784 7.72002 46.1685 7.55557C46.0586 7.39112 46 7.19778 46 7C46.0003 6.73488 46.1058 6.4807 46.2932 6.29323C46.4807 6.10576 46.7349 6.0003 47 6Z" fill="#FB602F"/>
<path d="M45.2932 18.7074C44.988 19.3462 44.9184 20.0723 45.0969 20.7575C45.2753 21.4426 45.6902 22.0426 46.2683 22.4514C46.8463 22.8602 47.5503 23.0515 48.2557 22.9914C48.9611 22.9314 49.6226 22.6239 50.1232 22.1232C50.6239 21.6226 50.9314 20.9611 50.9914 20.2557C51.0515 19.5502 50.8602 18.8463 50.4514 18.2683C50.0426 17.6902 49.4426 17.2753 48.7575 17.0969C48.0723 16.9184 47.3462 16.988 46.7074 17.2932L44.7071 15.2929C44.6142 15.2 44.504 15.1264 44.3827 15.0761C44.2614 15.0259 44.1313 15 44 15H36V17H43.5858L45.2932 18.7074ZM49 20C49 20.1978 48.9414 20.3911 48.8315 20.5556C48.7216 20.72 48.5654 20.8482 48.3827 20.9239C48.2 20.9996 47.9989 21.0194 47.8049 20.9808C47.6109 20.9422 47.4327 20.847 47.2929 20.7071C47.153 20.5673 47.0578 20.3891 47.0192 20.1951C46.9806 20.0011 47.0004 19.8 47.0761 19.6173C47.1518 19.4346 47.28 19.2784 47.4444 19.1685C47.6089 19.0586 47.8022 19 48 19C48.2651 19.0003 48.5193 19.1058 48.7068 19.2932C48.8942 19.4807 48.9997 19.7349 49 20Z" fill="#FB602F"/>
<path d="M51.7809 29.6251L54.8609 25.7752C55.5158 26.0444 56.2449 26.0734 56.9192 25.8571C57.5935 25.6409 58.1697 25.1932 58.5458 24.5932C58.922 23.9933 59.074 23.2796 58.975 22.5785C58.8759 21.8773 58.5322 21.2337 58.0046 20.7614C57.477 20.2891 56.7994 20.0185 56.0915 19.9974C55.3837 19.9764 54.6912 20.2062 54.1364 20.6463C53.5816 21.0864 53.2003 21.7084 53.0597 22.4025C52.9192 23.0965 53.0285 23.8179 53.3683 24.4392L50.5193 28.0004H36V30.0004H51C51.15 30.0004 51.298 29.9667 51.4332 29.9017C51.5684 29.8368 51.6872 29.7422 51.7809 29.6251ZM56 22.0004C56.1978 22.0004 56.3911 22.0591 56.5556 22.169C56.72 22.2788 56.8482 22.435 56.9239 22.6177C56.9996 22.8005 57.0194 23.0015 56.9808 23.1955C56.9422 23.3895 56.847 23.5677 56.7071 23.7075C56.5673 23.8474 56.3891 23.9426 56.1951 23.9812C56.0011 24.0198 55.8 24 55.6173 23.9243C55.4346 23.8486 55.2784 23.7204 55.1685 23.556C55.0586 23.3916 55 23.1982 55 23.0004C55.0003 22.7353 55.1058 22.4811 55.2932 22.2937C55.4807 22.1062 55.7349 22.0007 56 22.0004Z" fill="#FB602F"/>
</svg>
