<svg width="64" height="64" viewBox="0 0 64 64" fill="none" xmlns="http://www.w3.org/2000/svg">
<path d="M50.7547 52.4027C51.1452 52.7932 51.1452 53.4264 50.7547 53.8169C46.6629 57.9086 41.4929 60.5721 35.8037 61.5196C34.2752 61.7741 32.7413 61.9006 31.2159 61.9006C28.0097 61.9006 24.8386 61.3405 21.8182 60.24L22.6528 61.4236C22.9711 61.875 22.8632 62.4989 22.4118 62.8171C22.2367 62.9406 22.0356 62.9999 21.8363 62.9999C21.5222 62.9999 21.2131 62.8522 21.0182 62.576L18.1106 58.4524C17.9187 58.1802 17.8748 57.8306 17.9936 57.5196C18.1122 57.2086 18.3779 56.977 18.7023 56.902L23.1499 55.8726C23.6884 55.748 24.2253 56.0835 24.3497 56.6214C24.4742 57.1594 24.1389 57.6966 23.6009 57.8211L22.0324 58.1841C31.3963 61.7941 42.1676 59.5756 49.3403 52.4026C49.7309 52.0123 50.3641 52.0122 50.7547 52.4027ZM37.8708 9.598C47.6692 12.2234 54.9761 20.442 56.5317 30.3565L55.4331 29.1798C55.0563 28.7761 54.4234 28.7542 54.0197 29.1311C53.6161 29.508 53.5942 30.1408 53.9711 30.5445L57.0863 33.8815C57.2769 34.0858 57.5424 34.1991 57.8173 34.1991C57.8698 34.1991 57.9228 34.195 57.9757 34.1865C58.3044 34.1339 58.5853 33.921 58.7251 33.6188L60.8424 29.0387C61.0742 28.5375 60.8556 27.9433 60.3544 27.7115C59.8532 27.4795 59.2587 27.6981 59.0271 28.1995L58.4201 29.5125C57.5974 24.8405 55.5886 20.4733 52.5347 16.7628C48.8696 12.3094 43.9778 9.16375 38.3883 7.66612C37.8551 7.52338 37.3067 7.83988 37.1636 8.37325C37.0208 8.90662 37.3374 9.455 37.8708 9.598ZM5.56894 42.1924C5.65469 42.1924 5.74169 42.1813 5.82831 42.1581C6.36181 42.0151 6.67844 41.4669 6.53544 40.9334C3.90994 31.135 7.37406 20.6978 15.1826 14.3931L14.7127 15.9331C14.5514 16.4614 14.8491 17.0203 15.3772 17.1815C15.4744 17.2111 15.5727 17.2253 15.6694 17.2253C16.0978 17.2253 16.4941 16.9479 16.6254 16.5169L17.9578 12.1504C18.0549 11.832 17.9873 11.486 17.7773 11.2277C17.5673 10.9695 17.2434 10.8324 16.9109 10.8626L11.8859 11.3189C11.3359 11.3688 10.9306 11.8552 10.9806 12.4051C11.0303 12.9551 11.5164 13.3599 12.0668 13.3106L13.5072 13.1799C9.87231 16.2283 7.09469 20.1516 5.40819 24.6516C3.38406 30.0525 3.10569 35.8616 4.60344 41.451C4.72344 41.8978 5.12744 42.1924 5.56894 42.1924ZM21.3688 7.19675C21.3688 3.77975 24.1487 1 27.5656 1C30.9824 1 33.7623 3.77988 33.7623 7.19675C33.7623 10.6136 30.9824 13.3935 27.5656 13.3935C24.1487 13.3935 21.3688 10.6136 21.3688 7.19675ZM23.3688 7.19675C23.3688 9.51088 25.2516 11.3935 27.5656 11.3935C29.8796 11.3935 31.7623 9.51088 31.7623 7.19675C31.7623 4.88263 29.8797 3 27.5656 3C25.2514 3 23.3688 4.88263 23.3688 7.19675ZM23.6438 34.3112C23.6438 30.1177 27.0554 26.7061 31.2489 26.7061C35.4424 26.7061 38.8542 30.1177 38.8542 34.3112C38.8542 38.5047 35.4424 41.9164 31.2489 41.9164C27.0554 41.9164 23.6438 38.5047 23.6438 34.3112ZM25.6438 34.3112C25.6438 37.402 28.1582 39.9164 31.2489 39.9164C34.3397 39.9164 36.8542 37.4019 36.8542 34.3112C36.8542 31.2206 34.3397 28.7061 31.2489 28.7061C28.1582 28.7061 25.6438 31.2206 25.6438 34.3112ZM18.7366 30.7763C19.0129 29.7965 19.4036 28.8544 19.9022 27.9646L19.1014 26.1619C18.9336 25.7838 19.0157 25.3414 19.3082 25.0489L21.9863 22.3708C22.2789 22.0783 22.7211 21.9959 23.0993 22.164L24.9014 22.9644C25.7912 22.4655 26.7337 22.0747 27.7141 21.7984L28.4219 19.9594C28.5704 19.5732 28.9414 19.3186 29.3552 19.3186H33.1426C33.5563 19.3186 33.9272 19.5734 34.0758 19.9594L34.7839 21.7991C35.7637 22.0754 36.7057 22.466 37.5954 22.9648L39.3984 22.164C39.7766 21.9963 40.2188 22.0782 40.5114 22.3709L43.1896 25.0489C43.4821 25.3414 43.5642 25.7839 43.3963 26.1619L42.5958 27.964C43.0947 28.8538 43.4853 29.7959 43.7618 30.7765L45.6009 31.4844C45.9869 31.6329 46.2417 32.0039 46.2417 32.4176V36.205C46.2417 36.6188 45.9869 36.9896 45.6009 37.1382L43.7614 37.8462C43.4851 38.8264 43.0944 39.7685 42.5957 40.6581L43.3963 42.4606C43.5642 42.8387 43.4821 43.2811 43.1896 43.5736L40.5114 46.2518C40.2188 46.5443 39.7766 46.6265 39.3984 46.4586L37.5954 45.6579C36.7059 46.1566 35.7638 46.5472 34.7839 46.8236L34.0758 48.6632C33.9273 49.0493 33.5563 49.304 33.1426 49.304H29.3552C28.9414 49.304 28.5706 49.0493 28.4219 48.6632L27.7139 46.8236C26.7341 46.5472 25.7919 46.1566 24.9024 45.6579L23.0994 46.4586C22.7213 46.6265 22.2789 46.5443 21.9866 46.2518L19.3083 43.5736C19.0157 43.2811 18.9336 42.8387 19.1014 42.4606L19.9018 40.6585C19.4029 39.7686 19.0123 38.8264 18.7359 37.846L16.8968 37.1381C16.5108 36.9896 16.2561 36.6186 16.2561 36.2049V32.4175C16.2561 32.0037 16.5108 31.6329 16.8968 31.4842L18.7366 30.7763ZM18.2561 33.1043V35.5184L19.9336 36.1641C20.2413 36.2825 20.4708 36.5451 20.5471 36.8659C20.8166 37.9986 21.2636 39.0769 21.8757 40.0708C22.0487 40.3516 22.0719 40.6996 21.9382 41.001L21.2079 42.6451L22.9151 44.3522L24.5599 43.6217C24.8611 43.488 25.2093 43.5112 25.4901 43.6842C26.4839 44.2962 27.5619 44.7431 28.6942 45.0126C29.0149 45.089 29.2774 45.3185 29.3958 45.6263L30.0417 47.3042H32.4557L33.1017 45.6263C33.2201 45.3186 33.4827 45.089 33.8033 45.0126C34.9356 44.7431 36.0136 44.2962 37.0074 43.6842C37.2882 43.5112 37.6364 43.4881 37.9376 43.6217L39.5824 44.3522L41.2894 42.6451L40.5589 41.0006C40.4252 40.6991 40.4484 40.3511 40.6214 40.0703C41.2334 39.0766 41.6803 37.9985 41.9499 36.866C42.0262 36.5452 42.2558 36.2827 42.5634 36.1644L44.2413 35.5185V33.1043L42.5638 32.4585C42.2561 32.3401 42.0266 32.0775 41.9503 31.7568C41.6807 30.6238 41.2337 29.5455 40.6216 28.552C40.4486 28.2711 40.4252 27.923 40.5591 27.6216L41.2894 25.9775L39.5824 24.2705L37.9376 25.001C37.6364 25.1346 37.2884 25.1115 37.0074 24.9386C36.0134 24.3266 34.9354 23.8796 33.8034 23.6103C33.4827 23.5339 33.2201 23.3044 33.1017 22.9966L32.4557 21.3185H30.0417L29.3959 22.996C29.2776 23.3038 29.0149 23.5334 28.6942 23.6096C27.5614 23.8791 26.4832 24.3261 25.4893 24.9381C25.2083 25.1112 24.8602 25.1344 24.5591 25.0006L22.9149 24.2704L21.2079 25.9774L21.9386 27.6221C22.0723 27.9235 22.0491 28.2715 21.8762 28.5524C21.2642 29.5463 20.8172 30.6242 20.5477 31.7564C20.4714 32.0771 20.2418 32.3396 19.9342 32.458L18.2561 33.1043ZM31.3083 36.4456C30.8603 36.4564 30.2989 36.2895 30.1731 35.7851C30.0394 35.2493 29.4964 34.9233 28.9608 35.0568C28.4249 35.1904 28.0988 35.7331 28.2324 36.269C28.4812 37.2665 29.2419 38.0064 30.2489 38.3032V38.3475C30.2489 38.8997 30.6967 39.3475 31.2489 39.3475C31.8012 39.3475 32.2489 38.8997 32.2489 38.3475V38.3214C32.8633 38.1614 33.3969 37.8541 33.7561 37.4389C34.1768 36.9522 34.3569 36.3454 34.2766 35.684C34.1194 34.3887 33.1573 33.5872 31.4168 33.3016C30.7638 33.1944 30.4266 33.013 30.4143 32.7626C30.3954 32.3728 30.8476 32.2395 30.9866 32.208C31.3212 32.1321 31.9538 32.1635 32.2047 32.7609C32.4186 33.2701 33.0049 33.5094 33.5139 33.2957C34.0231 33.082 34.2626 32.4958 34.0487 31.9866C33.7054 31.169 33.0458 30.5859 32.2489 30.3258V30.2752C32.2489 29.723 31.8012 29.2752 31.2489 29.2752C30.6967 29.2752 30.2489 29.723 30.2489 30.2752V30.3391C29.0862 30.72 28.3604 31.701 28.4168 32.8596C28.4529 33.6036 28.8486 34.9067 31.0928 35.2752C32.2351 35.4627 32.2743 35.7866 32.2912 35.925C32.3059 36.0466 32.2769 36.0916 32.2432 36.1306C32.1147 36.2791 31.7524 36.435 31.3083 36.4456ZM17.7471 53.8774C17.9392 54.1856 17.9491 54.574 17.7728 54.8916C17.5964 55.2094 17.2617 55.4064 16.8984 55.4064H2.31881C1.95556 55.4064 1.62081 55.2094 1.44444 54.8916C1.26819 54.574 1.27806 54.1858 1.47019 53.8774L8.75994 42.1819C8.94256 41.8889 9.26331 41.7108 9.60856 41.7108C9.95381 41.7108 10.2746 41.8889 10.4572 42.1819L17.7471 53.8774ZM15.0968 53.4062L9.60869 44.6012L4.12056 53.4062H15.0968ZM62.6813 39.5703V49.7875C62.6813 50.3397 62.2336 50.7875 61.6813 50.7875H51.4641C50.9118 50.7875 50.4641 50.3397 50.4641 49.7875V39.5703C50.4641 39.018 50.9118 38.5703 51.4641 38.5703H61.6813C62.2336 38.5703 62.6813 39.0179 62.6813 39.5703ZM60.6813 40.5703H52.4641V48.7875H60.6813V40.5703Z" fill="#FB602F"/>
</svg>
