<svg width="64" height="64" viewBox="0 0 64 64" fill="none" xmlns="http://www.w3.org/2000/svg">
<path d="M34 18C32.0222 18 30.0888 18.5865 28.4443 19.6853C26.7998 20.7841 25.5181 22.3459 24.7612 24.1732C24.0043 26.0004 23.8063 28.0111 24.1922 29.9509C24.578 31.8907 25.5304 33.6725 26.9289 35.0711C28.3275 36.4696 30.1093 37.422 32.0491 37.8079C33.9889 38.1937 35.9996 37.9957 37.8268 37.2388C39.6541 36.4819 41.2159 35.2002 42.3147 33.5557C43.4135 31.9112 44 29.9778 44 28C43.9958 25.3491 42.9408 22.8081 41.0664 20.9336C39.192 19.0592 36.6509 18.0042 34 18ZM34 36C32.4178 36 30.871 35.5308 29.5554 34.6518C28.2399 33.7727 27.2145 32.5233 26.609 31.0615C26.0035 29.5997 25.845 27.9911 26.1537 26.4393C26.4624 24.8874 27.2243 23.462 28.3432 22.3431C29.462 21.2243 30.8874 20.4624 32.4393 20.1537C33.9911 19.845 35.5997 20.0035 37.0615 20.609C38.5233 21.2145 39.7727 22.2398 40.6518 23.5554C41.5308 24.871 42 26.4177 42 28C41.9971 30.1208 41.1533 32.154 39.6536 33.6536C38.154 35.1533 36.1208 35.9971 34 36Z" fill="#FB602F"/>
<path d="M61.2901 18.86C61.1368 18.4265 60.8975 18.0285 60.5864 17.69C60.2754 17.3514 59.899 17.0793 59.48 16.89C58.7033 16.527 57.8191 16.4664 57 16.72V14.87C57.0008 14.6043 56.8966 14.3491 56.71 14.16L44.8801 2.29C44.6894 2.1058 44.4352 2.00197 44.17 2H10.0001C9.73483 2 9.48048 2.10536 9.29294 2.29289C9.10541 2.48043 9.00005 2.73478 9.00005 3V35.98L4.20005 35.02C4.05481 34.9907 3.90483 34.9943 3.76118 35.0306C3.61752 35.067 3.48386 35.1351 3.37005 35.23C3.25375 35.3216 3.15995 35.4387 3.09582 35.5721C3.03169 35.7056 2.99893 35.8519 3.00005 36V50C2.99871 50.1317 3.02367 50.2623 3.07345 50.3843C3.12323 50.5062 3.19684 50.617 3.28996 50.7101C3.38309 50.8032 3.49386 50.8768 3.61579 50.9266C3.73772 50.9764 3.86836 51.0013 4.00005 51H9.00005V61C9.00005 61.2652 9.10541 61.5196 9.29294 61.7071C9.48048 61.8946 9.73483 62 10.0001 62H56C56.2653 62 56.5196 61.8946 56.7072 61.7071C56.8947 61.5196 57 61.2652 57 61V30.5L61.18 21.54C61.5703 20.6965 61.6098 19.7326 61.2901 18.86ZM45 5.25L53.7201 14H50C48.674 14 47.4022 13.4732 46.4645 12.5355C45.5268 11.5979 45 10.3261 45 9V5.25ZM5.00005 49V37.22L13.8101 38.98C13.9191 38.9983 14.0301 39.0017 14.1401 38.99L20.7401 38.05L33.5201 47.52C33.7852 47.7052 34.0012 47.9523 34.1493 48.2398C34.2974 48.5273 34.3732 48.8466 34.3701 49.17C34.3722 49.5783 34.2463 49.977 34.01 50.31C33.7037 50.7432 33.2386 51.0378 32.716 51.1296C32.1934 51.2214 31.6557 51.1029 31.2201 50.8L23.2001 45.18L22.0601 46.82L30.0801 52.44C30.8479 52.9733 31.7781 53.2212 32.7095 53.1408C33.6409 53.0605 34.5149 52.6569 35.18 52H45C45.5293 52.0039 46.0357 52.2159 46.4099 52.5901C46.7841 52.9644 46.9961 53.4708 47 54C46.9985 54.5299 46.7872 55.0377 46.4125 55.4125C46.0378 55.7872 45.53 55.9984 45 56H22.3401L13.6101 49.21C13.437 49.0718 13.2215 48.9976 13.0001 49H5.00005ZM55 60H11.0001V51H12.6601L21.3901 57.79C21.5654 57.924 21.7794 57.9976 22.0001 58H45C46.0609 58 47.0783 57.5786 47.8285 56.8284C48.5786 56.0783 49 55.0609 49 54C49 52.9391 48.5786 51.9217 47.8285 51.1716C47.0783 50.4214 46.0609 50 45 50H36.2701C36.3335 49.7278 36.367 49.4495 36.37 49.17C36.3712 48.5304 36.2193 47.8999 35.9271 47.331C35.6348 46.7621 35.2107 46.2715 34.6901 45.9L21.6001 36.2C21.4954 36.121 21.3761 36.0636 21.2491 36.031C21.122 35.9984 20.9898 35.9912 20.8601 36.01L14.0301 36.98L11.0001 36.38V4H43V9C43.0022 10.8559 43.7403 12.6351 45.0526 13.9474C46.3649 15.2597 48.1442 15.9979 50 16H55V18.3C54.9501 18.39 54.8801 18.48 54.8301 18.58L44.48 40.78C44.4003 40.9517 44.3692 41.1419 44.39 41.33L44.9701 46H37V48H51V46H47.62L50.46 44.16C50.6179 44.0575 50.7429 43.9117 50.82 43.74L51.25 42.84V42.83L55 34.79V60ZM46.46 41.7L48.85 42.82L46.76 44.18L46.46 41.7ZM49.8601 41.08L47.14 39.82L55.17 22.6L57.89 23.86L49.8601 41.08ZM59.37 20.69L58.73 22.05L56.01 20.78L56.6501 19.42C56.7232 19.2626 56.8249 19.1202 56.9501 19H57V18.95C57.2179 18.7506 57.4901 18.6204 57.7821 18.5759C58.074 18.5313 58.3727 18.5746 58.64 18.7C58.8195 18.7817 58.981 18.8982 59.1151 19.0428C59.2491 19.1875 59.3531 19.3573 59.4211 19.5424C59.489 19.7275 59.5194 19.9243 59.5107 20.1213C59.5019 20.3183 59.4541 20.5116 59.37 20.69Z" fill="#FB602F"/>
<path d="M37 26V25C37 24.7348 36.8946 24.4804 36.7071 24.2929C36.5196 24.1054 36.2652 24 36 24H32C31.7348 24 31.4804 24.1054 31.2929 24.2929C31.1054 24.4804 31 24.7348 31 25V26C31 26.2652 31.1054 26.5196 31.2929 26.7071C31.4804 26.8946 31.7348 27 32 27H36C36.7949 27.0024 37.5566 27.3192 38.1187 27.8813C38.6808 28.4434 38.9976 29.2051 39 30V31C38.9976 31.7949 38.6808 32.5566 38.1187 33.1187C37.5566 33.6808 36.7949 33.9976 36 34H35V35H33V34H32C31.2051 33.9976 30.4434 33.6808 29.8813 33.1187C29.3192 32.5566 29.0024 31.7949 29 31H31C31 31.2652 31.1054 31.5196 31.2929 31.7071C31.4804 31.8946 31.7348 32 32 32H36C36.2652 32 36.5196 31.8946 36.7071 31.7071C36.8946 31.5196 37 31.2652 37 31V30C37 29.7348 36.8946 29.4804 36.7071 29.2929C36.5196 29.1054 36.2652 29 36 29H32C31.2051 28.9976 30.4434 28.6808 29.8813 28.1187C29.3192 27.5566 29.0024 26.7949 29 26V25C29.0024 24.2051 29.3192 23.4434 29.8813 22.8813C30.4434 22.3192 31.2051 22.0024 32 22H33V21H35V22H36C36.7949 22.0024 37.5566 22.3192 38.1187 22.8813C38.6808 23.4434 38.9976 24.2051 39 25V26H37Z" fill="#FB602F"/>
<path d="M20 12H40V14H20V12Z" fill="#FB602F"/>
<path d="M14 12H18V14H14V12Z" fill="#FB602F"/>
<path d="M20 7H40V9H20V7Z" fill="#FB602F"/>
<path d="M14 7H18V9H14V7Z" fill="#FB602F"/>
</svg>
