<svg width="64" height="64" viewBox="0 0 64 64" fill="none" xmlns="http://www.w3.org/2000/svg">
<path d="M5.41699 63.0625H36.0234" stroke="#FB602F" stroke-width="1.87502" stroke-miterlimit="10" stroke-linecap="round" stroke-linejoin="round"/>
<path d="M11.8037 24.75H29.6373" stroke="#FB602F" stroke-width="1.87502" stroke-miterlimit="10" stroke-linecap="round" stroke-linejoin="round"/>
<path d="M11.8037 28.9395H29.6373" stroke="#FB602F" stroke-width="1.87502" stroke-miterlimit="10" stroke-linecap="round" stroke-linejoin="round"/>
<path d="M11.8037 33.1289H29.6373" stroke="#FB602F" stroke-width="1.87502" stroke-miterlimit="10" stroke-linecap="round" stroke-linejoin="round"/>
<path d="M11.8037 37.3203H29.6373" stroke="#FB602F" stroke-width="1.87502" stroke-miterlimit="10" stroke-linecap="round" stroke-linejoin="round"/>
<path d="M11.8037 41.5098H29.6373" stroke="#FB602F" stroke-width="1.87502" stroke-miterlimit="10" stroke-linecap="round" stroke-linejoin="round"/>
<path d="M11.8037 45.7012H29.6373" stroke="#FB602F" stroke-width="1.87502" stroke-miterlimit="10" stroke-linecap="round" stroke-linejoin="round"/>
<path d="M11.8037 49.8926H29.6373" stroke="#FB602F" stroke-width="1.87502" stroke-miterlimit="10" stroke-linecap="round" stroke-linejoin="round"/>
<path d="M24.2486 54.082H17.1924C16.5279 54.082 15.9893 54.6208 15.9893 55.2852V63.0617H25.4519V55.2852C25.4518 54.6208 24.913 54.082 24.2486 54.082Z" stroke="#FB602F" stroke-width="1.87502" stroke-miterlimit="10" stroke-linecap="round" stroke-linejoin="round"/>
<path d="M20.7202 54.707V62.5404" stroke="#FB602F" stroke-width="1.87502" stroke-miterlimit="10" stroke-linecap="round" stroke-linejoin="round"/>
<path d="M51.6017 28.718C51.6017 28.718 50.583 27.6602 49.2117 27.6602C47.8404 27.6602 46.8413 28.6593 46.8413 29.6877C46.8413 30.7162 48.1342 31.5389 49.77 31.9699C51.4058 32.4009 51.7519 33.2465 51.7519 34.1477C51.7519 35.0488 50.9553 36.2112 49.0877 36.2112C47.22 36.2112 46.3843 34.8529 46.3843 34.8529" stroke="#FB602F" stroke-width="1.87502" stroke-miterlimit="10" stroke-linecap="round" stroke-linejoin="round"/>
<path d="M49.0679 26.0703V27.2197" stroke="#FB602F" stroke-width="1.87502" stroke-miterlimit="10" stroke-linecap="round" stroke-linejoin="round"/>
<path d="M49.0679 36.6465V37.7957" stroke="#FB602F" stroke-width="1.87502" stroke-miterlimit="10" stroke-linecap="round" stroke-linejoin="round"/>
<path d="M57.0107 14.6089H53.845C53.2854 14.6089 52.8318 15.0626 52.8318 15.6222V23.1948C51.6773 22.6969 50.405 22.4198 49.0679 22.4198C47.7306 22.4198 46.4585 22.6969 45.3038 23.1948V15.6222C45.3038 15.0626 44.8502 14.6089 44.2906 14.6089H41.1249C40.3107 14.6089 39.829 13.6973 40.2878 13.0247L48.2306 1.37982C48.6329 0.790061 49.5026 0.790061 49.9049 1.37982L57.8477 13.0247C58.3066 13.6973 57.8248 14.6089 57.0107 14.6089Z" stroke="#FB602F" stroke-width="1.87502" stroke-miterlimit="10" stroke-linecap="round" stroke-linejoin="round"/>
<path d="M51.2553 41.1946C55.4555 40.206 58.5829 36.4369 58.5829 31.935C58.5829 26.68 54.3229 22.4199 49.0678 22.4199C43.8128 22.4199 39.5527 26.68 39.5527 31.935C39.5527 36.4369 42.6803 40.206 46.8803 41.1945" stroke="#FB602F" stroke-width="1.87502" stroke-miterlimit="10" stroke-linecap="round" stroke-linejoin="round"/>
<path d="M34.9705 47.7039V21.1961C34.9705 20.5806 34.4715 20.0815 33.8559 20.0815H28.9601C28.3444 20.0815 27.8454 19.5825 27.8454 18.9668V15.8627C27.8454 15.2472 27.3464 14.748 26.7308 14.748H14.7098C14.0942 14.748 13.5952 15.2471 13.5952 15.8627V18.9668C13.5952 19.5823 13.0962 20.0815 12.4805 20.0815H7.58485C6.96922 20.0815 6.47021 20.5805 6.47021 21.1961V63.0616H34.9705V52.0788" stroke="#FB602F" stroke-width="1.87502" stroke-miterlimit="10" stroke-linecap="round" stroke-linejoin="round"/>
</svg>
