<svg width="64" height="64" viewBox="0 0 64 64" fill="none" xmlns="http://www.w3.org/2000/svg">
<g clip-path="url(#clip0_2924_18096)">
<path d="M33.9852 15.9838C35.839 15.9838 37.3477 14.4738 37.3477 12.6175C37.3477 10.7613 35.839 9.25125 33.9852 9.25125C32.129 9.25125 30.619 10.7613 30.619 12.6175C30.6202 14.4738 32.1302 15.9838 33.9852 15.9838ZM33.9852 11.25C34.7377 11.25 35.349 11.8638 35.349 12.6175C35.349 13.3713 34.7365 13.985 33.9852 13.985C33.2315 13.985 32.6177 13.3713 32.6177 12.6175C32.6177 11.8638 33.2315 11.25 33.9852 11.25ZM29.8327 46.4712H22.254C21.129 46.4712 20.2127 47.385 20.2127 48.5088V52.6688C20.2127 53.7925 21.1277 54.7062 22.254 54.7062H29.8327C30.9577 54.7062 31.874 53.7925 31.874 52.6688V48.5088C31.874 47.385 30.959 46.4712 29.8327 46.4712ZM29.8752 52.6675C29.8752 52.685 29.8552 52.7062 29.8327 52.7062H22.254C22.2315 52.7062 22.2115 52.685 22.2115 52.6675V48.5075C22.2115 48.49 22.2302 48.4688 22.254 48.4688H29.8327C29.8565 48.4688 29.8752 48.49 29.8752 48.5075V52.6675ZM27.5477 14.8013L28.2002 15.0138L27.884 15.6337C27.569 16.2625 27.6927 17.0138 28.184 17.4963L29.1052 18.4175C29.6052 18.9175 30.3602 19.035 30.974 18.715L31.5865 18.4025L31.8015 19.065C32.0215 19.7262 32.6377 20.17 33.334 20.17H34.634C35.3302 20.17 35.9465 19.7263 36.169 19.0575L36.3815 18.4025L36.9852 18.71C37.6077 19.035 38.3627 18.9175 38.8627 18.4175L39.7777 17.5025C40.2765 17.0138 40.399 16.2625 40.0815 15.6263L39.769 15.0138L40.4252 14.8C41.0902 14.5813 41.5377 13.9663 41.5377 13.27V11.9663C41.5377 11.26 41.0865 10.6438 40.4215 10.435L39.769 10.2225L40.0852 9.6025C40.3977 8.97875 40.2765 8.22875 39.7852 7.73625L38.864 6.815C38.3652 6.31625 37.6102 6.2 36.9977 6.52L36.3827 6.83125L36.1677 6.17C35.9477 5.50875 35.3315 5.065 34.6352 5.065H33.3352C32.639 5.065 32.0227 5.50875 31.8002 6.1775L31.5877 6.83125L30.984 6.525C30.3602 6.19875 29.6052 6.315 29.1065 6.81375L28.1852 7.735C27.6927 8.2275 27.5727 8.97625 27.8877 9.60875L28.2002 10.2212L27.5565 10.43C26.884 10.6425 26.4327 11.2587 26.4327 11.9637V13.2675C26.4315 13.9662 26.879 14.5813 27.5477 14.8013ZM28.4302 12.2487L29.5715 11.8775C29.864 11.7825 30.0965 11.5575 30.2015 11.2688C30.2527 11.1287 30.3002 11.0125 30.3527 10.9038C30.4865 10.6238 30.4815 10.2963 30.3402 10.02L29.7952 8.9525L30.3177 8.43L31.3902 8.97375C31.6627 9.1125 31.984 9.1175 32.2615 8.98875C32.3865 8.93125 32.514 8.8775 32.6402 8.83125C32.9265 8.725 33.1477 8.49375 33.2427 8.20375L33.6127 7.06625H34.3565L34.7265 8.20375C34.8202 8.49375 35.0427 8.725 35.329 8.83125C35.454 8.8775 35.5815 8.93125 35.7077 8.98875C35.9852 9.1175 36.3065 9.11125 36.579 8.97375L37.6515 8.43L38.174 8.9525L37.629 10.02C37.4877 10.2963 37.4827 10.6238 37.6165 10.9038C37.669 11.0125 37.7165 11.1287 37.7677 11.2688C37.8727 11.5575 38.1052 11.7825 38.3977 11.8775L39.539 12.2487V12.9862L38.3977 13.3575C38.1077 13.4513 37.8765 13.6737 37.7702 13.9587C37.7302 14.0662 37.6765 14.205 37.6165 14.3313C37.4827 14.6112 37.4877 14.9388 37.629 15.215L38.1727 16.28L37.6502 16.8025L36.5815 16.2575C36.3015 16.115 35.9715 16.1125 35.6902 16.25C35.5777 16.305 35.4627 16.3525 35.349 16.3925C35.054 16.495 34.824 16.73 34.7277 17.0275L34.3577 18.1688H33.614L33.244 17.0275C33.1477 16.73 32.9177 16.495 32.6227 16.3925C32.509 16.3525 32.394 16.305 32.2815 16.25C32.0002 16.1125 31.6702 16.115 31.3902 16.2575L30.3215 16.8025L29.799 16.28L30.3427 15.215C30.484 14.9388 30.489 14.6112 30.3552 14.3313C30.2952 14.205 30.2415 14.0662 30.2015 13.9587C30.0952 13.6725 29.864 13.4513 29.574 13.3575L28.4327 12.9862V12.2487H28.4302ZM36.174 40.35L35.7927 39.9688H38.9465C39.4977 39.9688 39.9452 39.5213 39.9452 38.97V27.355C39.9452 26.8037 39.4977 26.3563 38.9465 26.3563H31.874V25.275C31.874 24.15 30.959 23.2337 29.8327 23.2337H22.254C21.129 23.2337 20.2127 24.1488 20.2127 25.275V29.4312C20.2127 30.5562 21.1277 31.4725 22.254 31.4725H29.8327C30.9577 31.4725 31.874 30.5575 31.874 29.4312V28.3538H37.9477V37.97H35.7927L36.174 37.5887C36.564 37.1987 36.564 36.5662 36.174 36.1763C35.784 35.7863 35.1515 35.7863 34.7615 36.1763L32.674 38.2637C32.4865 38.4512 32.3815 38.705 32.3815 38.97C32.3815 39.235 32.4865 39.4888 32.674 39.6763L34.7615 41.7637C34.9565 41.9587 35.2127 42.0563 35.4677 42.0563C35.7227 42.0563 35.979 41.9587 36.174 41.7637C36.564 41.3725 36.564 40.74 36.174 40.35ZM29.8752 29.4312C29.8752 29.4537 29.8552 29.4737 29.8327 29.4737H22.254C22.2315 29.4737 22.2115 29.4537 22.2115 29.4312V25.275C22.2115 25.2525 22.2315 25.2325 22.254 25.2325H29.8327C29.8552 25.2325 29.8752 25.2525 29.8752 25.275V29.4312ZM59.039 32.75L57.569 31.2763C57.5677 31.275 57.5677 31.275 57.5665 31.2738C56.2852 29.9975 54.199 29.9975 52.9165 31.275L50.0265 34.165V4.66625C50.0265 2.09375 47.9315 0 45.3565 0H19.6527C18.9177 0 18.2552 0.275 17.734 0.79625L4.79772 13.7325C4.27772 14.2537 4.00146 14.9163 4.00146 15.6512V59.3338C4.00146 61.9075 6.09521 64 8.66771 64H45.3552C47.9302 64 50.0252 61.9062 50.0252 59.3338V46.41L59.0377 37.3975C59.6565 36.7787 59.9977 35.9538 59.9977 35.0737C59.9977 34.1937 59.6577 33.3688 59.039 32.75ZM17.9415 3.415V13.9425H7.41397L17.9415 3.415ZM48.0277 59.3325C48.0277 60.8037 46.829 62.0013 45.3565 62.0013H8.66896C7.19771 62.0013 6.00146 60.8037 6.00146 59.3325V15.9412H18.9415C19.494 15.9412 19.9402 15.4937 19.9402 14.9425V1.99875H45.3565C46.8302 1.99875 48.0277 3.19625 48.0277 4.66625V36.1637L37.5952 46.5962C37.2777 46.9187 37.0702 47.2875 36.9615 47.7175L35.6565 52.8112C35.5252 53.3363 35.6752 53.8775 36.0577 54.26C36.3465 54.5487 36.7265 54.7038 37.1252 54.7038C37.2515 54.7038 37.3802 54.6875 37.5077 54.6562L42.594 53.3563C43.0327 53.245 43.4027 53.0337 43.7252 52.7113L48.029 48.4075V59.3325H48.0277ZM38.629 49.2637L41.054 51.6888L37.7952 52.5213L38.629 49.2637ZM42.9002 50.7088L39.604 47.4125L49.694 37.3225C49.7202 37.2987 49.7452 37.2738 49.7677 37.2487L52.314 34.7025L55.6115 37.9975L42.9002 50.7088ZM57.6252 35.985L57.0252 36.585L53.7277 33.29L54.3277 32.69C54.5802 32.4387 54.9102 32.3138 55.2415 32.3138C55.5727 32.3138 55.9027 32.4387 56.1552 32.69L57.6252 34.1625C57.8665 34.4037 58.0002 34.7275 58.0002 35.0737C58.0002 35.42 57.8665 35.7438 57.6252 35.985ZM29.8327 34.8525H22.254C21.129 34.8525 20.2127 35.7663 20.2127 36.89V37.9712H13.1402C12.589 37.9712 12.1415 38.4188 12.1415 38.97V50.5887C12.1415 51.1413 12.589 51.5875 13.1402 51.5875H16.294L15.9127 51.9688C15.5227 52.3587 15.5227 52.9912 15.9127 53.3812C16.1077 53.5762 16.364 53.6738 16.619 53.6738C16.874 53.6738 17.1302 53.5762 17.3252 53.3812L19.4127 51.2938C19.6002 51.1063 19.7052 50.8525 19.7052 50.5875C19.7052 50.3225 19.6002 50.0687 19.4127 49.8812L17.3252 47.7938C16.9352 47.4038 16.3027 47.4038 15.9127 47.7938C15.5227 48.1838 15.5227 48.8162 15.9127 49.2062L16.294 49.5875H14.139V39.9675H20.2127V41.0488C20.2127 42.1725 21.1277 43.0863 22.254 43.0863H29.8327C30.9577 43.0863 31.874 42.1725 31.874 41.0488V36.8887C31.874 35.7662 30.959 34.8525 29.8327 34.8525ZM29.8752 41.05C29.8752 41.0675 29.8565 41.0887 29.8327 41.0887H22.254C22.2302 41.0887 22.2115 41.0675 22.2115 41.05V36.89C22.2115 36.8725 22.2315 36.8512 22.254 36.8512H29.8327C29.8552 36.8512 29.8752 36.8725 29.8752 36.89V41.05Z" fill="#FB602F"/>
</g>
<defs>
<clipPath id="clip0_2924_18096">
<rect width="64" height="64" fill="white"/>
</clipPath>
</defs>
</svg>
