<svg width="81" height="80" viewBox="0 0 81 80" fill="none" xmlns="http://www.w3.org/2000/svg">
<path d="M32.5719 34.1549C32.6954 33.0815 32.7675 32.1781 32.7881 31.0729H37.2773C37.2258 33.0496 37.0816 34.8031 36.8448 36.7586C32.7881 37.3325 28.7623 37.5875 24.7365 37.5875C20.7106 37.5875 16.5612 37.3325 12.4839 36.7586C12.1647 33.8785 12 31.2004 12 28.2885C12 25.3765 12.1544 22.709 12.4736 19.8289C16.5509 19.2551 20.6488 19 24.7262 19C28.8035 19 32.7778 19.2019 36.8345 19.6802C37.0816 21.6569 37.2258 23.4848 37.267 25.4403H32.7778C32.7572 24.4094 32.6852 23.4848 32.5616 22.4327C29.9669 22.1564 27.3002 22.082 24.7262 22.082C22.1521 22.082 19.3412 22.1564 16.7157 22.4327C16.5715 24.4413 16.448 26.2692 16.448 28.2885C16.448 30.3077 16.5715 32.1463 16.7157 34.1442C19.3309 34.4205 22.08 34.4949 24.7262 34.4949C27.3723 34.4949 29.9669 34.4205 32.5616 34.1442L32.5719 34.1549Z" fill="#FCFCFC"/>
<path d="M58.2715 28.0132L64.5522 19.2773H68.9899L60.6396 31.0952C59.2805 31.2227 58.2406 31.2758 56.9742 31.2971V37.3123H52.485V31.2971C51.198 31.2758 50.1272 31.2439 48.8195 31.0952L40.459 19.2773H44.8761L51.1877 28.0132C52.1349 28.0876 53.5867 28.1407 54.7296 28.1407C55.8725 28.1407 57.2728 28.0876 58.2715 28.0132Z" fill="#FCFCFC"/>
<path d="M33.3594 49.8516V54.1132H15.8867V49.8516H33.3594Z" fill="#FB602F"/>
<path d="M45.8342 53.5605V60.9998H41.7363V42.9648H45.8342V50.351C47.1419 50.4041 48.676 50.4041 50.3955 50.4041C51.7546 50.4041 53.2372 50.3829 54.2772 50.3297L62.4833 42.9648H67.2607L57.5822 51.9557L67.724 60.9998H62.8745L54.2875 53.5817C53.2475 53.5286 51.7649 53.5074 50.4058 53.5074C48.6863 53.5074 47.1522 53.5286 45.8445 53.5605H45.8342Z" fill="#FCFCFC"/>
</svg>
