<svg width="64" height="64" viewBox="0 0 64 64" fill="none" xmlns="http://www.w3.org/2000/svg">
<g clip-path="url(#clip0_2926_18341)">
<path d="M62.75 61.5H60.7474V48.6857C60.7474 47.9955 60.1878 47.4357 59.4974 47.4357C58.807 47.4357 58.2474 47.9955 58.2474 48.6857V61.5H53.7474V26H58.2474V38.5729C58.2474 39.2631 58.807 39.8229 59.4974 39.8229C60.1878 39.8229 60.7474 39.2631 60.7474 38.5729V24.75C60.7474 24.0596 60.1878 23.5 59.4974 23.5H52.4974C51.807 23.5 51.2474 24.0596 51.2474 24.75V61.5H48.7474V47.25C48.7474 46.5597 48.1878 46 47.4974 46H40.4974C39.807 46 39.2474 46.5597 39.2474 47.25V61.5H36.7474V39.25C36.7474 38.5597 36.1878 38 35.4974 38H28.4974C27.807 38 27.2474 38.5597 27.2474 39.25V61.5H24.7474V48C24.7474 47.3097 24.1877 46.75 23.4974 46.75H16.4974C15.807 46.75 15.2474 47.3097 15.2474 48V61.5H12.7526V56C12.7526 55.3097 12.193 54.75 11.5026 54.75H4.50262C3.81225 54.75 3.25262 55.3097 3.25262 56V61.5H1.25C0.559625 61.5 0 62.0597 0 62.75C0 63.4403 0.559625 64 1.25 64H62.75C63.4404 64 64 63.4403 64 62.75C64 62.0597 63.4404 61.5 62.75 61.5ZM10.2526 61.5H5.75262V57.25H10.2526V61.5ZM22.2474 61.5H17.7474V49.25H22.2474V61.5ZM34.2474 61.5H29.7474V40.5H34.2474V61.5ZM46.2474 61.5H41.7474V48.5H46.2474V61.5Z" fill="#FB602F"/>
<path d="M60.3813 42.8662C60.1488 42.6337 59.8263 42.5 59.4976 42.5C59.1688 42.5 58.8463 42.6336 58.6138 42.8662C58.3813 43.0987 58.2476 43.4212 58.2476 43.75C58.2476 44.0788 58.3813 44.4013 58.6138 44.6336C58.8463 44.8661 59.1688 45 59.4976 45C59.8263 45 60.1488 44.8663 60.3813 44.6336C60.6138 44.4013 60.7476 44.0788 60.7476 43.75C60.7476 43.4212 60.6138 43.0987 60.3813 42.8662Z" fill="#FB602F"/>
<path d="M11.75 0C5.271 0 0 5.271 0 11.75C0 18.229 5.271 23.5 11.75 23.5C18.229 23.5 23.5 18.229 23.5 11.75C23.5 5.271 18.229 0 11.75 0ZM11.75 21C6.6495 21 2.5 16.8505 2.5 11.75C2.5 6.6495 6.6495 2.5 11.75 2.5C16.8505 2.5 21 6.6495 21 11.75C21 16.8505 16.8505 21 11.75 21Z" fill="#FB602F"/>
<path d="M11.7498 10.5852C11.0642 10.5852 10.5063 10.1309 10.5063 9.57225C10.5063 9.01362 11.0641 8.55925 11.7498 8.55925C12.4356 8.55925 12.9933 9.01362 12.9933 9.57225C12.9933 10.2626 13.553 10.8222 14.2433 10.8222C14.9337 10.8222 15.4933 10.2626 15.4933 9.57225C15.4933 8.04612 14.4506 6.74475 12.9988 6.261C12.9878 5.58012 12.4333 5.03125 11.7498 5.03125C11.0663 5.03125 10.5118 5.58012 10.5008 6.261C9.0491 6.74475 8.00635 8.046 8.00635 9.57225C8.00635 11.5092 9.68572 13.0852 11.7498 13.0852C12.4355 13.0852 12.9933 13.5396 12.9933 14.0982C12.9933 14.6569 12.4357 15.1112 11.7501 15.1112C11.0645 15.1112 10.5066 14.6569 10.5066 14.0982C10.5066 13.4079 9.94697 12.8482 9.2566 12.8482C8.56622 12.8482 8.0066 13.4079 8.0066 14.0982C8.0066 15.626 9.05147 16.9284 10.5055 17.4109C10.5605 18.0504 11.0962 18.5526 11.75 18.5526C12.4037 18.5526 12.9395 18.0505 12.9945 17.4109C14.4485 16.9284 15.4933 15.626 15.4933 14.0982C15.4933 12.1611 13.814 10.5852 11.7498 10.5852Z" fill="#FB602F"/>
<path d="M2.13375 47.3005C1.90125 47.068 1.57875 46.9355 1.25 46.9355C0.92125 46.9355 0.59875 47.068 0.36625 47.3005C0.13375 47.5343 0 47.8555 0 48.1855C0 48.5143 0.13375 48.8354 0.36625 49.0692C0.59875 49.3018 0.92125 49.4355 1.25 49.4355C1.57875 49.4355 1.90125 49.3018 2.13375 49.0692C2.36625 48.8354 2.5 48.5143 2.5 48.1855C2.5 47.8554 2.36625 47.5343 2.13375 47.3005Z" fill="#FB602F"/>
<path d="M62.7501 4.70898H62.6257C62.6253 4.70898 62.6248 4.70898 62.6244 4.70898H59.7501C59.0597 4.70898 58.5001 5.26861 58.5001 5.95898C58.5001 6.60361 58.9882 7.13398 59.6148 7.20136L44.2917 22.5245L40.3359 18.5687C39.8478 18.0806 39.0563 18.0806 38.5681 18.5687L22.4231 34.7136L18.5729 30.8635C18.0848 30.3754 17.2933 30.3754 16.8051 30.8635L3.58606 44.0826C3.09794 44.5707 3.09794 45.3622 3.58606 45.8505C3.83019 46.0945 4.15006 46.2166 4.46994 46.2166C4.78981 46.2166 5.10981 46.0945 5.35381 45.8505L17.6891 33.5152L21.5392 37.3654C22.0273 37.8534 22.8188 37.8534 23.3069 37.3654L39.4521 21.2204L43.4079 25.1762C43.6423 25.4106 43.9602 25.5424 44.2918 25.5424C44.6234 25.5424 44.9413 25.4106 45.1757 25.1762L61.5001 8.85173V8.95886C61.5001 9.64923 62.0597 10.2089 62.7501 10.2089C63.4404 10.2089 64.0001 9.64923 64.0001 8.95886V5.95886C64.0001 5.26861 63.4404 4.70898 62.7501 4.70898Z" fill="#FB602F"/>
<path d="M4.94775 27.0527C4.25738 27.0527 3.69775 27.6124 3.69775 28.3027V29.6354C3.69775 30.3257 4.25738 30.8854 4.94775 30.8854C5.63813 30.8854 6.19775 30.3257 6.19775 29.6354V28.3027C6.19775 27.6124 5.63813 27.0527 4.94775 27.0527Z" fill="#FB602F"/>
<path d="M4.94775 33.1152C4.25738 33.1152 3.69775 33.675 3.69775 34.3652V35.6977C3.69775 36.388 4.25738 36.9477 4.94775 36.9477C5.63813 36.9477 6.19775 36.388 6.19775 35.6977V34.3652C6.19775 33.675 5.63813 33.1152 4.94775 33.1152Z" fill="#FB602F"/>
<path d="M8.64586 30.75H7.31323C6.62286 30.75 6.06323 31.3096 6.06323 32C6.06323 32.6902 6.62286 33.25 7.31323 33.25H8.64586C9.33623 33.25 9.89586 32.6902 9.89586 32C9.89586 31.3096 9.33623 30.75 8.64586 30.75Z" fill="#FB602F"/>
<path d="M2.58262 30.75H1.25C0.559625 30.75 0 31.3096 0 32C0 32.6902 0.559625 33.25 1.25 33.25H2.58262C3.273 33.25 3.83262 32.6902 3.83262 32C3.83262 31.3096 3.273 30.75 2.58262 30.75Z" fill="#FB602F"/>
<path d="M35.6978 0C35.0074 0 34.4478 0.559625 34.4478 1.25V2.58262C34.4478 3.273 35.0075 3.83262 35.6978 3.83262C36.3881 3.83262 36.9478 3.273 36.9478 2.58262V1.25C36.9478 0.559625 36.3881 0 35.6978 0Z" fill="#FB602F"/>
<path d="M35.6978 6.0625C35.0074 6.0625 34.4478 6.62213 34.4478 7.3125V8.64512C34.4478 9.3355 35.0074 9.89512 35.6978 9.89512C36.3881 9.89512 36.9478 9.3355 36.9478 8.64512V7.3125C36.9478 6.62213 36.3881 6.0625 35.6978 6.0625Z" fill="#FB602F"/>
<path d="M39.3959 3.69727H38.0632C37.3729 3.69727 36.8132 4.25689 36.8132 4.94727C36.8132 5.63764 37.3729 6.19727 38.0632 6.19727H39.3959C40.0862 6.19727 40.6459 5.63764 40.6459 4.94727C40.6459 4.25689 40.0862 3.69727 39.3959 3.69727Z" fill="#FB602F"/>
<path d="M33.3326 3.69727H32C31.3096 3.69727 30.75 4.25689 30.75 4.94727C30.75 5.63764 31.3096 6.19727 32 6.19727H33.3326C34.023 6.19727 34.5826 5.63764 34.5826 4.94727C34.5826 4.25689 34.023 3.69727 33.3326 3.69727Z" fill="#FB602F"/>
</g>
<defs>
<clipPath id="clip0_2926_18341">
<rect width="64" height="64" fill="white"/>
</clipPath>
</defs>
</svg>
