<svg width="64" height="64" viewBox="0 0 64 64" fill="none" xmlns="http://www.w3.org/2000/svg">
<path d="M20.3 59.1035H43.7001" stroke="#FB602F" stroke-width="2" stroke-miterlimit="10" stroke-linecap="round"/>
<path d="M59.15 51.4031H4.8C3.25 51.4031 2 50.1531 2 48.6031V7.75313C2 6.20313 3.25 4.95312 4.8 4.95312H59.2C60.75 4.95312 62 6.20313 62 7.75313V48.5531C62 50.1531 60.75 51.4031 59.15 51.4031Z" stroke="#FB602F" stroke-width="2" stroke-miterlimit="10" stroke-linecap="round"/>
<path d="M3.1001 44.1035H60.9001" stroke="#FB602F" stroke-width="2" stroke-miterlimit="10" stroke-linecap="round"/>
<path d="M32 51.6035V59.1035" stroke="#FB602F" stroke-width="2" stroke-miterlimit="10" stroke-linecap="round"/>
<path d="M8.55005 15.4023H13.1V39.2523H8.55005V15.4023Z" stroke="#FB602F" stroke-width="2" stroke-miterlimit="10" stroke-linecap="round"/>
<path d="M17.25 26.2031H21.8V39.2031H17.25V26.2031Z" stroke="#FB602F" stroke-width="2" stroke-miterlimit="10" stroke-linecap="round"/>
<path d="M25.95 22.2031H30.5V39.2031H25.95V22.2031Z" stroke="#FB602F" stroke-width="2" stroke-miterlimit="10" stroke-linecap="round"/>
<path d="M54 28.152C54 22.952 49.7999 18.752 44.5999 18.752C39.3999 18.752 35.2 22.952 35.2 28.152" stroke="#FB602F" stroke-width="2" stroke-miterlimit="10" stroke-linecap="round"/>
<path d="M44.3999 28.2031L50.6499 22.2031" stroke="#FB602F" stroke-width="2" stroke-miterlimit="10" stroke-linecap="round"/>
<path d="M44.5501 29.1031C45.0748 29.1031 45.5001 28.6778 45.5001 28.1531C45.5001 27.6285 45.0748 27.2031 44.5501 27.2031C44.0254 27.2031 43.6001 27.6285 43.6001 28.1531C43.6001 28.6778 44.0254 29.1031 44.5501 29.1031Z" stroke="#FB602F" stroke-width="2" stroke-miterlimit="10" stroke-linecap="round"/>
</svg>
