<svg width="64" height="64" viewBox="0 0 64 64" fill="none" xmlns="http://www.w3.org/2000/svg">
<path fill-rule="evenodd" clip-rule="evenodd" d="M36.0258 55.6627H8.11694C7.63205 55.6627 7.23851 55.269 7.23851 54.7843C7.23851 54.2994 7.63205 53.9058 8.11694 53.9058H11.3294V40.1936C11.3294 39.7085 11.7227 39.3152 12.2078 39.3152H17.3746C17.8597 39.3152 18.253 39.7085 18.253 40.1936V53.9058H21.5332V35.4225C21.5332 34.9374 21.9265 34.5441 22.4117 34.5441H27.5786C28.0637 34.5441 28.457 34.9374 28.457 35.4225V53.9058H31.7351V30.6512C31.7351 30.1661 32.1284 29.7728 32.6135 29.7728H37.7803C38.2655 29.7728 38.6587 30.1661 38.6587 30.6512V51.1631H40.2281V44.2668C40.2281 43.4338 40.9033 42.7587 41.7361 42.7587H41.9389V25.878C41.9389 25.3928 42.3322 24.9995 42.8174 24.9995H47.9842C48.4693 24.9995 48.8626 25.3928 48.8626 25.878V34.3542H53.0835C53.9163 34.3542 54.5916 35.0293 54.5916 35.8623V42.7587H57.2858C58.1186 42.7587 58.7939 43.4338 58.7939 44.2668V51.1631H61.4879C62.3208 51.1631 62.9961 51.8382 62.9961 52.6713V59.8163C62.9961 60.6492 62.3208 61.3244 61.4879 61.3244H54.3429C54.1181 61.3244 53.9048 61.2752 53.7132 61.187C53.5216 61.2752 53.3082 61.3244 53.0835 61.3244H45.9384C45.7137 61.3244 45.5003 61.2752 45.3087 61.187C45.1171 61.2752 44.9038 61.3244 44.679 61.3244H37.534C36.7011 61.3244 36.0258 60.6492 36.0258 59.8163V55.6627ZM33.4919 53.9058H36.0258V52.6713C36.0258 52.064 36.3847 51.5406 36.9019 51.3015V31.5297H33.4919V53.9058ZM47.1057 34.3542V26.7564H43.6958V42.7587H44.4303V35.8623C44.4303 35.0293 45.1056 34.3542 45.9384 34.3542H47.1057ZM57.037 51.1631V44.5155H55.9468V47.0371C55.9468 47.731 55.3843 48.2934 54.6905 48.2934H52.8181C52.1242 48.2934 51.5618 47.731 51.5618 47.0371V44.5155H50.3894V51.1631H53.0835C53.3082 51.1631 53.5216 51.2123 53.7132 51.3004C53.9048 51.2123 54.1181 51.1631 54.3429 51.1631H57.037ZM54.5916 59.5676H61.2392V52.92H60.1489V55.4416C60.1489 56.1354 59.5865 56.6979 58.8927 56.6979H57.0202C56.3264 56.6979 55.7639 56.1354 55.7639 55.4416V52.92H54.5916V59.5676ZM45.7855 44.5155H44.9142V46.5365H45.7855V44.5155ZM49.1163 52.92V54.941H49.9876V52.92H49.1163ZM23.2901 53.9058H26.7002V36.3009H23.2901V53.9058ZM58.3921 52.92H57.5208V54.941H58.3921V52.92ZM43.1573 44.5155H41.985V51.1631H44.679C44.9038 51.1631 45.1171 51.2123 45.3087 51.3004C45.5003 51.2123 45.7137 51.1631 45.9384 51.1631H48.6326V44.5155H47.5423V47.0371C47.5423 47.731 46.9799 48.2934 46.286 48.2934H44.4136C43.7198 48.2934 43.1573 47.731 43.1573 47.0371V44.5155ZM46.1872 59.5676H52.8348V52.92H51.7445V55.4416C51.7445 56.1354 51.182 56.6979 50.4882 56.6979H48.6158C47.9219 56.6979 47.3595 56.1354 47.3595 55.4416V52.92H46.1872V59.5676ZM52.8348 42.7587V36.1111H51.7445V38.6327C51.7445 39.3265 51.182 39.889 50.4882 39.889H48.6158C47.9219 39.889 47.3595 39.3265 47.3595 38.6327V36.1111H46.1872V42.7587H48.8813C49.1061 42.7587 49.3193 42.8078 49.511 42.8959C49.7026 42.8078 49.9158 42.7587 50.1406 42.7587H52.8348ZM49.9876 36.1111H49.1163V38.1321H49.9876V36.1111ZM54.1899 44.5155H53.3186V46.5365H54.1899V44.5155ZM13.0862 53.9058H16.4962V41.0721H13.0862V53.9058ZM38.955 52.92H37.7827V59.5676H44.4303V52.92H43.34V55.4416C43.34 56.1354 42.7776 56.6979 42.0838 56.6979H40.2113C39.5175 56.6979 38.955 56.1354 38.955 55.4416V52.92ZM41.5832 52.92H40.7119V54.941H41.5832V52.92ZM46.0585 16.4124C34.3104 25.9075 21.707 34.3483 12.6972 37.5189C12.2399 37.6798 11.738 37.4393 11.577 36.9818C11.4161 36.5246 11.6566 36.0226 12.1141 35.8617C20.9591 32.7491 33.3027 24.4537 44.8408 15.1376C44.4076 15.1174 43.9745 15.0971 43.5418 15.0768C43.0574 15.0539 42.6828 14.6422 42.7056 14.1579C42.7284 13.6737 43.1401 13.299 43.6244 13.3218C44.7741 13.3759 45.9259 13.4296 47.0756 13.4837C47.5601 13.5065 47.9345 13.9176 47.9119 14.402C47.8582 15.5545 47.804 16.7049 47.7477 17.8558C47.7242 18.34 47.3118 18.714 46.8275 18.6903C46.3433 18.6667 45.9694 18.2543 45.993 17.77C46.0151 17.3174 46.0369 16.8649 46.0585 16.4124ZM26.8524 19.478C25.0921 19.478 24.2083 21.6111 25.4533 22.8559C26.1267 23.5293 26.1267 24.6248 25.4533 25.2982L23.6282 27.1232C22.9548 27.7966 21.8594 27.7966 21.186 27.1232C19.941 25.8783 17.808 26.762 17.808 28.5223C17.808 29.4785 17.035 30.2485 16.0819 30.2485H13.5006C12.5475 30.2485 11.7744 29.4785 11.7744 28.5223C11.7744 26.7599 9.6424 25.8772 8.39641 27.1232C7.72265 27.7971 6.62963 27.7971 5.956 27.1235L4.12911 25.2982C3.45573 24.6248 3.45573 23.5293 4.12911 22.8559C5.3741 21.6111 4.4914 19.478 2.73002 19.478C1.77693 19.478 1.00391 18.7049 1.00391 17.7519V15.1705C1.00391 14.2174 1.77693 13.4444 2.73002 13.4444C4.4914 13.4444 5.3741 11.3113 4.12911 10.0665C3.45536 9.39257 3.45536 8.29955 4.12911 7.62567L5.95575 5.79916C6.62963 5.12528 7.72265 5.12528 8.39641 5.79916C9.6414 7.04402 11.7744 6.16133 11.7744 4.40007C11.7744 3.44697 12.5475 2.67383 13.5006 2.67383H16.0819C17.035 2.67383 17.808 3.44697 17.808 4.40007C17.808 6.16133 19.941 7.04402 21.186 5.79916C21.8594 5.12578 22.9548 5.12578 23.6282 5.79916L25.4533 7.62567C26.127 8.29955 26.127 9.39257 25.4533 10.0665C24.2083 11.3113 25.0921 13.4444 26.8524 13.4444C27.8086 13.4444 28.5785 14.2174 28.5785 15.1705V17.7519C28.5785 18.7049 27.8086 19.478 26.8524 19.478ZM2.76077 15.2011V17.7212C6.05539 17.7458 7.70458 21.731 5.39255 24.0769L7.17614 25.8591C9.52419 23.5462 13.5065 25.1953 13.5311 28.4917H16.0513C16.0759 25.1989 20.0611 23.5479 22.407 25.8599L24.1899 24.0769C21.8779 21.731 23.5289 17.7458 26.8216 17.7212V15.2011C23.5293 15.1764 21.8783 11.1922 24.1891 8.84619L22.407 7.06247C20.0611 9.3745 16.0759 7.72544 16.0513 4.43069H13.5311C13.5065 7.72506 9.52218 9.37413 7.17614 7.06322L5.3933 8.84619C7.70421 11.1922 6.05514 15.1765 2.76077 15.2011ZM14.792 24.267C10.4922 24.267 6.98678 20.7597 6.98678 16.4619C6.98678 12.1621 10.4922 8.65682 14.792 8.65682C19.0898 8.65682 22.5971 12.1621 22.5971 16.4619C22.5971 20.7597 19.0898 24.267 14.792 24.267ZM14.792 22.5102C18.1224 22.5102 20.8403 19.7923 20.8403 16.4619C20.8403 13.13 18.1224 10.4137 14.792 10.4137C11.46 10.4137 8.74364 13.13 8.74364 16.4619C8.74364 19.7923 11.46 22.5102 14.792 22.5102ZM15.1347 17.6738C15.0256 17.7048 14.9102 17.7214 14.7913 17.7214C14.0962 17.7214 13.5318 17.157 13.5318 16.4619C13.5318 16.1079 13.6782 15.7879 13.9136 15.559V13.2747C13.9136 12.79 14.3071 12.3963 14.792 12.3963C15.2768 12.3963 15.6704 12.79 15.6704 13.2747V15.5605C15.8338 15.7199 15.9542 15.9235 16.012 16.1517L17.1674 16.8188C17.5873 17.0612 17.7314 17.5989 17.4889 18.0188C17.2466 18.4385 16.7089 18.5827 16.289 18.3403L15.1347 17.6738Z" fill="#FB602F"/>
</svg>
