<svg width="64" height="64" viewBox="0 0 64 64" fill="none" xmlns="http://www.w3.org/2000/svg">
<path d="M58.4214 44.7353C60.2863 40.8811 61.3334 36.5611 61.3334 32.0002C61.3334 31.5087 60.9361 31.1113 60.4445 31.1113H3.55564C3.06497 31.1113 2.66675 31.5087 2.66675 32.0002C2.66675 35.8527 3.42053 39.53 4.77697 42.9033C4.79564 42.9691 4.81786 43.0304 4.84986 43.0891C5.33697 44.2767 5.90053 45.4242 6.53341 46.5282C6.56008 46.6002 6.60186 46.6607 6.64541 46.7229C8.70497 50.2562 11.4783 53.3211 14.7707 55.7193C14.8552 55.8082 14.9539 55.882 15.0676 55.9309C19.8552 59.3282 25.6961 61.3336 32.0001 61.3336C43.5485 61.3336 53.5565 54.6233 58.3379 44.898C58.3699 44.8455 58.401 44.7949 58.4214 44.7353ZM57.0081 43.5558H36.4445C35.9539 43.5558 35.5556 43.1576 35.5556 42.6669C35.5556 42.1762 35.9539 41.778 36.4445 41.778H40.0001C41.961 41.778 43.5556 40.1833 43.5556 38.2224C43.5556 36.2616 41.961 34.6669 40.0001 34.6669H33.7779C33.2872 34.6669 32.889 34.2687 32.889 33.778C32.889 33.2873 33.2872 32.8891 33.7779 32.8891H59.5414C59.4205 36.6882 58.5219 40.2927 57.0081 43.5558ZM24.889 52.4447H38.2223C38.713 52.4447 39.1112 52.8429 39.1112 53.3336C39.1112 53.8242 38.713 54.2224 38.2223 54.2224H15.7272C14.8179 53.5549 13.9547 52.8295 13.1352 52.058C14.3014 51.474 15.1112 50.2802 15.1112 48.8891C15.1112 46.9282 13.5165 45.3336 11.5556 45.3336H7.89786C7.57519 44.7531 7.27297 44.1602 6.99297 43.5558H27.5556C28.0454 43.5558 28.4445 43.954 28.4445 44.4447C28.4445 44.9353 28.0454 45.3336 27.5556 45.3336H24.889C22.9281 45.3336 21.3334 46.9282 21.3334 48.8891C21.3334 50.85 22.9281 52.4447 24.889 52.4447ZM11.7379 50.6482C10.7245 49.5478 9.80186 48.3647 8.97608 47.1113H11.5556C12.5361 47.1113 13.3334 47.9087 13.3334 48.8891C13.3334 49.8064 12.6312 50.5558 11.7379 50.6482ZM32.0001 59.5558C27.0916 59.5558 22.4827 58.2589 18.4872 56.0002H38.2223C39.6925 56.0002 40.889 54.8038 40.889 53.3336C40.889 51.8633 39.6925 50.6669 38.2223 50.6669H24.889C23.9085 50.6669 23.1112 49.8696 23.1112 48.8891C23.1112 47.9087 23.9085 47.1113 24.889 47.1113H27.5556C29.0259 47.1113 30.2223 45.9149 30.2223 44.4447C30.2223 42.9744 29.0259 41.778 27.5556 41.778H6.24275C5.18497 39.0002 4.5583 36.01 4.45875 32.8891H31.2747C31.1752 33.1682 31.1112 33.4651 31.1112 33.778C31.1112 35.2482 32.3076 36.4447 33.7779 36.4447H40.0001C40.9805 36.4447 41.7779 37.242 41.7779 38.2224C41.7779 39.2029 40.9805 40.0002 40.0001 40.0002H36.4445C34.9743 40.0002 33.7779 41.1967 33.7779 42.6669C33.7779 44.1371 34.9743 45.3336 36.4445 45.3336H56.1032C51.3974 53.8064 42.3592 59.5558 32.0001 59.5558Z" fill="#FB602F"/>
<path d="M22.2223 11.5549C24.6729 11.5549 26.6667 9.56113 26.6667 7.11046C26.6667 4.65979 24.6729 2.66602 22.2223 2.66602C19.7716 2.66602 17.7778 4.65979 17.7778 7.11046C17.7778 9.56113 19.7716 11.5549 22.2223 11.5549ZM22.2223 4.44379C23.6925 4.44379 24.8889 5.64024 24.8889 7.11046C24.8889 8.58068 23.6925 9.77713 22.2223 9.77713C20.7521 9.77713 19.5556 8.58068 19.5556 7.11046C19.5556 5.64024 20.7521 4.44379 22.2223 4.44379Z" fill="#FB602F"/>
<path d="M18.6667 28.4434C19.1574 28.4434 19.5556 28.046 19.5556 27.5545V16.8878C19.5556 15.4176 20.7521 14.2211 22.2223 14.2211C23.6925 14.2211 24.8889 15.4176 24.8889 16.8878V27.5545C24.8889 28.046 25.2872 28.4434 25.7778 28.4434C26.2685 28.4434 26.6667 28.046 26.6667 27.5545V16.8878C26.6667 14.4371 24.6729 12.4434 22.2223 12.4434C19.7716 12.4434 17.7778 14.4371 17.7778 16.8878V27.5545C17.7778 28.046 18.1761 28.4434 18.6667 28.4434Z" fill="#FB602F"/>
<path d="M32.889 16.8889C35.3397 16.8889 37.3335 14.8951 37.3335 12.4444C37.3335 9.99378 35.3397 8 32.889 8C30.4384 8 28.4446 9.99378 28.4446 12.4444C28.4446 14.8951 30.4384 16.8889 32.889 16.8889ZM32.889 9.77778C34.3592 9.77778 35.5557 10.9742 35.5557 12.4444C35.5557 13.9147 34.3592 15.1111 32.889 15.1111C31.4188 15.1111 30.2224 13.9147 30.2224 12.4444C30.2224 10.9742 31.4188 9.77778 32.889 9.77778Z" fill="#FB602F"/>
<path d="M29.3335 29.3329C29.8241 29.3329 30.2224 28.9356 30.2224 28.444V22.2218C30.2224 20.7516 31.4188 19.5551 32.889 19.5551C34.3592 19.5551 35.5557 20.7516 35.5557 22.2218V28.444C35.5557 28.9356 35.953 29.3329 36.4446 29.3329C36.9361 29.3329 37.3335 28.9356 37.3335 28.444V22.2218C37.3335 19.7711 35.3397 17.7773 32.889 17.7773C30.4384 17.7773 28.4446 19.7711 28.4446 22.2218V28.444C28.4446 28.9356 28.8428 29.3329 29.3335 29.3329Z" fill="#FB602F"/>
<path d="M54.2223 11.5549C56.6729 11.5549 58.6667 9.56113 58.6667 7.11046C58.6667 4.65979 56.6729 2.66602 54.2223 2.66602C51.7716 2.66602 49.7778 4.65979 49.7778 7.11046C49.7778 9.56113 51.7716 11.5549 54.2223 11.5549ZM54.2223 4.44379C55.6925 4.44379 56.8889 5.64024 56.8889 7.11046C56.8889 8.58068 55.6925 9.77713 54.2223 9.77713C52.7521 9.77713 51.5556 8.58068 51.5556 7.11046C51.5556 5.64024 52.7521 4.44379 54.2223 4.44379Z" fill="#FB602F"/>
<path d="M50.6667 28.4434C51.1583 28.4434 51.5556 28.046 51.5556 27.5545V16.8878C51.5556 15.4176 52.7521 14.2211 54.2223 14.2211C55.6925 14.2211 56.8889 15.4176 56.8889 16.8878V25.7767C56.8889 26.2682 57.2863 26.6656 57.7778 26.6656C58.2694 26.6656 58.6667 26.2682 58.6667 25.7767V16.8878C58.6667 14.4371 56.6729 12.4434 54.2223 12.4434C51.7716 12.4434 49.7778 14.4371 49.7778 16.8878V27.5545C49.7778 28.046 50.1752 28.4434 50.6667 28.4434Z" fill="#FB602F"/>
<path d="M43.5555 14.2209C46.0062 14.2209 48 12.2271 48 9.77648C48 7.32581 46.0062 5.33203 43.5555 5.33203C41.1049 5.33203 39.1111 7.32581 39.1111 9.77648C39.1111 12.2271 41.1049 14.2209 43.5555 14.2209ZM43.5555 7.10981C45.0258 7.10981 46.2222 8.30625 46.2222 9.77648C46.2222 11.2467 45.0258 12.4431 43.5555 12.4431C42.0853 12.4431 40.8889 11.2467 40.8889 9.77648C40.8889 8.30625 42.0853 7.10981 43.5555 7.10981Z" fill="#FB602F"/>
<path d="M40 30.2224C40.4915 30.2224 40.8889 29.8251 40.8889 29.3336V19.5558C40.8889 18.0856 42.0853 16.8891 43.5555 16.8891C45.0258 16.8891 46.2222 18.0856 46.2222 19.5558V29.3336C46.2222 29.8251 46.6195 30.2224 47.1111 30.2224C47.6026 30.2224 48 29.8251 48 29.3336V19.5558C48 17.1051 46.0062 15.1113 43.5555 15.1113C41.1049 15.1113 39.1111 17.1051 39.1111 19.5558V29.3336C39.1111 29.8251 39.5084 30.2224 40 30.2224Z" fill="#FB602F"/>
<path d="M11.5555 18.6662C14.0062 18.6662 16 16.6725 16 14.2218C16 11.7711 14.0062 9.77734 11.5555 9.77734C9.10486 9.77734 7.11108 11.7711 7.11108 14.2218C7.11108 16.6725 9.10486 18.6662 11.5555 18.6662ZM11.5555 11.5551C13.0258 11.5551 14.2222 12.7516 14.2222 14.2218C14.2222 15.692 13.0258 16.8885 11.5555 16.8885C10.0853 16.8885 8.88886 15.692 8.88886 14.2218C8.88886 12.7516 10.0853 11.5551 11.5555 11.5551Z" fill="#FB602F"/>
<path d="M7.99997 29.3325C8.49064 29.3325 8.88886 28.9351 8.88886 28.4436V23.9991C8.88886 22.5289 10.0853 21.3325 11.5555 21.3325C13.0258 21.3325 14.2222 22.5289 14.2222 23.9991V28.4436C14.2222 28.9351 14.6204 29.3325 15.1111 29.3325C15.6018 29.3325 16 28.9351 16 28.4436V23.9991C16 21.5485 14.0062 19.5547 11.5555 19.5547C9.10486 19.5547 7.11108 21.5485 7.11108 23.9991V28.4436C7.11108 28.9351 7.50931 29.3325 7.99997 29.3325Z" fill="#FB602F"/>
</svg>
