<svg width="64" height="64" viewBox="0 0 64 64" fill="none" xmlns="http://www.w3.org/2000/svg">
<g clip-path="url(#clip0_2926_18621)">
<path d="M27.2993 14.8145H10.9217C10.3654 14.8131 9.81955 14.9658 9.34467 15.2556C8.86979 15.5454 8.48442 15.961 8.23127 16.4564L5.37207 22.0163C5.31597 22.1559 5.28032 22.3028 5.26622 22.4526V42.2326C5.2669 42.8105 5.4968 43.3646 5.90547 43.7733C6.31413 44.1819 6.86821 44.4118 7.44616 44.4125H30.7748C31.3527 44.4118 31.9069 44.182 32.3155 43.7733C32.7242 43.3646 32.9542 42.8105 32.9548 42.2326V22.4526C32.9408 22.3028 32.9051 22.1559 32.849 22.0163L29.9898 16.4564C29.7366 15.9611 29.3512 15.5455 28.8763 15.2557C28.4015 14.9658 27.8556 14.8131 27.2993 14.8145ZM17.2732 16.724H20.9483L22.1758 21.4979H16.0452L17.2732 16.724ZM15.7687 23.4071H22.4518V25.6392C22.4513 26.0599 22.2839 26.4632 21.9864 26.7607C21.6889 27.0582 21.2856 27.2256 20.8649 27.2262H17.3562C16.9354 27.2258 16.5319 27.0585 16.2342 26.761C15.9366 26.4635 15.7691 26.06 15.7685 25.6392L15.7687 23.4071ZM9.92911 17.3297C10.0225 17.1469 10.1647 16.9935 10.3399 16.8866C10.5151 16.7796 10.7165 16.7232 10.9217 16.7236H15.3017L14.0736 21.4975H7.7856L9.92911 17.3297ZM7.17539 23.4074H13.8585V25.6396C13.8579 26.0603 13.6905 26.4636 13.393 26.7611C13.0956 27.0586 12.6922 27.226 12.2715 27.2265H8.76308C8.34225 27.2261 7.93875 27.0588 7.64111 26.7613C7.34346 26.4638 7.17598 26.0604 7.17539 25.6396V23.4074ZM16.7232 42.503H11.9497V33.91H16.7236L16.7232 42.503ZM31.0448 42.2322C31.0448 42.304 31.0163 42.3729 30.9655 42.4236C30.9147 42.4744 30.8458 42.503 30.774 42.503H18.6331V32.9553C18.6331 32.8299 18.6085 32.7057 18.5605 32.5898C18.5125 32.474 18.4422 32.3687 18.3535 32.28C18.2649 32.1914 18.1596 32.121 18.0437 32.073C17.9279 32.0251 17.8037 32.0004 17.6783 32.0004H10.9952C10.8698 32.0004 10.7456 32.0251 10.6298 32.0731C10.5139 32.121 10.4087 32.1914 10.32 32.28C10.2313 32.3687 10.161 32.474 10.1131 32.5898C10.0651 32.7057 10.0404 32.8299 10.0405 32.9553V42.503H7.44616C7.37435 42.503 7.30548 42.4744 7.2547 42.4236C7.20392 42.3729 7.17539 42.304 7.17539 42.2322V28.7373C7.665 28.9956 8.20953 29.1323 8.76308 29.1361H12.2723C12.7494 29.1352 13.2214 29.0362 13.6586 28.8452C14.0959 28.6541 14.4892 28.3751 14.814 28.0255C15.1389 28.3751 15.5323 28.6541 15.9696 28.8451C16.407 29.0362 16.8789 29.1352 17.3562 29.1361H20.8652C21.3424 29.1352 21.8144 29.0362 22.2516 28.8452C22.6889 28.6541 23.0822 28.3751 23.407 28.0255C23.7319 28.3751 24.1253 28.6541 24.5626 28.8451C25 29.0362 25.4719 29.1352 25.9492 29.1361H29.4582C30.0115 29.1323 30.5558 28.9956 31.0452 28.7375L31.0448 42.2322ZM31.0448 25.6392C31.0443 26.0599 30.8769 26.4632 30.5794 26.7607C30.2819 27.0582 29.8786 27.2256 29.4579 27.2262H25.9492C25.5283 27.2258 25.1248 27.0585 24.8272 26.761C24.5296 26.4635 24.3621 26.06 24.3615 25.6392V23.4074H31.0446L31.0448 25.6392ZM24.1477 21.4979L22.9201 16.724H27.2997C27.5048 16.7235 27.7061 16.7798 27.8813 16.8866C28.0564 16.9933 28.1986 17.1465 28.2922 17.329L30.4358 21.4979H24.1477Z" fill="#FB602F"/>
<path d="M27.2261 32H21.4975C21.3721 32 21.2479 32.0246 21.132 32.0726C21.0162 32.1206 20.9109 32.1909 20.8222 32.2796C20.7336 32.3683 20.6632 32.4735 20.6153 32.5894C20.5673 32.7053 20.5426 32.8294 20.5426 32.9548V38.6126C20.5426 38.738 20.5673 38.8621 20.6153 38.978C20.6632 39.0938 20.7336 39.1991 20.8222 39.2878C20.9109 39.3765 21.0162 39.4468 21.132 39.4948C21.2479 39.5427 21.3721 39.5674 21.4975 39.5674H27.2261C27.3515 39.5674 27.4757 39.5427 27.5915 39.4948C27.7074 39.4468 27.8127 39.3765 27.9013 39.2878C27.99 39.1991 28.0603 39.0938 28.1083 38.978C28.1563 38.8621 28.181 38.738 28.1809 38.6126V32.9548C28.181 32.8294 28.1563 32.7053 28.1083 32.5894C28.0603 32.4735 27.99 32.3683 27.9013 32.2796C27.8127 32.1909 27.7074 32.1206 27.5915 32.0726C27.4757 32.0246 27.3515 32 27.2261 32ZM26.2714 37.6578H22.4522V33.9095H26.2714V37.6578Z" fill="#FB602F"/>
<path d="M42.9799 0.492188C40.8083 0.492187 38.6855 1.13615 36.8798 2.34264C35.0742 3.54913 33.6668 5.26396 32.8358 7.27029C32.0048 9.27661 31.7873 11.4843 32.211 13.6142C32.6346 15.7441 33.6804 17.7005 35.216 19.2361C36.7515 20.7717 38.708 21.8174 40.8379 22.2411C42.9678 22.6648 45.1755 22.4473 47.1818 21.6163C49.1881 20.7852 50.9029 19.3779 52.1094 17.5723C53.3159 15.7666 53.9599 13.6438 53.9599 11.4721C53.9566 8.56108 52.7987 5.77023 50.7403 3.71181C48.6818 1.65339 45.891 0.49551 42.9799 0.492188ZM33.9609 12.427H38.0347C38.1431 15.2273 38.7286 18.0128 39.7484 19.9371C38.1858 19.3395 36.8185 18.322 35.7973 16.9969C34.7761 15.6717 34.1406 14.0903 33.9609 12.427ZM38.0347 10.5174H33.9609C34.1406 8.85408 34.776 7.27266 35.7973 5.94748C36.8185 4.62231 38.1858 3.60485 39.7484 3.00726C38.7286 4.93145 38.1431 7.7168 38.0347 10.5174ZM42.9799 20.5425C41.8075 20.5425 40.1369 17.4111 39.9443 12.427H46.0161C45.8233 17.4111 44.1525 20.5425 42.9799 20.5425ZM39.9443 10.5174C40.1371 5.5328 41.8075 2.40173 42.9799 2.40173C44.1524 2.40173 45.823 5.53317 46.0161 10.5174H39.9443ZM46.2117 19.937C47.2313 18.0127 47.8172 15.2273 47.9257 12.427H51.9995C51.8198 14.0903 51.1842 15.6717 50.163 16.9969C49.1417 18.322 47.7744 19.3394 46.2117 19.937ZM47.9262 10.5174C47.8177 7.71693 47.2318 4.93157 46.2122 3.00739C47.7748 3.60497 49.142 4.62243 50.1632 5.94758C51.1844 7.27273 51.8199 8.85412 51.9995 10.5174H47.9262Z" fill="#FB602F"/>
<path d="M3.89748 56.8251H27.0802L26.3982 61.599H23.4074C23.2811 61.5975 23.1558 61.6212 23.0387 61.6685C22.9216 61.7159 22.815 61.786 22.7252 61.8748C22.6354 61.9636 22.5641 62.0693 22.5154 62.1859C22.4668 62.3024 22.4417 62.4274 22.4417 62.5538C22.4417 62.6801 22.4668 62.8051 22.5154 62.9216C22.5641 63.0382 22.6354 63.1439 22.7252 63.2327C22.815 63.3215 22.9216 63.3916 23.0387 63.439C23.1558 63.4863 23.2811 63.51 23.4074 63.5085H40.593C40.7193 63.51 40.8446 63.4863 40.9617 63.439C41.0788 63.3916 41.1853 63.3215 41.2752 63.2327C41.365 63.1439 41.4363 63.0382 41.4849 62.9216C41.5336 62.8051 41.5587 62.6801 41.5587 62.5538C41.5587 62.4274 41.5336 62.3024 41.4849 62.1859C41.4363 62.0693 41.365 61.9636 41.2752 61.8748C41.1853 61.786 41.0788 61.7159 40.9617 61.6685C40.8446 61.6212 40.7193 61.5975 40.593 61.599H37.6022L36.9198 56.8251H60.1025C61.0054 56.824 61.8709 56.4648 62.5093 55.8264C63.1477 55.188 63.5067 54.3224 63.5077 53.4195V11.9501C63.5063 10.6844 63.0029 9.47091 62.1079 8.57587C61.213 7.68084 59.9995 7.17734 58.7338 7.17584H56.8246C56.6983 7.17441 56.573 7.19805 56.4559 7.24538C56.3388 7.29272 56.2323 7.36282 56.1425 7.45162C56.0526 7.54042 55.9813 7.64616 55.9327 7.76271C55.884 7.87926 55.8589 8.00431 55.8589 8.13061C55.8589 8.25691 55.884 8.38196 55.9327 8.49851C55.9813 8.61506 56.0526 8.7208 56.1425 8.8096C56.2323 8.8984 56.3388 8.9685 56.4559 9.01584C56.573 9.06318 56.6983 9.08682 56.8246 9.08538H58.7342C59.4936 9.08626 60.2216 9.38832 60.7586 9.92531C61.2956 10.4623 61.5976 11.1903 61.5985 11.9498V47.2765H2.40185V11.9501C2.40273 11.1907 2.70479 10.4627 3.24177 9.92568C3.77876 9.38869 4.50681 9.08663 5.26622 9.08575H29.1356C29.2619 9.08718 29.3873 9.06355 29.5043 9.01621C29.6214 8.96887 29.728 8.89877 29.8178 8.80997C29.9076 8.72117 29.9789 8.61543 30.0276 8.49888C30.0762 8.38233 30.1013 8.25728 30.1013 8.13098C30.1013 8.00468 30.0762 7.87963 30.0276 7.76308C29.9789 7.64653 29.9076 7.54079 29.8178 7.45199C29.728 7.36319 29.6214 7.29309 29.5043 7.24575C29.3873 7.19841 29.2619 7.17478 29.1356 7.17621H5.26622C4.00056 7.17771 2.78717 7.68115 1.89221 8.57611C0.997253 9.47107 0.493808 10.6845 0.49231 11.9501V53.4195C0.493287 54.3224 0.852347 55.188 1.49072 55.8264C2.12909 56.4648 2.99464 56.824 3.89748 56.8251ZM28.3268 61.599L29.0092 56.8251H34.9908L35.6729 61.599H28.3268ZM2.40185 49.1864H61.5982V52.0508C61.5973 52.8102 61.2952 53.5383 60.7582 54.0752C60.2212 54.6122 59.4932 54.9143 58.7338 54.9152H5.26622C4.50681 54.9143 3.77876 54.6122 3.24177 54.0752C2.70479 53.5383 2.40273 52.8102 2.40185 52.0508V49.1864Z" fill="#FB602F"/>
<path d="M40.6728 44.4113H52.9259C53.0513 44.4113 53.1755 44.3867 53.2913 44.3387C53.4072 44.2907 53.5124 44.2204 53.6011 44.1317C53.6897 44.0431 53.7601 43.9378 53.808 43.822C53.856 43.7061 53.8807 43.582 53.8806 43.4566V31.1079H56.8246C56.95 31.1079 57.0741 31.0832 57.19 31.0352C57.3058 30.9872 57.411 30.9169 57.4996 30.8282C57.5883 30.7395 57.6586 30.6343 57.7065 30.5184C57.7545 30.4026 57.7791 30.2785 57.7791 30.1531V25.3162C57.7791 25.1908 57.7544 25.0666 57.7065 24.9507C57.6585 24.8349 57.5882 24.7296 57.4995 24.6409C57.4108 24.5522 57.3056 24.4819 57.1897 24.4339C57.0738 24.386 56.9497 24.3613 56.8243 24.3613H49.2499C49.1245 24.3613 49.0003 24.386 48.8845 24.434C48.7687 24.482 48.6635 24.5523 48.5748 24.641C48.4862 24.7297 48.4159 24.8349 48.3679 24.9508C48.32 25.0666 48.2954 25.1908 48.2954 25.3162C48.2875 25.7076 48.1264 26.0804 47.8467 26.3544C47.5671 26.6284 47.1911 26.7819 46.7996 26.7819C46.408 26.7819 46.0321 26.6284 45.7524 26.3544C45.4728 26.0804 45.3117 25.7076 45.3038 25.3162C45.3038 25.1908 45.2791 25.0666 45.2312 24.9507C45.1832 24.8349 45.1128 24.7296 45.0242 24.6409C44.9355 24.5522 44.8302 24.4819 44.7144 24.4339C44.5985 24.386 44.4743 24.3613 44.3489 24.3613H36.7739C36.6485 24.3613 36.5243 24.386 36.4085 24.4339C36.2926 24.4819 36.1874 24.5522 36.0987 24.6409C36.01 24.7296 35.9397 24.8349 35.8917 24.9507C35.8437 25.0666 35.8191 25.1908 35.8191 25.3162V30.1531C35.8191 30.2785 35.8437 30.4027 35.8917 30.5185C35.9397 30.6344 36.01 30.7397 36.0987 30.8283C36.1874 30.917 36.2926 30.9873 36.4085 31.0353C36.5243 31.0833 36.6485 31.1079 36.7739 31.1079H39.7179V43.4566C39.7179 43.582 39.7426 43.7062 39.7905 43.822C39.8385 43.9379 39.9088 44.0431 39.9975 44.1318C40.0862 44.2204 40.1915 44.2908 40.3073 44.3387C40.4232 44.3867 40.5474 44.4113 40.6728 44.4113ZM37.7286 29.1983V26.2706H43.5329C43.7464 26.9705 44.1791 27.5833 44.7672 28.0187C45.3552 28.4541 46.0676 28.6892 46.7993 28.6892C47.5311 28.6892 48.2434 28.4541 48.8315 28.0187C49.4196 27.5833 49.8522 26.9705 50.0657 26.2706H55.8694V29.1983H52.9259C52.8005 29.1982 52.6763 29.2229 52.5605 29.2709C52.4446 29.3188 52.3394 29.3892 52.2507 29.4778C52.162 29.5665 52.0917 29.6718 52.0437 29.7876C51.9957 29.9035 51.9711 30.0277 51.9711 30.1531V42.5018H41.6275V30.1531C41.6275 30.0277 41.6028 29.9035 41.5549 29.7877C41.5069 29.6718 41.4366 29.5665 41.3479 29.4778C41.2593 29.3892 41.154 29.3188 41.0382 29.2709C40.9223 29.2229 40.7981 29.1982 40.6728 29.1983H37.7286Z" fill="#FB602F"/>
<path d="M53.0092 53.0052C53.1341 53.0049 53.2577 52.98 53.3729 52.9318C53.4881 52.8837 53.5926 52.8132 53.6804 52.7244C53.7683 52.6357 53.8377 52.5304 53.8847 52.4147C53.9317 52.299 53.9553 52.1752 53.9542 52.0503C53.9553 51.7967 53.8559 51.553 53.6778 51.3726C53.495 51.2022 53.2544 51.1074 53.0046 51.1074C52.7547 51.1074 52.5141 51.2022 52.3313 51.3726C52.153 51.553 52.0535 51.7967 52.0544 52.0503C52.0531 52.1761 52.0769 52.3008 52.1245 52.4172C52.172 52.5337 52.2423 52.6394 52.3312 52.7284C52.4201 52.8173 52.5259 52.8876 52.6423 52.9351C52.7587 52.9826 52.8835 53.0064 53.0092 53.0052Z" fill="#FB602F"/>
<path d="M49.1804 53.0054C49.3707 53.0079 49.5573 52.9533 49.7163 52.8487C49.8752 52.7441 49.9992 52.5942 50.0722 52.4185C50.1452 52.2428 50.1638 52.0492 50.1257 51.8627C50.0876 51.6763 49.9945 51.5056 49.8585 51.3725C49.6757 51.2022 49.4351 51.1074 49.1853 51.1074C48.9354 51.1074 48.6949 51.2022 48.5121 51.3725C48.3338 51.5529 48.2342 51.7967 48.2352 52.0503C48.2339 52.1753 48.2574 52.2992 48.3043 52.4151C48.3512 52.5309 48.4206 52.6363 48.5085 52.7251C48.5964 52.8139 48.7011 52.8844 48.8164 52.9325C48.9317 52.9806 49.0555 53.0054 49.1804 53.0054Z" fill="#FB602F"/>
<path d="M56.8284 53.0052C56.9534 53.0052 57.0771 52.9805 57.1924 52.9324C57.3077 52.8843 57.4123 52.8138 57.5002 52.725C57.5881 52.6362 57.6575 52.5308 57.7044 52.415C57.7513 52.2992 57.7748 52.1753 57.7734 52.0503C57.7745 51.7967 57.6751 51.553 57.497 51.3726C57.3142 51.2022 57.0736 51.1074 56.8238 51.1074C56.5739 51.1074 56.3333 51.2022 56.1505 51.3726C55.9722 51.553 55.8727 51.7967 55.8736 52.0503C55.8724 52.176 55.8963 52.3007 55.9439 52.4171C55.9915 52.5335 56.0618 52.6392 56.1507 52.7281C56.2396 52.817 56.3453 52.8873 56.4617 52.9349C56.578 52.9824 56.7027 53.0063 56.8284 53.0052Z" fill="#FB602F"/>
</g>
<defs>
<clipPath id="clip0_2926_18621">
<rect width="64" height="64" fill="white"/>
</clipPath>
</defs>
</svg>
