<svg width="64" height="64" viewBox="0 0 64 64" fill="none" xmlns="http://www.w3.org/2000/svg">
<g clip-path="url(#clip0_2926_18633)">
<path d="M49.1328 19.3473H50.6269V25.2444C50.6269 25.7569 51.0422 26.1721 51.5546 26.1721C52.0671 26.1721 52.4824 25.7569 52.4824 25.2444V19.3473H53.9764C54.4888 19.3473 54.9041 18.932 54.9041 18.4195C54.9041 17.9071 54.4888 17.4918 53.9764 17.4918H52.4824V14.7965C52.4824 14.2784 52.9037 13.8571 53.4217 13.8571H55.62C56.1325 13.8571 56.5478 13.4419 56.5478 12.9294C56.5478 12.4169 56.1325 12.0017 55.62 12.0017H53.4217C51.8807 12.0017 50.6269 13.2555 50.6269 14.7965V17.4918H49.1328C48.6203 17.4918 48.2051 17.9071 48.2051 18.4195C48.2051 18.932 48.6204 19.3473 49.1328 19.3473ZM32.3337 5.37573C32.846 5.37573 33.2614 4.96036 33.2614 4.44801C33.2614 3.93566 32.846 3.52029 32.3337 3.52029C31.8213 3.52029 31.4059 3.93566 31.4059 4.44801C31.4059 4.96036 31.8212 5.37573 32.3337 5.37573ZM12.2907 21.4951C13.8253 21.4951 15.0739 20.2465 15.0739 18.712C15.0739 17.1774 13.8253 15.9288 12.2907 15.9288C10.7562 15.9288 9.50757 17.1774 9.50757 18.712C9.50757 20.2465 10.7562 21.4951 12.2907 21.4951ZM12.2907 17.7842C12.8023 17.7842 13.2185 18.2003 13.2185 18.712C13.2185 19.2236 12.8023 19.6397 12.2907 19.6397C11.7791 19.6397 11.363 19.2236 11.363 18.712C11.363 18.2003 11.7793 17.7842 12.2907 17.7842ZM16.0016 25.206C17.5362 25.206 18.7848 23.9574 18.7848 22.4229V15.0011C18.7848 13.4665 17.5362 12.2179 16.0016 12.2179H8.57984C7.04526 12.2179 5.79667 13.4665 5.79667 15.0011V22.4229C5.79667 23.9574 7.04526 25.206 8.57984 25.206H16.0016ZM7.65212 22.4229V15.0011C7.65212 14.4895 8.06823 14.0733 8.57984 14.0733H16.0016C16.5132 14.0733 16.9294 14.4895 16.9294 15.0011V22.4229C16.9294 22.9345 16.5132 23.3506 16.0016 23.3506H8.57984C8.06836 23.3506 7.65212 22.9343 7.65212 22.4229ZM17.9132 38.9485C17.4629 38.6097 16.8668 38.5528 16.3573 38.7995C16.2323 38.86 16.1011 38.9058 15.9671 38.9359C15.8036 38.9723 15.6371 38.986 15.4694 38.9757C14.9226 38.4732 14.227 38.1725 13.4753 38.1202C12.5991 38.0582 11.7501 38.3431 11.0866 38.92C10.4745 39.4524 10.0858 40.184 9.98281 40.9766C8.90331 40.8026 7.91435 40.2562 7.18504 39.4123C6.88582 39.0659 6.4222 38.911 5.97628 39.0076C5.53258 39.1036 5.17744 39.4341 5.04942 39.8698C4.73733 40.93 4.07865 44.1779 6.82026 46.3433C6.29702 46.5029 5.70031 46.4909 5.39515 47.0208C5.12005 47.4985 5.26712 48.0612 5.37932 48.3542C5.59851 48.9265 6.17048 49.3384 7.07903 49.5785C7.57493 49.7096 8.2231 49.7943 8.95353 49.7943C10.6477 49.7942 12.7826 49.3381 14.4744 47.9468C16.1605 46.56 16.8499 44.6694 17.128 43.2349C17.5608 42.7416 17.9037 42.1849 18.149 41.576C18.3024 41.195 18.4153 40.7963 18.485 40.3904C18.5796 39.8372 18.3607 39.2847 17.9132 38.9485ZM15.5965 42.1595C15.4652 42.2952 15.3781 42.4676 15.3474 42.6541C15.158 43.8008 14.6484 45.4014 13.2958 46.5138C11.6604 47.8586 9.35851 48.0475 8.03471 47.877C8.47643 47.6937 8.89985 47.4661 9.29394 47.1985C9.57263 47.0094 9.72701 46.6841 9.69707 46.3485C9.66714 46.013 9.45759 45.7201 9.14971 45.5832C6.83968 44.5564 6.47576 42.8086 6.61925 41.4376C7.8201 42.4104 9.33179 42.934 10.9072 42.8897C11.41 42.8767 11.8109 42.4653 11.8109 41.9623V41.4348C11.8109 41.4307 11.8109 41.4265 11.8108 41.4223C11.8051 40.9992 11.985 40.5973 12.3042 40.3198C12.5935 40.0681 12.9635 39.9446 13.3462 39.9708C13.7288 39.9975 14.0782 40.1716 14.3298 40.4609C14.4647 40.616 14.647 40.7218 14.8487 40.762C15.3978 40.8712 15.9535 40.8571 16.4901 40.718C16.3007 41.2573 15.9969 41.7462 15.5965 42.1595ZM52.3765 32.3303C52.3545 32.3303 52.3327 32.3312 52.3107 32.3313V30.3346C52.3327 30.3347 52.3545 30.3355 52.3765 30.3355C58.7857 30.3355 64 25.1213 64 18.712C64 12.2766 58.7436 7.05281 52.3107 7.0893V6.20957C52.3107 2.96984 49.6748 0.333984 46.4351 0.333984H18.2323C14.9925 0.333984 12.3567 2.96984 12.3567 6.20957V7.0893C10.0839 7.07607 7.87861 7.71941 5.97912 8.94982C5.54903 9.22839 5.4262 9.80284 5.70476 10.2328C5.98345 10.6629 6.55777 10.7857 6.98774 10.5072C8.56648 9.48444 10.4003 8.94389 12.2907 8.94389C17.6769 8.94389 22.0588 13.3258 22.0588 18.712C22.0588 24.0981 17.6769 28.48 12.2907 28.48C6.90462 28.48 2.52267 24.0981 2.52267 18.712C2.52267 16.7593 3.09674 14.8749 4.18255 13.2626C4.46866 12.8376 4.35622 12.2612 3.93132 11.9749C3.5063 11.689 2.92988 11.8013 2.64364 12.2262C1.35077 14.1459 0.667219 16.3886 0.667219 18.712C0.667219 25.1212 5.8814 30.3355 12.2907 30.3355C12.3128 30.3355 12.3345 30.3347 12.3565 30.3346V32.3542C12.114 32.339 11.8697 32.3305 11.6234 32.3305C5.21418 32.3303 0 37.5446 0 43.9539C0 50.3631 5.21418 55.5775 11.6235 55.5775C11.8698 55.5775 12.1141 55.5688 12.3567 55.5538V57.7911C12.3567 61.0308 14.9925 63.6666 18.2323 63.6666H46.4351C49.6748 63.6666 52.3107 61.0308 52.3107 57.7911V55.5768C52.3327 55.5769 52.3545 55.5776 52.3765 55.5776C58.7857 55.5776 64 50.3633 64 43.954C64 37.5446 58.7857 32.3303 52.3765 32.3303ZM52.3765 8.94389C57.7626 8.94389 62.1445 13.3258 62.1445 18.712C62.1445 24.0981 57.7626 28.48 52.3765 28.48C46.9904 28.48 42.6084 24.0981 42.6084 18.712C42.6084 13.3258 46.9904 8.94389 52.3765 8.94389ZM50.4552 30.1757V32.4879C49.8209 32.5926 49.2008 32.7491 48.5998 32.9543V29.705C49.1977 29.9111 49.8178 30.0693 50.4552 30.1757ZM16.0676 6.82793V7.71867C15.4695 7.51259 14.8495 7.35451 14.2121 7.24801V6.20945C14.2121 3.99268 16.0155 2.18931 18.2323 2.18931H46.4351C48.6518 2.18931 50.4552 3.99268 50.4552 6.20945V7.24801C49.8178 7.35451 49.1978 7.51259 48.5998 7.71867V6.82793C48.5998 5.29335 47.3512 4.04476 45.8166 4.04476H42.4088C41.3515 4.04476 40.4915 4.90482 40.4915 5.96206C40.4915 6.3726 40.1574 6.70671 39.7467 6.70671H24.9205C24.51 6.70671 24.1758 6.37273 24.1758 5.96206C24.1758 5.44933 23.9765 4.96778 23.6121 4.6035C23.249 4.24329 22.7685 4.04476 22.2585 4.04476H18.8506C17.316 4.04476 16.0676 5.29335 16.0676 6.82793ZM14.2121 30.1757C14.8495 30.0692 15.4695 29.9111 16.0676 29.705V33.214C15.4722 32.9668 14.8522 32.7674 14.2121 32.6213V30.1757ZM11.6235 53.7221C6.2374 53.7221 1.85545 49.3401 1.85545 43.9539C1.85545 38.5677 6.2374 34.1858 11.6235 34.1858C17.0096 34.1858 21.3916 38.5677 21.3916 43.9539C21.3916 49.647 16.8976 53.7221 11.6235 53.7221ZM50.4552 57.7909C50.4552 60.0077 48.6518 61.8111 46.4351 61.8111H18.2323C16.0155 61.8111 14.2121 60.0077 14.2121 57.7909V55.2866C14.8522 55.1405 15.4722 54.941 16.0676 54.6937V57.1724C16.0676 58.707 17.3162 59.9556 18.8507 59.9556H45.8166C47.3512 59.9556 48.5998 58.707 48.5998 57.1724V54.9471C49.1978 55.1532 49.8178 55.3113 50.4552 55.4178V57.7909ZM52.3765 53.7221C46.9904 53.7221 42.6084 49.3401 42.6084 43.9539C42.6084 43.1168 42.7142 42.2859 42.9231 41.4843C43.0522 40.9884 42.755 40.4818 42.2592 40.3527C41.7633 40.2233 41.2568 40.5208 41.1276 41.0166C40.879 41.9709 40.7531 42.9591 40.7531 43.9539C40.7531 48.321 43.1743 52.1326 46.7444 54.1186V57.1724C46.7444 57.6841 46.3283 58.1002 45.8167 58.1002H18.8509C18.3393 58.1002 17.9231 57.6841 17.9231 57.1724V53.718C21.1244 51.6454 23.2472 48.043 23.2472 43.9539C23.2472 39.8647 21.1244 36.2623 17.9231 34.1897V28.8765C21.4933 26.8904 23.9145 23.0788 23.9145 18.7118C23.9145 14.3449 21.4933 10.5333 17.9231 8.54719V6.82793C17.9231 6.31632 18.3393 5.90021 18.8509 5.90021H22.2587C22.2761 5.90021 22.2919 5.90701 22.3027 5.91802C22.3187 5.93385 22.3206 5.9508 22.3206 5.96206C22.3206 7.3957 23.487 8.56216 24.9208 8.56216H39.7469C41.1807 8.56216 42.3472 7.3957 42.3472 5.96206C42.3472 5.92804 42.375 5.90021 42.409 5.90021H45.8168C46.3285 5.90021 46.7446 6.31632 46.7446 6.82793V8.54719C43.1744 10.5333 40.7532 14.3449 40.7532 18.7118C40.7532 23.0815 43.1774 26.8951 46.7511 28.8802C46.7472 28.9152 46.7446 28.9507 46.7446 28.9868V33.7775C45.3765 34.536 44.158 35.5763 43.1664 36.8623C42.8536 37.2681 42.9289 37.8505 43.3346 38.1635C43.7406 38.4764 44.3228 38.4012 44.6358 37.9953C46.5022 35.5733 49.2837 34.1858 52.3767 34.1858C57.7628 34.1858 62.1448 38.5677 62.1448 43.9539C62.1445 49.3401 57.7626 53.7221 52.3765 53.7221ZM35.7333 31.6934C35.2953 31.4278 34.7248 31.5671 34.4588 32.005C34.2868 32.2882 34.0445 32.5307 33.7663 32.7107C33.4983 32.8841 33.1492 32.8891 32.8766 32.7236L31.4881 31.8807C31.2112 31.7126 31.0598 31.3899 31.0911 31.0627C31.1221 30.7398 31.2275 30.4226 31.3958 30.1454C31.6618 29.7073 31.5223 29.1369 31.0845 28.8708C30.6467 28.6048 30.076 28.7441 29.8099 29.1821C29.4972 29.6971 29.3015 30.2862 29.2437 30.8894L29.242 30.9081C29.144 31.9296 29.6476 32.9337 30.5249 33.4667L31.9133 34.3096C32.3404 34.569 32.8256 34.6983 33.3106 34.6983C33.822 34.6983 34.3331 34.5545 34.7749 34.2682C35.2869 33.9364 35.7284 33.4895 36.0448 32.9681C36.3108 32.5299 36.1712 31.9594 35.7333 31.6934ZM57.2582 42.9591L50.7532 39.2016C49.9118 38.7063 48.8154 39.3501 48.8227 40.3161V47.8312C48.814 48.795 49.9185 49.4381 50.7531 48.9458L57.258 45.1883C58.0992 44.7116 58.0961 43.4336 57.2582 42.9591ZM50.678 46.8464V41.3009L55.4782 44.0737L50.678 46.8464ZM32.1084 23.5993C27.797 23.7124 24.2116 27.1712 23.9462 31.4736C23.8784 32.5693 24.0208 33.6486 24.369 34.6819L23.3811 37.4922C23.1979 38.0132 23.3268 38.5794 23.7172 38.9699C24.1076 39.3603 24.6739 39.489 25.1948 39.306L27.154 38.6173C28.6912 39.8224 30.6132 40.4539 32.5663 40.4009C37.0569 40.2792 40.7225 36.5234 40.7375 32.0289C40.7452 29.7368 39.8466 27.5921 38.2074 25.99C36.5685 24.3881 34.4014 23.5379 32.1084 23.5993ZM32.516 38.5461C30.984 38.5851 29.4828 38.0904 28.2848 37.1461C27.9575 36.8879 27.5634 36.7537 27.1644 36.7537C26.9654 36.7537 26.765 36.7871 26.5713 36.8553L25.4307 37.2562L26.1267 35.2762C26.2593 34.899 26.2621 34.4851 26.1344 34.1108C25.8578 33.2994 25.7446 32.4506 25.7978 31.5879C26.0047 28.2363 28.7979 25.5421 32.1568 25.4539C33.9451 25.4054 35.6332 26.0687 36.9102 27.3168C38.1875 28.5653 38.8876 30.2365 38.8817 32.0225C38.8702 35.5248 36.0144 38.4512 32.516 38.5461Z" fill="#FB602F"/>
</g>
<defs>
<clipPath id="clip0_2926_18633">
<rect width="64" height="64" fill="white"/>
</clipPath>
</defs>
</svg>
