<svg width="64" height="64" viewBox="0 0 64 64" fill="none" xmlns="http://www.w3.org/2000/svg">
<g clip-path="url(#clip0_2924_18209)">
<path d="M8.00001 0C5.80131 0 3.99806 1.76407 3.99806 4.00171V25.6137C1.14384 26.686 0 29.0713 0 30.9962V39.1675C0 40.8358 0.795137 43.1214 1.54299 45.2355C1.91679 46.2926 2.2916 47.3094 2.56055 48.165C2.82966 49.0207 3 49.7529 3 50.0047V50.9969C2.44959 50.9969 2.0022 51.442 2.00001 51.9929V55.0005C1.44956 55.0006 1.00222 55.4457 0.999987 55.9966V62.9942C0.996812 63.5502 1.44782 64.0021 2.00391 64H19.998C20.5541 64.0021 21.0052 63.5502 21.002 62.9942V55.9966C20.9998 55.445 20.5514 54.9995 20 55.0005V51.9929C19.9981 51.5038 19.6383 51.1169 19.1738 51.032C19.3375 50.6904 19.553 50.2965 19.8203 49.7821C20.2941 48.8704 20.7985 47.651 20.9512 46.0011H29.3457C29.9582 47.2938 30.7733 48.5169 31.8067 49.6122C36.2221 54.2926 43.1249 55.2495 48.5543 52.375L56.0117 62.4181C57.5845 64.5353 60.6918 64.4186 62.5137 62.6993C64.3344 60.9808 64.6059 57.9214 62.6327 56.2036L53.3899 48.1529C53.8761 47.4687 54.3086 46.7447 54.6607 46.0011H59.998C62.1967 46.0011 63.9999 44.237 63.9999 41.9993V4.00171C63.9999 1.76407 62.1967 0 59.998 0H8.00001ZM59.998 2.00183C61.1233 2.00183 62 2.89209 62 4.00171V41.9994C62 43.109 61.1233 43.9993 59.998 43.9993H55.4258C55.6208 43.342 55.7701 42.6745 55.8672 41.9994H57.0039C58.6486 41.9994 60 40.6715 60 39.0035V6.99762C60 5.32958 58.6486 4.00171 57.0039 4.00171H11C9.35531 4.00171 8.00391 5.32958 8.00391 6.99762V29.3556C7.94154 29.3265 7.88145 29.2875 7.81833 29.2619C7.23118 29.0234 6.59758 28.9425 5.998 29.0627V4.00171C5.998 2.89209 6.87466 2.00183 7.99999 2.00183H59.998ZM57.0039 6.00158C57.5283 6.00158 58 6.42635 58 6.99762V39.0035C58 39.5747 57.5283 39.9995 57.0039 39.9995H56.0078C56.0099 36.5488 54.7388 33.0911 52.1895 30.3888C51.2878 29.433 50.3003 28.6448 49.2246 28.0002H53C54.3345 28.0011 54.3345 26.0012 53 26.0004H42C38.8577 26.0004 36.24 26.9759 34.002 28.4963V15.0049C34.0041 14.4527 33.5581 14.0033 33.0059 14.0011H27.0078C26.4517 13.9979 25.9998 14.4489 26.0019 15.0049V20.0007H21.0078C20.4517 19.9975 19.9998 20.4485 20.0019 21.0046V24.0005H15.0078C14.4517 23.9973 13.9998 24.4483 14.0019 25.0043V32.996C13.9998 33.5521 14.4517 34.0031 15.0078 33.9999C19.7846 33.9979 24.5623 34.0019 29.3379 34.0019C28.4441 35.8927 27.9959 37.9422 27.9961 39.9995H11.6406C11.573 39.9247 11.4551 39.8045 11.3984 39.7357C11.0866 39.3573 10.998 39.1436 10.998 38.976V34.6716C10.9556 33.2594 10.5775 32.0804 10.0038 31.1679V6.99747C10.0038 6.42619 10.4755 6.00143 11 6.00151L57.0039 6.00158ZM39 14.0011C37.6655 14.0003 37.6655 16.0002 39 16.001H46C47.3345 16.0018 47.3345 14.0019 46 14.0011H39ZM28.0039 16.001H32V30.1935C31.4466 30.7585 30.9367 31.3715 30.4981 32.0019H28.0039V16.001ZM39 18.0009C37.6655 18 37.6655 19.9999 39 20.0007H53C54.3345 20.0015 54.3345 18.0017 53 18.0009H39ZM22.0039 22.0006H26V32H22.0039V22.0006ZM39 22.0006C37.6655 21.9998 37.6655 23.9997 39 24.0005H53C54.3345 24.0013 54.3345 22.0014 53 22.0006H39ZM16.0039 26.0004H20V32H16.0039V26.0004ZM3.99806 27.8264C3.99696 31.55 4.00184 35.2615 4.00184 38.9839C4.00184 40.3175 6.00181 40.3175 6.00181 38.9839V31.6914C6.00181 31.3046 6.11029 31.1402 6.23803 31.0704C6.36578 31.0005 6.66236 30.9521 7.0642 31.1153C7.86796 31.4417 8.93193 32.5376 8.99781 34.7166V38.9761C8.99781 39.8084 9.41892 40.4759 9.85523 41.0053C10.2915 41.5347 10.7867 41.9967 11.2498 42.5188C12.1758 43.5633 12.9947 44.7492 12.9998 46.9776C12.9998 48.3112 14.9998 48.3112 14.9998 46.9776C14.999 46.6378 14.9809 46.3128 14.945 46.0011H18.9371C18.8041 47.2354 18.4459 48.0954 18.0485 48.8603C17.8111 49.317 17.293 50.1001 17.0329 50.9969H4.99963V50.0047C4.99963 49.2566 4.75586 48.4877 4.46646 47.5674C4.17694 46.647 3.80175 45.6187 3.43132 44.5715C2.69042 42.4769 1.99967 40.3458 1.99967 39.1675V30.9961C1.99967 29.999 2.52227 28.6619 3.99806 27.8264ZM42.2227 27.9983C45.4868 28.113 48.48 29.372 50.7344 31.7617C55.2926 36.5935 55.0664 44.1754 50.2344 48.7333C45.4024 53.2912 37.8258 53.0709 33.2676 48.2392C28.7094 43.4075 28.9258 35.8255 33.7578 31.2676C36.0807 29.0765 39.0413 27.9983 42.2227 27.9983ZM42.2911 30.006C39.728 29.9312 37.1346 30.8307 35.1289 32.7226C31.1176 36.5064 30.9387 42.8552 34.7227 46.8663C38.5067 50.8774 44.8501 51.0621 48.8614 47.2783C52.8727 43.4946 53.0634 37.1458 49.2793 33.1347C47.3873 31.1291 44.8541 30.0807 42.2911 30.006ZM47.8243 34.5076C50.8666 37.7325 50.7154 42.7812 47.4902 45.8234C44.2651 48.8655 39.22 48.7182 36.1777 45.4934C33.1353 42.2685 33.2768 37.2198 36.502 34.1777C38.1145 32.6566 40.1853 31.9326 42.2325 31.9922C44.2796 32.0519 46.3031 32.8952 47.8243 34.5076ZM13.375 41.9994H28.1368C28.2335 42.674 28.3809 43.3414 28.5762 43.9993H14.4649C14.1705 43.2151 13.7858 42.5632 13.375 41.9994ZM61.3184 57.7093C62.3074 58.5705 62.1761 60.267 61.1408 61.2443C60.1062 62.2206 58.3908 62.2665 57.6212 61.2292L50.2573 51.3131C50.7266 50.9703 51.174 50.5959 51.6076 50.1869C51.7792 50.0251 51.9466 49.8592 52.1075 49.6915L61.3184 57.7093ZM4.00003 52.9987H18V55.0005H4.00003V52.9987ZM3.00004 57.0023H19.002V61.9981H3.00004V57.0023Z" fill="#FB602F"/>
</g>
<defs>
<clipPath id="clip0_2924_18209">
<rect width="64" height="64" fill="white"/>
</clipPath>
</defs>
</svg>
