<svg width="64" height="64" viewBox="0 0 64 64" fill="none" xmlns="http://www.w3.org/2000/svg">
<path d="M11.8912 21.2361C17.0439 21.2361 21.2359 17.044 21.2359 11.8913C21.2359 6.73872 17.0439 2.54297 11.8912 2.54297C6.73842 2.54297 2.54279 6.73659 2.54279 11.8912C2.54279 17.0458 6.73642 21.2361 11.8912 21.2361ZM11.8912 4.54297C15.941 4.54297 19.2359 7.83947 19.2359 11.8913C19.2359 15.9432 15.941 19.2361 11.8912 19.2361C7.84129 19.2361 4.54279 15.9412 4.54279 11.8913C4.54279 7.84147 7.83929 4.54297 11.8912 4.54297ZM8.71904 9.97072C8.71904 8.68197 9.63067 7.58634 10.8912 7.19972V6.87022C10.8912 6.31797 11.3389 5.87022 11.8912 5.87022C12.4434 5.87022 12.8912 6.31797 12.8912 6.87022V7.19872C13.6678 7.43422 14.3258 7.93947 14.713 8.63259C14.9824 9.11472 14.8099 9.72397 14.3278 9.99334C13.8455 10.2628 13.2364 10.0902 12.967 9.60797C12.7777 9.26909 12.3554 9.05009 11.8912 9.05009C11.2558 9.05009 10.719 9.47172 10.719 9.97072C10.719 10.5143 10.8294 10.6441 12.0965 10.9112C13.2062 11.1452 15.0633 11.5367 15.0633 13.8118C15.0633 15.099 14.1517 16.1933 12.8912 16.5795V16.9123C12.8912 17.4646 12.4434 17.9123 11.8912 17.9123C11.3389 17.9123 10.8912 17.4646 10.8912 16.9123V16.5803C10.1145 16.3448 9.45642 15.8396 9.06929 15.1466C8.79992 14.6645 8.97242 14.0552 9.45454 13.7858C9.93667 13.5163 10.5458 13.6888 10.8153 14.1711C11.0047 14.51 11.427 14.729 11.8912 14.729C12.5265 14.729 13.0633 14.3091 13.0633 13.812C13.0633 13.2662 12.9528 13.136 11.6839 12.8683C10.575 12.6346 8.71904 12.2432 8.71904 9.97072ZM52.109 21.2361C57.2618 21.2361 61.4538 17.044 61.4538 11.8913C61.4538 6.73872 57.2617 2.54297 52.109 2.54297C46.9564 2.54297 42.7643 6.73659 42.7643 11.8913C42.7643 17.0461 46.9563 21.2361 52.109 21.2361ZM52.109 4.54297C56.1589 4.54297 59.4538 7.83947 59.4538 11.8913C59.4538 15.9432 56.1589 19.2361 52.109 19.2361C48.0592 19.2361 44.7643 15.9412 44.7643 11.8913C44.7643 7.84147 48.059 4.54297 52.109 4.54297ZM11.8912 42.7643C6.73654 42.7643 2.54279 46.9563 2.54279 52.1091C2.54279 57.2618 6.73642 61.4538 11.8912 61.4538C17.0459 61.4538 21.2359 57.2617 21.2359 52.1091C21.2359 46.9565 17.0439 42.7643 11.8912 42.7643ZM11.8912 59.4538C7.83929 59.4538 4.54279 56.159 4.54279 52.1091C4.54279 48.0592 7.83929 44.7643 11.8912 44.7643C15.943 44.7643 19.2359 48.0592 19.2359 52.1091C19.2359 56.159 15.941 59.4538 11.8912 59.4538ZM42.7645 58.3655C42.955 58.8838 42.6893 59.4586 42.1709 59.6491C38.9133 60.8466 35.4913 61.4538 32 61.4538C29.086 61.4538 26.2233 61.0302 23.4658 60.1957L23.814 60.9607C24.0429 61.4633 23.821 62.0563 23.3184 62.2852C23.184 62.3463 23.0432 62.3753 22.9045 62.3753C22.5247 62.3753 22.1615 62.1578 21.9938 61.7895L20.6757 58.8945C20.5658 58.6531 20.5562 58.378 20.6492 58.1296C20.7422 57.8812 20.93 57.68 21.1714 57.57L24.0664 56.2518C24.5693 56.023 25.1622 56.2448 25.3909 56.7476C25.6198 57.2502 25.3979 57.8432 24.8952 58.0721L24.2794 58.3525C26.7767 59.0837 29.3658 59.4538 32 59.4538C35.2552 59.4538 38.445 58.888 41.4809 57.7718C41.9992 57.5813 42.574 57.8471 42.7645 58.3655ZM21.2357 5.63172C21.0449 5.11347 21.3104 4.53859 21.8288 4.34784C25.0829 3.15022 28.505 2.54297 32.0002 2.54297C34.911 2.54297 37.7733 2.96659 40.5327 3.80097L40.186 3.03959C39.9572 2.53697 40.179 1.94397 40.6817 1.71509C41.1847 1.48634 41.7773 1.70822 42.0062 2.21072L43.3243 5.10572C43.4342 5.34709 43.4438 5.62222 43.3508 5.87072C43.2578 6.11909 43.0699 6.32047 42.8285 6.43034L39.9335 7.74847C39.7992 7.80959 39.6583 7.83859 39.5198 7.83859C39.1399 7.83859 38.7768 7.62097 38.609 7.25272C38.3802 6.75009 38.6022 6.15709 39.1048 5.92822L39.7247 5.64597C37.2238 4.91359 34.6333 4.54297 32 4.54297C28.7414 4.54297 25.5517 5.10884 22.5195 6.22484C22.0013 6.41559 21.4265 6.14997 21.2357 5.63172ZM32 30.8883C35.5288 30.8883 37.4328 27.3371 37.4328 23.9956C37.4328 20.998 34.9957 18.5592 32 18.5592C29.0044 18.5592 26.5637 20.998 26.5637 23.9956C26.5637 27.337 28.469 30.8883 32 30.8883ZM32 20.5593C33.8929 20.5593 35.4328 22.101 35.4328 23.9957C35.4328 26.0273 34.3678 28.8885 32 28.8885C29.6323 28.8885 28.5637 26.0273 28.5637 23.9957C28.5637 22.101 30.1053 20.5593 32 20.5593ZM21.4895 37.1276V42.4746C21.4895 44.1083 22.8188 45.4376 24.4525 45.4376H39.5475C41.1813 45.4376 42.5105 44.1083 42.5105 42.4746V37.1276C42.5105 34.1417 39.9288 31.7125 36.7553 31.7125H27.2448C24.0713 31.7125 21.4895 34.1417 21.4895 37.1276ZM23.4895 37.1276C23.4895 35.2445 25.1742 33.7125 27.2448 33.7125H36.7553C38.8259 33.7125 40.5105 35.2445 40.5105 37.1276V42.4746C40.5105 43.0056 40.0785 43.4376 39.5475 43.4376H24.4525C23.9215 43.4376 23.4895 43.0056 23.4895 42.4746V37.1276ZM47.1974 13.013C48.2539 14.6272 49.6933 15.6905 51.2173 16.8163L51.5138 17.0355C51.6907 17.1665 51.8998 17.232 52.109 17.232C52.3183 17.232 52.5275 17.1665 52.7043 17.0355L53.0003 16.8166C54.5244 15.6907 55.964 14.6272 57.0193 13.015C58.0482 11.4516 57.9109 9.50397 56.6842 8.27722C55.4333 7.03097 53.4382 6.96672 52.109 8.08509C50.7812 6.96659 48.7853 7.03047 47.5338 8.27722C47.5333 8.27759 47.5329 8.27809 47.5324 8.27847C46.307 9.50384 46.1698 11.4516 47.1973 13.0128L47.1974 13.013ZM48.9457 9.69397C49.4867 9.15534 50.3664 9.15547 50.9059 9.69284L51.4019 10.1888C51.7924 10.5795 52.4255 10.5793 52.816 10.1888L53.3108 9.69409C53.8517 9.15534 54.7318 9.15522 55.2713 9.69284C55.9094 10.331 55.7587 11.2923 55.3472 11.9176C54.5449 13.1435 53.4638 13.9846 52.1089 14.9882C50.7542 13.9846 49.6729 13.1432 48.8693 11.9155C48.4594 11.2926 48.3085 10.3321 48.9454 9.69384L48.9457 9.69397ZM17.548 50.068C17.4335 49.715 17.1329 49.4543 16.7672 49.3911L14.056 48.9222L12.7759 46.4911C12.603 46.1628 12.2627 45.9572 11.8915 45.9571H11.891C11.5202 45.9571 11.1798 46.1623 11.0067 46.4903L9.72304 48.9223L7.01467 49.3912C6.64904 49.4545 6.34842 49.7151 6.23404 50.0681C6.11954 50.4211 6.21004 50.8085 6.46892 51.0743L8.38567 53.0422L7.99204 55.7647C7.93892 56.132 8.09354 56.4986 8.39379 56.7167C8.69392 56.935 9.09029 56.969 9.42329 56.8051L11.8909 55.5908L14.3585 56.8051C14.4984 56.874 14.6495 56.9078 14.7999 56.9078C15.0075 56.9078 15.2139 56.8432 15.388 56.7167C15.6882 56.4985 15.8429 56.132 15.7898 55.7647L15.3962 53.0422L17.3129 51.0743C17.5718 50.8085 17.6623 50.4211 17.5478 50.0681L17.548 50.068ZM13.6198 51.9997C13.403 52.2223 13.302 52.5331 13.3464 52.8406L13.539 54.1726L12.3328 53.579C12.0544 53.442 11.7282 53.442 11.4498 53.579L10.2434 54.1727L10.436 52.8407C10.4805 52.5332 10.3795 52.2225 10.1627 51.9998L9.22604 51.0382L10.5489 50.8092C10.8543 50.7563 11.118 50.5647 11.2627 50.2907L11.8903 49.1016L12.5159 50.2898C12.6605 50.5645 12.9245 50.7563 13.2303 50.8092L14.5562 51.0385L13.6198 51.9997ZM1.71492 23.3186C1.48604 22.816 1.70792 22.223 2.21067 21.9941L5.10567 20.676C5.60842 20.4472 6.20129 20.669 6.43017 21.1717L7.74829 24.0667C7.97717 24.5693 7.75529 25.1623 7.25254 25.3912C7.11817 25.4523 6.97729 25.4813 6.83879 25.4813C6.45892 25.4813 6.09579 25.2638 5.92804 24.8955L5.64542 24.2748C4.91329 26.7736 4.54267 29.3643 4.54267 32.0002C4.54267 35.2588 5.10854 38.4485 6.22454 41.4807C6.41529 41.999 6.14979 42.5738 5.63142 42.7646C5.51742 42.8065 5.40079 42.8263 5.28617 42.8263C4.87904 42.8263 4.49642 42.5758 4.34754 42.1715C3.14992 38.9173 2.54267 35.4952 2.54267 32.0001C2.54267 29.0867 2.96617 26.2245 3.80017 23.4677L3.03929 23.8142C2.53667 24.0432 1.94367 23.8211 1.71479 23.3185L1.71492 23.3186ZM61.7894 42.0062L58.8944 43.3243C58.763 43.3842 58.6217 43.4142 58.48 43.4142C58.3614 43.4142 58.2428 43.3932 58.1295 43.3508C57.8812 43.2578 57.6799 43.07 57.5699 42.8286L56.2518 39.9336C56.0229 39.431 56.2448 38.838 56.7475 38.6091C57.2503 38.3802 57.8432 38.6021 58.072 39.1048L58.3522 39.72C59.0835 37.2205 59.4538 34.6317 59.4538 32.0001C59.4538 28.7413 58.8879 25.5517 57.7719 22.5196C57.5812 22.0013 57.8467 21.4265 58.365 21.2357C58.8833 21.0448 59.4582 21.3106 59.6489 21.8288C60.8465 25.0828 61.4538 28.505 61.4538 32.0002C61.4538 34.9117 61.0299 37.7746 60.1952 40.5346L60.9607 40.1861C61.4633 39.9573 62.0563 40.1792 62.2852 40.6817C62.514 41.1843 62.2922 41.7773 61.7895 42.0062H61.7894ZM52.6369 58.7743C52.6369 59.3236 52.1904 59.7736 51.6377 59.7736C51.0849 59.7736 50.6384 59.3236 50.6384 58.7743C50.6384 58.2216 51.0849 57.7716 51.6377 57.7716C52.1904 57.7716 52.6369 58.2216 52.6369 58.7743ZM57.1797 58.7743C57.1797 59.3271 56.7332 59.7736 56.1804 59.7736C55.6277 59.7736 55.1812 59.3271 55.1812 58.7743C55.1812 58.2216 55.6277 57.7751 56.1804 57.7751C56.7332 57.7751 57.1797 58.2216 57.1797 58.7743ZM59.7557 45.3795H48.8139L48.6598 44.77L48.6523 44.742C48.4428 44.0042 47.7828 43.5085 47.01 43.5085H44.9762C44.4239 43.5085 43.9762 43.9562 43.9762 44.5085C43.9762 45.0607 44.4239 45.5085 44.9762 45.5085H46.7837L48.55 52.4918C47.8233 52.9107 47.3318 53.6947 47.3318 54.5931C47.3318 55.928 48.4178 57.014 49.7528 57.014H57.7893C58.3415 57.014 58.7893 56.5662 58.7893 56.014C58.7893 55.4617 58.3415 55.014 57.7893 55.014H49.7528C49.5245 55.014 49.3318 54.8212 49.3318 54.5931C49.3318 54.3636 49.5237 54.1697 49.7512 54.1687H49.752C49.7533 54.1687 49.7547 54.1685 49.756 54.1685H57.0168C58.0785 54.1685 59.0004 53.451 59.2584 52.425L60.7254 46.6245C60.801 46.3255 60.7344 46.0083 60.545 45.765C60.3555 45.5216 60.0644 45.3793 59.756 45.3793L59.7557 45.3795ZM57.3189 51.9362C57.2823 52.0818 57.1693 52.1687 57.0167 52.1687H50.5313L49.3199 47.3796H58.4714L57.319 51.9363L57.3189 51.9362ZM51.396 50.6918V48.8563C51.396 48.3041 51.8438 47.8563 52.396 47.8563C52.9483 47.8563 53.396 48.3041 53.396 48.8563V50.6918C53.396 51.2441 52.9483 51.6918 52.396 51.6918C51.8438 51.6918 51.396 51.2441 51.396 50.6918ZM54.422 50.6918V48.8563C54.422 48.3041 54.8698 47.8563 55.422 47.8563C55.9743 47.8563 56.422 48.3041 56.422 48.8563V50.6918C56.422 51.2441 55.9743 51.6918 55.422 51.6918C54.8698 51.6918 54.422 51.2441 54.422 50.6918Z" fill="#FB602F"/>
</svg>
