<svg width="64" height="64" viewBox="0 0 64 64" fill="none" xmlns="http://www.w3.org/2000/svg">
<path d="M56.274 19.546L52.454 15.726L51.181 16.322L50.701 15H45.3L44.82 16.321L43.547 15.725L39.728 19.544L40.323 20.818L39 21.299V26.701L40.321 27.18L39.726 28.453L43.546 32.273L44.819 31.677L45.299 33H50.7L51.18 31.679L52.453 32.275L56.272 28.455L55.677 27.182L57 26.701V21.299L55.679 20.82L56.274 19.546ZM55 25.299L54.177 25.598L53.735 25.794L53.308 26.829L53.869 28.03L52.032 29.868L50.834 29.308L49.752 29.752L49.299 31H46.7L46.401 30.177L46.197 29.734L45.166 29.309L43.968 29.869L42.131 28.031L42.693 26.83L42.51 26.414C42.479 26.344 42.451 26.271 42.413 26.175L42.248 25.754L41 25.299V22.701L41.823 22.402L42.265 22.206L42.692 21.171L42.131 19.969L43.968 18.132L45.168 18.692L46.248 18.247L46.701 17H49.3L49.599 17.823L49.803 18.266L50.834 18.691L52.032 18.131L53.869 19.969L53.307 21.17L53.49 21.586C53.521 21.656 53.549 21.729 53.587 21.825L53.752 22.246L55 22.701V25.299Z" fill="#FB602F"/>
<path d="M48 19C45.243 19 43 21.243 43 24C43 26.757 45.243 29 48 29C50.757 29 53 26.757 53 24C53 21.243 50.757 19 48 19ZM48 27C46.346 27 45 25.654 45 24C45 22.346 46.346 21 48 21C49.654 21 51 22.346 51 24C51 25.654 49.654 27 48 27Z" fill="#FB602F"/>
<path d="M62.8 14.425C62.209 12.408 60.248 11 58.03 11H38.505L38.976 6.29C38.992 6.131 39 5.97 39 5.81C39 3.157 36.842 1 34.19 1H11.81C9.158 1 7 3.157 7 5.81C7 5.97 7.008 6.131 7.024 6.289L7.295 9H4C2.346 9 1 10.346 1 12V51.172C1 51.973 1.312 52.727 1.879 53.293L10.707 62.121C11.273 62.688 12.027 63 12.829 63H40C41.654 63 43 61.654 43 60V37H45V38.465C45 39.862 46.137 41 47.535 41C48.037 41 48.523 40.853 48.941 40.574L54.303 37H56.552C59.034 37 61.092 35.138 61.339 32.669L62.977 16.289C63.039 15.666 62.979 15.039 62.8 14.425ZM11.81 3H34.19C35.739 3 37 4.261 37 5.81C37 5.904 36.995 5.997 36.986 6.09L35.348 22.47C35.204 23.912 34.002 25 32.552 25H27V28.465C27 28.865 26.501 29.132 26.168 28.91L20.303 25H13.448C11.998 25 10.796 23.912 10.652 22.47L9.014 6.089C9.005 5.996 9 5.903 9 5.81C9 4.261 10.261 3 11.81 3ZM4.414 53H10C10.551 53 11 53.448 11 54V59.586L4.414 53ZM41 60C41 60.552 40.551 61 40 61H13V54C13 52.346 11.654 51 10 51H3V12C3 11.448 3.449 11 4 11H7.495L8.662 22.669C8.909 25.138 10.966 27 13.448 27H19.698L25.059 30.574C25.477 30.853 25.963 31 26.465 31C27.863 31 29 29.862 29 28.465V27H32.552C33.084 27 33.589 26.899 34.069 26.74L34.662 32.669C34.909 35.138 36.966 37 39.448 37H41V60ZM60.986 16.09L59.348 32.47C59.204 33.912 58.001 35 56.552 35H53.698L47.833 38.91C47.497 39.131 47 38.865 47 38.465V35H39.448C37.998 35 36.796 33.912 36.652 32.47L35.962 25.567C36.712 24.809 37.225 23.81 37.339 22.669L38.305 13H58.03C59.365 13 60.538 13.817 60.88 14.986C60.987 15.353 61.023 15.724 60.986 16.09Z" fill="#FB602F"/>
<path d="M34 5H28V21H26V9H20V21H18V13H12V23H34V5ZM16 21H14V15H16V21ZM22 11H24V21H22V11ZM32 21H30V7H32V21Z" fill="#FB602F"/>
<path d="M21 29H5V43H21V29ZM19 41H7V31H19V41Z" fill="#FB602F"/>
<path d="M23 33H33V35H23V33Z" fill="#FB602F"/>
<path d="M23 37H33V39H23V37Z" fill="#FB602F"/>
<path d="M23 41H39V43H23V41Z" fill="#FB602F"/>
<path d="M25 59H39V45H25V59ZM27 47H37V57H27V47Z" fill="#FB602F"/>
<path d="M15 57H23V59H15V57Z" fill="#FB602F"/>
<path d="M15 53H23V55H15V53Z" fill="#FB602F"/>
<path d="M15 49H23V51H15V49Z" fill="#FB602F"/>
<path d="M21 45H23V47H21V45Z" fill="#FB602F"/>
<path d="M5 45H19V47H5V45Z" fill="#FB602F"/>
</svg>
