<svg width="64" height="64" viewBox="0 0 64 64" fill="none" xmlns="http://www.w3.org/2000/svg">
<path d="M36.0564 18.6847L42.0092 8.37716C42.1892 8.06528 42.5248 7.87741 42.8831 7.87678C43.2432 7.87941 43.5741 8.07503 43.7498 8.38941L46.6833 13.6378L50.2302 4.26066L49.2517 4.82616C48.7728 5.10241 48.1607 4.93903 47.8842 4.46028C47.6076 3.98166 47.7713 3.36941 48.25 3.09278L51.6587 1.12266C51.6596 1.12216 51.6606 1.12178 51.6614 1.12128C51.6727 1.11478 51.6846 1.10953 51.6961 1.10353C51.7538 1.07341 51.8139 1.04903 51.8756 1.03078C51.8942 1.02528 51.9126 1.01928 51.9316 1.01491C51.9389 1.01316 51.9466 1.01228 51.9541 1.01066C51.9786 1.00553 52.0032 1.00053 52.0282 0.997156C52.0315 0.996781 52.0348 0.996656 52.0382 0.996281C52.1627 0.980906 52.2913 0.988406 52.4182 1.02241H52.4186C52.4507 1.03103 52.4823 1.04116 52.5132 1.05278C52.5135 1.05278 52.5137 1.05278 52.5138 1.05303C52.5229 1.05653 52.5315 1.06091 52.5405 1.06466C52.5621 1.07353 52.5837 1.08241 52.6046 1.09266C52.6247 1.10266 52.6437 1.11391 52.6628 1.12503C52.6718 1.13028 52.6812 1.13478 52.69 1.14041C52.7127 1.15453 52.7343 1.17003 52.7556 1.18591C52.7603 1.18941 52.7653 1.19241 52.77 1.19603C52.792 1.21303 52.8128 1.23116 52.8332 1.24966C52.8368 1.25291 52.8408 1.25591 52.8443 1.25928C52.864 1.27778 52.8825 1.29728 52.9005 1.31716C52.9045 1.32153 52.9087 1.32553 52.9126 1.32991C52.9295 1.34916 52.945 1.36941 52.9602 1.38991C52.9646 1.39578 52.9695 1.40128 52.9737 1.40716C52.9885 1.42778 53.0018 1.44928 53.0148 1.47091C53.0185 1.47703 53.0228 1.48266 53.0263 1.48878L53.0278 1.49141C53.0278 1.49141 53.0283 1.49228 53.0286 1.49266L54.9965 4.90103C55.2728 5.37978 55.1088 5.99203 54.6301 6.26828C54.4725 6.35941 54.3003 6.40253 54.1305 6.40253C53.7845 6.40253 53.4481 6.22303 53.2627 5.90191L52.3486 4.31866L47.795 16.3573C47.6572 16.7214 47.321 16.9727 46.9328 17.0014C46.5447 17.03 46.1749 16.8313 45.985 16.4915L42.8618 10.9038L37.7901 19.6857C37.6047 20.0067 37.2682 20.1862 36.9223 20.1862C36.7524 20.1862 36.5803 20.1429 36.4226 20.0519C35.9438 19.7754 35.7798 19.1633 36.0563 18.6845L36.0564 18.6847ZM62.9116 33.1883V59.9828C62.9116 61.6425 61.5628 62.9928 59.9051 62.9928H38.422C36.7622 62.9928 35.412 61.6425 35.412 59.9828V39.731C32.7886 42.5415 29.0537 44.3019 24.9148 44.3019C23.388 44.3019 21.9165 44.0615 20.535 43.6182L17.823 48.3165C17.999 48.5824 18.1351 48.8765 18.22 49.1942C18.4256 49.9629 18.3198 50.7647 17.9226 51.4515L12.1188 61.507C11.5688 62.4597 10.5661 62.9933 9.53645 62.9933C9.03295 62.9933 8.52308 62.8657 8.05633 62.5973L5.0607 60.8673C4.37483 60.4713 3.88408 59.8289 3.67895 59.0587C3.4742 58.2899 3.57945 57.4889 3.97508 56.8035L9.77895 46.7478C10.1748 46.062 10.8167 45.5707 11.5861 45.3644C11.9037 45.2793 12.2267 45.2478 12.5447 45.2672L15.2605 40.5642C14.247 39.6424 13.3657 38.5779 12.6481 37.403H4.13345C2.4757 37.403 1.12695 36.0543 1.12695 34.3964V7.60203C1.12695 5.94416 2.4757 4.59553 4.13345 4.59553H7.5297V3.71153C7.5297 3.15866 7.97783 2.71053 8.5307 2.71053H9.9427V1.98928C9.9427 1.43641 10.3908 0.988281 10.9437 0.988281H18.8063C19.3592 0.988281 19.8073 1.43641 19.8073 1.98928V2.71053H21.2193C21.7722 2.71053 22.2203 3.15866 22.2203 3.71153V4.59553H25.6166C27.2763 4.59553 28.6266 5.94416 28.6266 7.60203V16.0635C34.753 17.7038 39.2777 23.3025 39.2777 29.939C39.2777 30.0202 39.276 30.1009 39.2746 30.1817H41.8182V29.2977C41.8182 28.7448 42.2663 28.2967 42.8192 28.2967H44.2312V27.5792C44.2312 27.0263 44.6793 26.5782 45.2322 26.5782H53.0948C53.6477 26.5782 54.0958 27.0263 54.0958 27.5792V28.2967H55.5078C56.0607 28.2967 56.5088 28.7448 56.5088 29.2977V30.1817H59.9051C61.5628 30.1817 62.9116 31.5303 62.9116 33.1882V33.1883ZM43.8203 33.7889H54.507V30.2988H53.095C52.5421 30.2988 52.094 29.8507 52.094 29.2978V28.5803H46.2333V29.2978C46.2333 29.8507 45.7852 30.2988 45.2323 30.2988H43.8203V33.7889ZM9.5317 8.19916H20.2183V4.71253H18.8063C18.2535 4.71253 17.8053 4.26441 17.8053 3.71153V2.99028H11.9447V3.71153C11.9447 4.26441 11.4966 4.71253 10.9437 4.71253H9.5317V8.19916ZM11.6322 35.4012C10.9368 33.7164 10.5522 31.872 10.5522 29.9392C10.5522 28.5197 10.7602 27.1479 11.1456 25.8519H6.00083C5.44795 25.8519 4.99983 25.4038 4.99983 24.8509C4.99983 24.298 5.44795 23.8499 6.00083 23.8499H11.909C12.345 22.9224 12.8772 22.0489 13.493 21.2422H6.00083C5.44795 21.2422 4.99983 20.794 4.99983 20.2412C4.99983 19.6883 5.44795 19.2402 6.00083 19.2402H15.3437C16.5663 18.1453 17.9768 17.2565 19.5206 16.6287H6.00083C5.44795 16.6287 4.99983 16.1805 4.99983 15.6277C4.99983 15.0748 5.44795 14.6267 6.00083 14.6267H19.5717C20.1246 14.6267 20.5727 15.0748 20.5727 15.6277C20.5727 15.9117 20.454 16.1674 20.264 16.3497C21.7233 15.8488 23.288 15.5763 24.915 15.5763C25.4935 15.5763 26.0638 15.6117 26.6246 15.6784V7.60203C26.6246 7.04816 26.1723 6.59753 25.6166 6.59753H22.2203V9.20003C22.2203 9.75291 21.7722 10.201 21.2193 10.201H8.5307C7.97783 10.201 7.5297 9.75291 7.5297 9.20003V6.59753H4.13345C3.57958 6.59753 3.12895 7.04816 3.12895 7.60203V34.3964C3.12895 34.9504 3.57958 35.401 4.13345 35.401H11.6322V35.4012ZM16.2861 49.7113C16.2187 49.4595 16.059 49.25 15.8361 49.1214L12.8418 47.3922C12.6947 47.3072 12.5303 47.2639 12.3627 47.2639C12.277 47.2639 12.1903 47.2753 12.1047 47.2982C11.8517 47.366 11.6415 47.526 11.513 47.7487L5.70908 57.8044C5.58008 58.0278 5.5462 58.2903 5.61358 58.5434C5.68083 58.7959 5.84008 59.0054 6.06183 59.1335L9.05608 60.8628C9.5202 61.1297 10.1171 60.9703 10.3851 60.5062L16.189 50.4505C16.189 50.4505 16.1893 50.4498 16.1896 50.4494C16.3192 50.2255 16.3535 49.9633 16.286 49.7112L16.2861 49.7113ZM18.658 42.8657C18.028 42.5595 17.4237 42.2085 16.849 41.817L14.4337 45.9995L16.2451 47.0457L18.6578 42.8657H18.658ZM37.2758 29.9392C37.2758 23.1234 31.7308 17.5783 24.915 17.5783C18.0991 17.5783 12.5541 23.1233 12.5541 29.9392C12.5541 36.755 18.0991 42.3 24.915 42.3C31.7308 42.3 37.2758 36.755 37.2758 29.9392ZM60.9097 33.1883C60.9097 32.6344 60.4591 32.1838 59.9052 32.1838H56.509V34.7899C56.509 35.3428 56.0608 35.7909 55.5079 35.7909H42.8195C42.2666 35.7909 41.8185 35.3428 41.8185 34.7899V32.1838H39.1021C38.8296 33.913 38.2472 35.5405 37.4141 37.0079V59.9829C37.4141 60.5387 37.8663 60.9909 38.4221 60.9909H59.9052C60.4591 60.9909 60.9097 60.5387 60.9097 59.9829V33.1884V33.1883ZM42.3764 42.2184H55.9473C56.5002 42.2184 56.9483 41.7703 56.9483 41.2174C56.9483 40.6645 56.5002 40.2164 55.9473 40.2164H42.3764C41.8236 40.2164 41.3755 40.6645 41.3755 41.2174C41.3755 41.7703 41.8236 42.2184 42.3764 42.2184ZM57.3398 44.8263H40.9874C40.4346 44.8263 39.9865 45.2744 39.9865 45.8273C39.9865 46.3802 40.4346 46.8283 40.9874 46.8283H57.3398C57.8927 46.8283 58.3408 46.3802 58.3408 45.8273C58.3408 45.2744 57.8927 44.8263 57.3398 44.8263ZM52.8008 49.4398H45.5265C44.9736 49.4398 44.5255 49.8879 44.5255 50.4408C44.5255 50.9937 44.9736 51.4418 45.5265 51.4418H52.8008C53.3537 51.4418 53.8018 50.9937 53.8018 50.4408C53.8018 49.8879 53.3537 49.4398 52.8008 49.4398ZM32.3011 24.3017V36.9017C32.3011 37.1815 32.1838 37.4488 31.9778 37.6384C30.6505 38.8597 29.0225 39.7178 27.2701 40.1199C27.2698 40.1199 27.2696 40.12 27.2693 40.1202C27.2691 40.1202 27.2687 40.1202 27.2685 40.1203C27.2685 40.1203 27.2683 40.1203 27.2682 40.1203C27.2682 40.1203 27.2682 40.1203 27.2681 40.1203C26.4983 40.2974 25.7067 40.3862 24.9151 40.3862C24.1235 40.3862 23.332 40.2975 22.5622 40.1204C22.5621 40.1204 22.562 40.1204 22.5617 40.1204C22.5615 40.1204 22.5613 40.1204 22.5611 40.1203H22.5607C22.5607 40.1203 22.5605 40.1202 22.5603 40.12C20.8097 39.7183 19.1808 38.8605 17.8498 37.6393C17.6432 37.4497 17.5256 37.1822 17.5256 36.9018V31.6967C17.5256 31.1438 17.9737 30.6957 18.5266 30.6957H21.7846V27.2143C21.7846 26.6614 22.2327 26.2133 22.7856 26.2133H26.0436V24.3017C26.0436 23.7488 26.4917 23.3007 27.0446 23.3007H31.3001C31.853 23.3007 32.3011 23.7488 32.3011 24.3017ZM19.5275 36.4467C20.2071 37.0093 20.9708 37.4582 21.7846 37.7828V32.6974H19.5275V36.4465V36.4467ZM26.0436 38.3092V28.2152H23.7865V38.3098C24.534 38.4094 25.2961 38.4088 26.0436 38.3092ZM30.2991 25.3027H28.0455V37.7865C28.8593 37.4618 29.6211 37.0099 30.2991 36.4474V25.3027Z" fill="#FB602F"/>
</svg>
