<svg width="64" height="64" viewBox="0 0 64 64" fill="none" xmlns="http://www.w3.org/2000/svg">
<g clip-path="url(#clip0_2924_18291)">
<path d="M62.9529 9.67825L53.9944 0.71975C53.8538 0.579 53.663 0.5 53.4641 0.5H18.9594C18.5453 0.5 18.2094 0.835875 18.2094 1.25V33.477C15.4504 33.666 12.745 34.8094 10.6406 36.9139C6.54015 41.0144 6.0789 47.3936 9.25065 52.0106L5.56427 55.6969C5.09515 55.5855 4.58077 55.7109 4.21577 56.076L1.24677 59.045C0.976148 59.3155 0.827148 59.676 0.827148 60.06C0.827148 60.444 0.976148 60.8044 1.24665 61.0749L3.25215 63.0804C3.5319 63.3601 3.89952 63.5 4.26702 63.5C4.63452 63.5 5.00227 63.36 5.2819 63.0802L8.2509 60.1113C8.61602 59.7461 8.7414 59.2318 8.6299 58.7626L12.3163 55.0765C14.3106 56.4466 16.6326 57.14 18.9593 57.1531V57.1603H62.4224C62.8365 57.1603 63.1724 56.8244 63.1724 56.4103V10.2085C63.1724 10.0096 63.0934 9.81888 62.9526 9.67825H62.9529ZM54.2141 3.06075L60.612 9.45862H54.2141V3.06075ZM4.26702 61.9741L2.35302 60.0601L5.23065 57.1824L7.14465 59.0964L4.26702 61.9741ZM7.72065 57.551L6.77602 56.6064L10.1823 53.2001C10.33 53.3654 10.4819 53.528 10.6405 53.6866C10.7991 53.8453 10.9618 53.9971 11.1269 54.1449L7.72052 57.5511L7.72065 57.551ZM11.7011 52.626C7.6619 48.5866 7.6619 42.014 11.7011 37.9745C13.7209 35.9549 16.3739 34.9451 19.0268 34.9451C21.6796 34.9451 24.3326 35.9549 26.3524 37.9745C30.3916 42.0139 30.3916 48.5865 26.3524 52.626C22.3129 56.6652 15.7405 56.6652 11.701 52.626H11.7011ZM61.6725 55.6603H24.7954C25.7338 55.1383 26.6171 54.4826 27.4133 53.6865C27.8525 53.2472 28.2495 52.7816 28.6053 52.295H33.8558C34.2699 52.295 34.6058 51.9591 34.6058 51.545V39.8935C34.6058 39.4794 34.2699 39.1435 33.8558 39.1435H29.1621C28.6799 38.3495 28.0986 37.5993 27.4133 36.9139C25.2745 34.775 22.5153 33.6276 19.7095 33.4673V2.00012H52.7141V10.2086C52.7141 10.6228 53.05 10.9586 53.4641 10.9586H61.6726V55.6604L61.6725 55.6603ZM29.9311 40.6435H33.1056V50.795H29.5378C31.1849 47.6395 31.3144 43.8939 29.9311 40.6435ZM53.1735 30.1531H47.5263C47.1121 30.1531 46.7763 30.489 46.7763 30.9031V51.545C46.7763 51.9591 47.1121 52.295 47.5263 52.295H53.1735C53.5876 52.295 53.9235 51.9591 53.9235 51.545V30.9031C53.9235 30.489 53.5876 30.1531 53.1735 30.1531ZM52.4235 50.795H48.2763V31.6531H52.4235V50.795ZM43.5146 34.5689H37.8674C37.4533 34.5689 37.1174 34.9048 37.1174 35.3189V51.545C37.1174 51.9591 37.4533 52.295 37.8674 52.295H43.5146C43.9288 52.295 44.2646 51.9591 44.2646 51.545V35.3189C44.2646 34.9048 43.9288 34.5689 43.5146 34.5689ZM42.7646 50.795H38.6174V36.0689H42.7646V50.795ZM25.2518 39.0754C23.589 37.4126 21.3784 36.4969 19.0269 36.4969C16.6754 36.4969 14.4649 37.4125 12.8021 39.0754C11.1393 40.7381 10.2236 42.9487 10.2236 45.3001C10.2236 47.6515 11.1393 49.8623 12.8021 51.525C14.5183 53.2411 16.7726 54.0993 19.0269 54.0993C21.2811 54.0993 23.5355 53.2413 25.2516 51.525C26.9145 49.8623 27.8301 47.6516 27.8301 45.3001C27.8301 42.9486 26.9145 40.7381 25.2518 39.0754ZM24.1911 50.4644C21.3436 53.3116 16.7105 53.3119 13.8628 50.4644C11.0153 47.6167 11.0153 42.9835 13.8628 40.1359C15.2423 38.7565 17.0763 37.9969 19.0269 37.9969C20.9775 37.9969 22.8116 38.7565 24.191 40.1359C27.0385 42.9835 27.0386 47.6167 24.1911 50.4644ZM28.2719 24.2113C26.7185 23.9039 25.5529 22.6635 25.5529 21.1836C25.5529 20.7695 25.8888 20.4336 26.3029 20.4336C26.717 20.4336 27.0529 20.7695 27.0529 21.1836C27.0529 22.0666 27.9361 22.7851 29.0219 22.7851C30.1076 22.7851 30.9909 22.0668 30.9909 21.1836C30.9909 20.1335 30.4306 19.9106 28.9478 19.5834C27.6639 19.2999 25.9056 18.9118 25.9056 16.7859C25.9056 15.476 26.9148 14.3741 28.2719 14.072V13.2828C28.2719 12.8686 28.6078 12.5328 29.0219 12.5328C29.436 12.5328 29.7719 12.8686 29.7719 13.2828V14.072C31.1289 14.3741 32.138 15.476 32.138 16.7859C32.138 17.2 31.8021 17.5359 31.388 17.5359C30.9739 17.5359 30.638 17.2 30.638 16.7859C30.638 16.0711 29.913 15.4896 29.0219 15.4896C28.1308 15.4896 27.4056 16.0711 27.4056 16.7859C27.4056 17.5921 27.8033 17.7945 29.2711 18.1186C30.5533 18.4016 32.4909 18.8294 32.4909 21.1836C32.4909 22.6635 31.3253 23.9039 29.7719 24.2113V24.992C29.7719 25.4061 29.436 25.742 29.0219 25.742C28.6078 25.742 28.2719 25.4061 28.2719 24.992V24.2113ZM53.459 19.0821C53.5014 19.0996 53.5416 19.121 53.5796 19.1456C53.5826 19.1476 53.5858 19.1493 53.5888 19.1511C53.63 19.1786 53.6686 19.21 53.7035 19.245C53.7035 19.245 53.7036 19.245 53.7038 19.2453C53.7038 19.2453 53.7039 19.2455 53.704 19.2456C53.7389 19.2806 53.7701 19.319 53.7976 19.3603C53.7998 19.3634 53.8014 19.3668 53.8035 19.3699C53.8279 19.4077 53.8493 19.4476 53.8666 19.4898C53.8683 19.4936 53.8694 19.4976 53.871 19.5016C53.8871 19.5426 53.9001 19.5853 53.9089 19.6294C53.9095 19.6327 53.9099 19.6363 53.9104 19.6396C53.9183 19.6829 53.923 19.7273 53.9231 19.7728V19.7768V22.2533C53.9231 22.6674 53.5873 23.0033 53.1731 23.0033C52.759 23.0033 52.4231 22.6674 52.4231 22.2533V21.5861L44.7143 29.295C44.4743 29.5351 44.1029 29.5839 43.809 29.4143L37.8288 25.9616L28.7383 35.0519C28.5919 35.1984 28.3999 35.2716 28.208 35.2716C28.0161 35.2716 27.8242 35.1984 27.6778 35.0519C27.3848 34.759 27.3848 34.2841 27.6778 33.9914L37.1751 24.4941C37.415 24.2539 37.7864 24.2051 38.0804 24.3749L44.0606 27.8275L51.3628 20.5255H50.6954C50.2813 20.5255 49.9454 20.1896 49.9454 19.7755C49.9454 19.3614 50.2813 19.0255 50.6954 19.0255H53.1734C53.2204 19.0255 53.2663 19.0304 53.3109 19.0386C53.3135 19.0391 53.3161 19.0394 53.3188 19.0399C53.3635 19.0486 53.4066 19.0619 53.4481 19.0783C53.4516 19.0796 53.4551 19.0806 53.4586 19.0821H53.459Z" fill="#FB602F"/>
</g>
<defs>
<clipPath id="clip0_2924_18291">
<rect width="64" height="64" fill="white"/>
</clipPath>
</defs>
</svg>
