<svg width="64" height="64" viewBox="0 0 64 64" fill="none" xmlns="http://www.w3.org/2000/svg">
<g clip-path="url(#clip0_2926_18637)">
<path d="M56 0H8C5.87903 0.00247417 3.84563 0.846124 2.34588 2.34588C0.846124 3.84563 0.00247417 5.87903 0 8V56C0.00247417 58.121 0.846124 60.1544 2.34588 61.6541C3.84563 63.1539 5.87903 63.9975 8 64H56C58.121 63.9975 60.1544 63.1539 61.6541 61.6541C63.1539 60.1544 63.9975 58.121 64 56V8C63.9975 5.87903 63.1539 3.84563 61.6541 2.34588C60.1544 0.846124 58.121 0.00247417 56 0ZM8 2.28571H56C57.515 2.28749 58.9674 2.8901 60.0386 3.96135C61.1099 5.03261 61.7125 6.48502 61.7143 8V17.1429H41.6797C38.4975 17.1414 35.3592 16.4006 32.5123 14.9788C29.3474 13.3975 25.8583 12.5733 22.3203 12.5714H2.28571V8C2.28749 6.48502 2.8901 5.03261 3.96135 3.96135C5.03261 2.8901 6.48502 2.28749 8 2.28571ZM56 61.7143H8C6.48502 61.7125 5.03261 61.1099 3.96135 60.0386C2.8901 58.9674 2.28749 57.515 2.28571 56V14.8571H22.3203C25.5025 14.8586 28.6408 15.5994 31.4877 17.0212C34.6526 18.6025 38.1417 19.4267 41.6797 19.4286H61.7143V56C61.7125 57.515 61.1099 58.9674 60.0386 60.0386C58.9674 61.1099 57.515 61.7125 56 61.7143Z" fill="#FB602F"/>
<path d="M38.7357 13.2645C39.6704 13.254 40.5632 12.8754 41.2205 12.2107C41.8777 11.546 42.2463 10.649 42.2463 9.71423C42.2463 8.77949 41.8777 7.88246 41.2204 7.21781C40.5631 6.55316 39.6703 6.17452 38.7356 6.16406C37.8009 6.17455 36.9081 6.55321 36.2508 7.21788C35.5936 7.88255 35.225 8.77959 35.225 9.71434C35.225 10.6491 35.5936 11.5461 36.2509 12.2108C36.9082 12.8754 37.801 13.254 38.7357 13.2645ZM38.7357 8.44976C39.0679 8.45455 39.3849 8.58989 39.6181 8.82651C39.8514 9.06313 39.9821 9.38203 39.9821 9.71427C39.9821 10.0465 39.8514 10.3654 39.6181 10.602C39.3849 10.8387 39.0679 10.974 38.7357 10.9788C38.4035 10.974 38.0865 10.8387 37.8533 10.602C37.62 10.3654 37.4893 10.0465 37.4893 9.71427C37.4893 9.38203 37.62 9.06313 37.8533 8.82651C38.0865 8.58989 38.4035 8.45455 38.7357 8.44976Z" fill="#FB602F"/>
<path d="M47.8784 13.2645C48.8131 13.254 49.7059 12.8754 50.3632 12.2107C51.0204 11.546 51.389 10.649 51.389 9.71423C51.389 8.77949 51.0204 7.88246 50.3631 7.21781C49.7058 6.55316 48.813 6.17452 47.8783 6.16406C46.9436 6.17455 46.0508 6.55321 45.3935 7.21788C44.7363 7.88255 44.3677 8.77959 44.3677 9.71434C44.3677 10.6491 44.7363 11.5461 45.3936 12.2108C46.0509 12.8754 46.9437 13.254 47.8784 13.2645ZM47.8784 8.44976C48.2106 8.45455 48.5276 8.58989 48.7608 8.82651C48.9941 9.06313 49.1248 9.38203 49.1248 9.71427C49.1248 10.0465 48.9941 10.3654 48.7608 10.602C48.5276 10.8387 48.2106 10.974 47.8784 10.9788C47.5462 10.974 47.2292 10.8387 46.996 10.602C46.7627 10.3654 46.632 10.0465 46.632 9.71427C46.632 9.38203 46.7627 9.06313 46.996 8.82651C47.2292 8.58989 47.5462 8.45455 47.8784 8.44976Z" fill="#FB602F"/>
<path d="M57.0211 13.2645C57.9558 13.254 58.8486 12.8754 59.5059 12.2107C60.1631 11.546 60.5317 10.649 60.5317 9.71423C60.5317 8.77949 60.1631 7.88246 59.5058 7.21781C58.8485 6.55316 57.9557 6.17452 57.021 6.16406C56.0863 6.17455 55.1935 6.55321 54.5362 7.21788C53.879 7.88255 53.5104 8.77959 53.5104 9.71434C53.5104 10.6491 53.879 11.5461 54.5363 12.2108C55.1936 12.8754 56.0864 13.254 57.0211 13.2645ZM57.0211 8.44976C57.3533 8.45455 57.6703 8.58989 57.9035 8.82651C58.1368 9.06313 58.2675 9.38203 58.2675 9.71427C58.2675 10.0465 58.1368 10.3654 57.9035 10.602C57.6703 10.8387 57.3533 10.974 57.0211 10.9788C56.6889 10.974 56.3719 10.8387 56.1387 10.602C55.9054 10.3654 55.7747 10.0465 55.7747 9.71427C55.7747 9.38203 55.9054 9.06313 56.1387 8.82651C56.3719 8.58989 56.6889 8.45455 57.0211 8.44976Z" fill="#FB602F"/>
<path d="M15.2679 32.5709C16.0254 32.5717 16.7516 32.8729 17.2873 33.4086C17.8229 33.9442 18.1242 34.6705 18.125 35.428C18.1307 35.7274 18.2536 36.0125 18.4673 36.2222C18.681 36.4319 18.9685 36.5494 19.2679 36.5494C19.5673 36.5494 19.8547 36.4319 20.0684 36.2222C20.2821 36.0125 20.405 35.7273 20.4107 35.4279C20.4107 34.4108 20.1091 33.4165 19.5439 32.5707C18.9788 31.725 18.1756 31.0658 17.2359 30.6766C16.2961 30.2874 15.2621 30.1855 14.2645 30.384C13.2668 30.5824 12.3505 31.0723 11.6312 31.7915C10.912 32.5108 10.4222 33.4272 10.2238 34.4248C10.0254 35.4224 10.1272 36.4565 10.5165 37.3962C10.9058 38.3359 11.565 39.1391 12.4107 39.7042C13.2565 40.2693 14.2508 40.5709 15.268 40.5709C15.833 40.5709 16.3854 40.7385 16.8553 41.0524C17.3251 41.3664 17.6913 41.8126 17.9075 42.3347C18.1238 42.8568 18.1803 43.4313 18.0701 43.9855C17.9598 44.5397 17.6877 45.0488 17.2881 45.4484C16.8885 45.8479 16.3795 46.12 15.8252 46.2303C15.271 46.3405 14.6965 46.2839 14.1745 46.0677C13.6524 45.8514 13.2062 45.4852 12.8922 45.0154C12.5783 44.5455 12.4107 43.9931 12.4107 43.428C12.4049 43.1288 12.2819 42.8438 12.0682 42.6342C11.8545 42.4246 11.5671 42.3072 11.2678 42.3073C10.9685 42.3073 10.6812 42.4247 10.4675 42.6342C10.2538 42.8438 10.1308 43.1288 10.125 43.4281C10.125 44.4453 10.4267 45.4396 10.9918 46.2853C11.5569 47.131 12.3601 47.7902 13.2998 48.1794C14.2396 48.5687 15.2736 48.6705 16.2713 48.472C17.2689 48.2736 18.1852 47.7838 18.9045 47.0645C19.6237 46.3452 20.1135 45.4289 20.3119 44.4312C20.5103 43.4336 20.4085 42.3996 20.0192 41.4598C19.6299 40.5201 18.9707 39.7169 18.125 39.1518C17.2792 38.5867 16.2849 38.2851 15.2677 38.2852C14.5156 38.2766 13.7971 37.9719 13.2683 37.437C12.7394 36.902 12.4428 36.1802 12.4428 35.428C12.4428 34.6758 12.7394 33.9539 13.2683 33.419C13.7972 32.8841 14.5157 32.5794 15.2679 32.5709Z" fill="#FB602F"/>
<path d="M27.8973 32.5709H34.5569C34.86 32.5709 35.1507 32.4505 35.3651 32.2361C35.5794 32.0218 35.6998 31.7311 35.6998 31.428C35.6998 31.1249 35.5794 30.8342 35.3651 30.6199C35.1507 30.4056 34.86 30.2852 34.5569 30.2852H27.8973C27.2408 30.2857 26.6113 30.5467 26.1469 31.0109C25.6826 31.4751 25.4215 32.1046 25.4208 32.7612V46.0949C25.4215 46.7514 25.6826 47.3809 26.1469 47.8451C26.6113 48.3093 27.2408 48.5703 27.8973 48.5709H34.5569C34.8563 48.5652 35.1415 48.4423 35.3511 48.2286C35.5608 48.0148 35.6783 47.7274 35.6783 47.428C35.6783 47.1286 35.5608 46.8411 35.3511 46.6274C35.1414 46.4137 34.8562 46.2908 34.5569 46.2852H27.8973C27.8468 46.2851 27.7984 46.2651 27.7626 46.2294C27.7269 46.1938 27.7067 46.1454 27.7065 46.0949V40.5709H32.644C32.9432 40.565 33.2283 40.442 33.4378 40.2283C33.6474 40.0146 33.7648 39.7273 33.7648 39.428C33.7647 39.1287 33.6473 38.8413 33.4378 38.6276C33.2282 38.4139 32.9432 38.291 32.6439 38.2852H27.7065V32.7612C27.7067 32.7106 27.7269 32.6623 27.7626 32.6266C27.7984 32.591 27.8468 32.5709 27.8973 32.5709Z" fill="#FB602F"/>
<path d="M53.0013 30.3165C52.7524 30.2571 52.4907 30.2826 52.2579 30.3889C52.0252 30.4953 51.8347 30.6765 51.7167 30.9036L47.4856 39.1162C47.4672 39.1516 47.4394 39.1813 47.4053 39.2021C47.3712 39.2228 47.3321 39.2338 47.2922 39.2339C47.2522 39.2339 47.2131 39.223 47.1789 39.2024C47.1447 39.1817 47.1169 39.1521 47.0983 39.1167L42.8673 30.9036C42.7465 30.6808 42.5554 30.5041 42.3238 30.4012C42.0921 30.2983 41.8329 30.2749 41.5866 30.3346C41.3403 30.3944 41.1206 30.5339 40.9619 30.7315C40.8031 30.9291 40.7141 31.1737 40.7089 31.4271V47.4271C40.7089 47.7302 40.8293 48.0208 41.0436 48.2352C41.2579 48.4495 41.5486 48.5699 41.8517 48.5699C42.1548 48.5699 42.4455 48.4495 42.6598 48.2352C42.8742 48.0208 42.9946 47.7302 42.9946 47.4271V36.1413L45.0671 40.1642C45.2777 40.5727 45.5968 40.9154 45.9893 41.1546C46.3818 41.3938 46.8325 41.5203 47.2922 41.5202C47.7518 41.5201 48.2026 41.3935 48.595 41.1542C48.9874 40.9149 49.3064 40.5722 49.5169 40.1636L51.5894 36.1413V47.427C51.5894 47.7301 51.7098 48.0208 51.9241 48.2352C52.1385 48.4495 52.4292 48.5699 52.7323 48.5699C53.0354 48.5699 53.3261 48.4495 53.5404 48.2352C53.7547 48.0208 53.8751 47.7301 53.8751 47.427V31.427C53.8753 31.1707 53.7891 30.9218 53.6306 30.7204C53.4721 30.5189 53.2504 30.3767 53.0013 30.3165Z" fill="#FB602F"/>
</g>
<defs>
<clipPath id="clip0_2926_18637">
<rect width="64" height="64" fill="white"/>
</clipPath>
</defs>
</svg>
