<svg width="64" height="64" viewBox="0 0 64 64" fill="none" xmlns="http://www.w3.org/2000/svg">
<g clip-path="url(#clip0_2926_18488)">
<path d="M49.2 49.0664H47.0667V53.3331H27.8667V55.4664H47.0667V58.6664C47.0667 60.4336 45.6339 61.8664 43.8667 61.8664H20.4C19.2568 61.8648 18.2005 61.2555 17.6266 60.2664L15.7792 61.3331C16.7354 62.9805 18.4953 63.9961 20.4 63.9997H43.8667C46.8109 63.9961 49.1964 61.6107 49.2 58.6664V49.0664Z" fill="#FB602F"/>
<path d="M31.0667 57.5996H33.2V59.7329H31.0667V57.5996Z" fill="#FB602F"/>
<path d="M37.4667 28.8V26.6667H34.2125C33.6808 19.8599 28.2735 14.4526 21.4667 13.9208V10.6667H19.3334V13.9208C18.6146 13.976 17.9016 14.0875 17.2 14.2536V8.53333H34.2667V6.4H17.2V5.33333C17.2 3.56615 18.6329 2.13333 20.4 2.13333H43.8667C44.6459 2.13333 45.3985 2.41771 45.9828 2.93333L47.3943 1.33333C46.4203 0.473438 45.1657 -0.000520404 43.8667 4.28802e-07H20.4C17.4558 0.00364627 15.0704 2.38906 15.0667 5.33333V14.9333C10.2636 16.9453 6.99014 21.475 6.58754 26.6667H3.33337V28.8H6.59014C7.09327 35.6198 12.5136 41.0437 19.3334 41.551V44.8H21.4667V41.551C28.2865 41.0437 33.7068 35.6198 34.2099 28.8H37.4667ZM19.3334 37.3333V39.4177C17.8454 39.2839 16.3974 38.8656 15.0667 38.1865V36.2667C15.0667 33.3214 17.4547 30.9333 20.4 30.9333C23.3454 30.9333 25.7334 33.3214 25.7334 36.2667V38.1865C24.4032 38.8667 22.9547 39.2854 21.4667 39.4208V37.3333H19.3334ZM17.2 25.6C17.2 23.8328 18.6329 22.4 20.4 22.4C22.1672 22.4 23.6 23.8328 23.6 25.6C23.6 27.3672 22.1672 28.8 20.4 28.8C18.6329 28.8 17.2 27.3672 17.2 25.6ZM28.2219 36.4802C28.1068 36.5865 27.9839 36.6719 27.8667 36.7703V36.2667C27.8641 33.4802 26.3099 30.9271 23.836 29.6448C25.5495 28.2016 26.1782 25.8411 25.4099 23.737C24.6417 21.6323 22.6401 20.2323 20.4 20.2323C18.1599 20.2323 16.1584 21.6323 15.3901 23.737C14.6219 25.8411 15.2506 28.2016 16.9641 29.6448C14.4901 30.9271 12.936 33.4802 12.9334 36.2667V36.7755C12.8151 36.6786 12.6922 36.5875 12.5782 36.4854C10.3677 34.5031 8.99014 31.7573 8.72348 28.8H10.8V26.6667H8.72087C9.24223 21.0354 13.7021 16.5755 19.3334 16.0542V18.1333H21.4667V16.0542C27.098 16.5755 31.5579 21.0354 32.0792 26.6667H30V28.8H32.0766C31.8099 31.7573 30.4323 34.5031 28.2219 36.4854V36.4802Z" fill="#FB602F"/>
<path d="M60.9334 19.2009C61.5224 19.2009 62 18.7233 62 18.1342V5.33424C62 4.74518 61.5224 4.26758 60.9334 4.26758H37.4667C36.8776 4.26758 36.4 4.74518 36.4 5.33424V18.1342C36.4 18.7233 36.8776 19.2009 37.4667 19.2009H60.9334ZM38.5334 6.40091H59.8667V17.0676H38.5334V6.40091Z" fill="#FB602F"/>
<path d="M40.6666 8.5332H44.9333V10.6665H40.6666V8.5332Z" fill="#FB602F"/>
<path d="M47.0667 8.5332H57.7333V10.6665H47.0667V8.5332Z" fill="#FB602F"/>
<path d="M40.6666 12.8008H57.7333V14.9341H40.6666V12.8008Z" fill="#FB602F"/>
<path d="M60.7449 21.334C59.9188 21.3355 59.1219 21.6387 58.5047 22.1871L49.2001 30.3902V21.334H47.0667V32.0007H47.3751L41.3068 37.3553C37.3589 37.5814 34.2714 40.846 34.2667 44.8007V46.6824C34.2709 47.7408 33.6725 48.71 32.7235 49.1793C32.2803 49.4001 32.0475 49.897 32.161 50.3788C32.2745 50.8605 32.7047 51.2012 33.2001 51.2007H40.6667C44.6214 51.196 47.886 48.1085 48.112 44.1605L63.2865 26.9637C64.1672 25.9647 64.3813 24.5423 63.8329 23.3283C63.285 22.1142 62.0766 21.334 60.7449 21.334ZM40.6667 49.0673H35.7886C36.1912 48.3371 36.4016 47.5163 36.4001 46.6824V44.8007C36.4037 42.022 38.537 39.71 41.3068 39.4845L45.9829 44.1605C45.7579 46.9303 43.4454 49.0642 40.6667 49.0673ZM61.6865 25.5527L47.0188 42.1767L43.2907 38.4496L59.9146 23.7809C60.412 23.3444 61.1626 23.3689 61.6308 23.8366C62.0985 24.3048 62.123 25.0553 61.6865 25.5527Z" fill="#FB602F"/>
<path d="M1.19997 58.666H24.6666C25.2557 58.666 25.7333 58.1884 25.7333 57.5993V49.066C25.7333 48.477 25.2557 47.9993 24.6666 47.9993H17.2V42.666H15.0666V47.9993H1.19997C0.610905 47.9993 0.133301 48.477 0.133301 49.066V57.5993C0.133301 58.1884 0.610905 58.666 1.19997 58.666ZM2.26663 50.1327H23.6V56.5327H2.26663V50.1327Z" fill="#FB602F"/>
<path d="M4.40002 52.2676H9.73336V54.4009H4.40002V52.2676Z" fill="#FB602F"/>
<path d="M11.8667 52.2676H21.4667V54.4009H11.8667V52.2676Z" fill="#FB602F"/>
<path d="M1.19997 14.9342H11.8666C12.4557 14.9342 12.9333 14.4566 12.9333 13.8676V5.33424C12.9333 4.74518 12.4557 4.26758 11.8666 4.26758H1.19997C0.610905 4.26758 0.133301 4.74518 0.133301 5.33424V13.8676C0.133301 14.4566 0.610905 14.9342 1.19997 14.9342ZM2.26663 6.40091H10.8V12.8009H2.26663V6.40091Z" fill="#FB602F"/>
<path d="M4.40002 8.5332H8.66669V10.6665H4.40002V8.5332Z" fill="#FB602F"/>
</g>
<defs>
<clipPath id="clip0_2926_18488">
<rect width="64" height="64" fill="white"/>
</clipPath>
</defs>
</svg>
