<svg width="64" height="64" viewBox="0 0 64 64" fill="none" xmlns="http://www.w3.org/2000/svg">
<path d="M32 27C32.5523 27 33 26.5523 33 26C33 25.4477 32.5523 25 32 25C31.4477 25 31 25.4477 31 26C31 26.5523 31.4477 27 32 27Z" fill="#FB602F"/>
<path d="M32 17C32.5523 17 33 16.5523 33 16C33 15.4477 32.5523 15 32 15C31.4477 15 31 15.4477 31 16C31 16.5523 31.4477 17 32 17Z" fill="#FB602F"/>
<path d="M54 42H49V39C49 37.35 47.65 36 46 36H33V31.98C39.62 31.82 46 30.12 46 27V7C46 3.72 38.96 2 32 2C25.04 2 18 3.72 18 7V27C18 30.12 24.38 31.83 31 31.98V36H18C16.35 36 15 37.35 15 39V42H10C8.35 42 7 43.35 7 45V59C7 60.65 8.35 62 10 62H24C25.65 62 27 60.65 27 59V45C27 43.35 25.65 42 24 42H17V39C17 38.45 17.45 38 18 38H46C46.55 38 47 38.45 47 39V42H40C38.35 42 37 43.35 37 45V59C37 60.65 38.35 62 40 62H54C55.65 62 57 60.65 57 59V45C57 43.35 55.65 42 54 42ZM25 45V59C25 59.55 24.55 60 24 60H10C9.45 60 9 59.55 9 59V45C9 44.45 9.45 44 10 44H24C24.55 44 25 44.45 25 45ZM20 9.7C22.58 11.22 27.31 12 32 12C36.69 12 41.42 11.22 44 9.7V17C44 18.06 39.44 20 32 20C24.56 20 20 18.06 20 17V9.7ZM32 4C39.44 4 44 5.94 44 7C44 8.06 39.44 10 32 10C24.56 10 20 8.06 20 7C20 5.94 24.56 4 32 4ZM20 27V19.7C22.58 21.22 27.31 22 32 22C36.69 22 41.42 21.22 44 19.7V27C44 28.06 39.44 30 32 30C24.56 30 20 28.06 20 27ZM55 59C55 59.55 54.55 60 54 60H40C39.45 60 39 59.55 39 59V45C39 44.45 39.45 44 40 44H54C54.55 44 55 44.45 55 45V59Z" fill="#FB602F"/>
<path d="M43 49H47C47.55 49 48 48.55 48 48C48 47.45 47.55 47 47 47H43C42.45 47 42 47.45 42 48C42 48.55 42.45 49 43 49Z" fill="#FB602F"/>
<path d="M51 51H43C42.45 51 42 51.45 42 52C42 52.55 42.45 53 43 53H51C51.55 53 52 52.55 52 52C52 51.45 51.55 51 51 51Z" fill="#FB602F"/>
<path d="M51 55H43C42.45 55 42 55.45 42 56C42 56.55 42.45 57 43 57H51C51.55 57 52 56.55 52 56C52 55.45 51.55 55 51 55Z" fill="#FB602F"/>
<path d="M12 48C12 48.55 12.45 49 13 49H17C17.55 49 18 48.55 18 48C18 47.45 17.55 47 17 47H13C12.45 47 12 47.45 12 48Z" fill="#FB602F"/>
<path d="M12 52C12 52.55 12.45 53 13 53H21C21.55 53 22 52.55 22 52C22 51.45 21.55 51 21 51H13C12.45 51 12 51.45 12 52Z" fill="#FB602F"/>
<path d="M21 55H13C12.45 55 12 55.45 12 56C12 56.55 12.45 57 13 57H21C21.55 57 22 56.55 22 56C22 55.45 21.55 55 21 55Z" fill="#FB602F"/>
</svg>
