<svg width="64" height="64" viewBox="0 0 64 64" fill="none" xmlns="http://www.w3.org/2000/svg">
<path d="M59 2H5C3.3457 2 2 3.3457 2 5V43.9702C2 45.6245 3.3457 46.9702 5 46.9702H24.6436V44.9702H5C4.44873 44.9702 4 44.5215 4 43.9702V16.02H16.8862V14.02H4V5C4 4.44873 4.44873 4 5 4H59C59.5513 4 60 4.44873 60 5V14.02H20.3071V16.02H60V32.4639H62V5C62 3.3457 60.6543 2 59 2Z" fill="#FB602F"/>
<path d="M57.3076 38.5117L60.0557 35.7632L53.8813 29.5884L51.1328 32.3369C50.5078 32.021 49.8574 31.7524 49.188 31.5332V27.6445H40.4556V31.5332C39.7861 31.7524 39.1357 32.021 38.5107 32.3369L35.7622 29.5884L29.5879 35.7632L32.3359 38.5117C32.02 39.1367 31.7515 39.7871 31.5322 40.4565H27.6436V49.189H31.5322C31.7515 49.8584 32.02 50.5088 32.3359 51.1338L29.5879 53.8818L35.7622 60.0566L38.5107 57.3086C39.1357 57.6245 39.7861 57.893 40.4556 58.1123V62.001H49.188V58.1123C49.8574 57.893 50.5078 57.6245 51.1328 57.3086L53.8813 60.0566L60.0557 53.8818L57.3076 51.1338C57.6235 50.5088 57.8921 49.8584 58.1113 49.189H62V40.4565H58.1113C57.8921 39.7871 57.6235 39.1367 57.3076 38.5117ZM60 47.189H56.5981L56.3999 47.9307C56.1279 48.9453 55.727 49.9155 55.208 50.8135L54.8237 51.478L57.2275 53.8818L53.8813 57.2285L51.477 54.8247L50.8125 55.209C49.9145 55.728 48.9443 56.1289 47.9297 56.4009L47.188 56.5991V60.001H42.4556V56.5991L41.7139 56.4009C40.6992 56.1289 39.729 55.728 38.831 55.209L38.1665 54.8247L35.7622 57.2285L32.416 53.8818L34.8198 51.478L34.4355 50.8135C33.9165 49.9155 33.5156 48.9453 33.2436 47.9307L33.0454 47.189H29.6435V42.4565H33.0454L33.2436 41.7148C33.5156 40.7002 33.9165 39.73 34.4355 38.832L34.8198 38.1675L32.416 35.7632L35.7622 32.4165L38.1665 34.8208L38.831 34.4365C39.729 33.9175 40.6992 33.5166 41.7139 33.2446L42.4556 33.0464V29.6445H47.188V33.0464L47.9297 33.2446C48.9443 33.5166 49.9145 33.9175 50.8125 34.4365L51.477 34.8208L53.8813 32.4165L57.2275 35.7632L54.8237 38.1675L55.208 38.832C55.727 39.73 56.1279 40.7002 56.3999 41.7148L56.5981 42.4565H60V47.189Z" fill="#FB602F"/>
<path d="M44.8218 35.8223C39.8594 35.8223 35.8218 39.8599 35.8218 44.8223C35.8218 49.7847 39.8594 53.8223 44.8218 53.8223C49.7842 53.8223 53.8218 49.7847 53.8218 44.8223C53.8218 39.8599 49.7842 35.8223 44.8218 35.8223ZM44.8218 51.8223C40.9619 51.8223 37.8218 48.6821 37.8218 44.8223C37.8218 40.9624 40.9619 37.8223 44.8218 37.8223C48.6816 37.8223 51.8218 40.9624 51.8218 44.8223C51.8218 48.6821 48.6816 51.8223 44.8218 51.8223Z" fill="#FB602F"/>
<path d="M12.8564 12.0098V6.00977H6.85645V12.0098H12.8564ZM8.85645 8.00977H10.8564V10.0098H8.85645V8.00977Z" fill="#FB602F"/>
<path d="M21.8862 6.00977H15.8862V12.0098H21.8862V6.00977ZM19.8862 10.0098H17.8862V8.00977H19.8862V10.0098Z" fill="#FB602F"/>
<path d="M34.7773 6.00977V12.0098H57.1436V6.00977H34.7773ZM55.1436 10.0098H36.7773V8.00977H55.1436V10.0098Z" fill="#FB602F"/>
<path d="M13.314 25.459L8.27783 30.4951L13.314 35.5313L14.728 34.1172L11.106 30.4951L14.728 26.8731L13.314 25.459Z" fill="#FB602F"/>
<path d="M22.5796 35.5313L27.6157 30.4951L22.5796 25.459L21.1655 26.8731L24.7876 30.4951L21.1655 34.1172L22.5796 35.5313Z" fill="#FB602F"/>
<path d="M15.9651 36.6641L17.9643 24.0028L19.9403 24.3148L17.9411 36.9761L15.9651 36.6641Z" fill="#FB602F"/>
</svg>
