<svg width="64" height="64" viewBox="0 0 64 64" fill="none" xmlns="http://www.w3.org/2000/svg">
<g clip-path="url(#clip0_2926_18580)">
<path d="M58.6666 0H5.33337C2.38925 0.0035 0.0035 2.38925 0 5.33337V58.6668C0.0035 61.6108 2.38925 63.9965 5.33337 64H58.6668C61.6108 63.9965 63.9965 61.6108 64.0001 58.6666V5.33337C63.9965 2.38925 61.6108 0.0035 58.6666 0ZM2.13337 6.4H27.7334C28.3225 6.4 28.8 6.87763 28.8 7.46663V9.6C28.8 11.3673 30.2327 12.8 32 12.8H61.8666V14.9334H2.13337V6.4ZM5.33337 2.13337H58.6668C60.434 2.13337 61.8667 3.56612 61.8667 5.33337V10.6667H32C31.4109 10.6667 30.9334 10.1892 30.9334 9.60013V7.46663C30.9334 5.69938 29.5006 4.26662 27.7334 4.26662H2.32962C2.78 2.99275 3.98212 2.13888 5.33337 2.13337ZM58.6666 61.8666H5.33337C3.56612 61.8666 2.13337 60.4339 2.13337 58.6666V17.0666H61.8667V58.6666C61.8666 60.434 60.434 61.8666 58.6666 61.8666Z" fill="#FB602F"/>
<path d="M18.1334 9.59961H6.4C5.81087 9.59961 5.33337 10.0772 5.33337 10.6662C5.33337 11.2552 5.811 11.7329 6.4 11.7329H18.1334C18.7225 11.7329 19.2 11.2552 19.2 10.6662C19.2 10.0772 18.7224 9.59961 18.1334 9.59961Z" fill="#FB602F"/>
<path d="M26.3541 8.84548C25.9376 8.42911 25.2624 8.42911 24.8459 8.84548L24.5334 9.15798L24.2209 8.84548C23.8024 8.44123 23.137 8.44698 22.7256 8.85848C22.3141 9.26998 22.3084 9.93523 22.7126 10.3537L23.0251 10.6662L22.7126 10.9787C22.4354 11.2466 22.3241 11.6431 22.4218 12.0161C22.5194 12.3891 22.8106 12.6802 23.1835 12.7779C23.5565 12.8755 23.953 12.7642 24.2209 12.487L24.5334 12.1745L24.8459 12.487C25.2644 12.8912 25.9298 12.8855 26.3411 12.474C26.7526 12.0625 26.7584 11.3972 26.3541 10.9787L26.0416 10.6662L26.3541 10.3537C26.7705 9.93723 26.7705 9.26198 26.3541 8.84548Z" fill="#FB602F"/>
<path d="M56.5334 7.46723C57.1225 7.46723 57.6 6.98969 57.6 6.40061C57.6 5.81153 57.1225 5.33398 56.5334 5.33398C55.9443 5.33398 55.4668 5.81153 55.4668 6.40061C55.4668 6.98969 55.9443 7.46723 56.5334 7.46723Z" fill="#FB602F"/>
<path d="M52.2666 7.46723C52.8557 7.46723 53.3332 6.98969 53.3332 6.40061C53.3332 5.81153 52.8557 5.33398 52.2666 5.33398C51.6775 5.33398 51.2 5.81153 51.2 6.40061C51.2 6.98969 51.6775 7.46723 52.2666 7.46723Z" fill="#FB602F"/>
<path d="M48 7.46723C48.5891 7.46723 49.0666 6.98969 49.0666 6.40061C49.0666 5.81153 48.5891 5.33398 48 5.33398C47.4109 5.33398 46.9333 5.81153 46.9333 6.40061C46.9333 6.98969 47.4109 7.46723 48 7.46723Z" fill="#FB602F"/>
<path d="M38.8266 38.7135L38.8191 38.7072L39.5433 37.9818C42.518 38.9909 45.7978 38.4852 48.3305 36.627C50.8631 34.7689 52.3298 31.792 52.2601 28.6517C52.2458 27.8368 51.74 27.1117 50.9801 26.817C50.2148 26.5105 49.3407 26.6893 48.7572 27.2714L45.281 30.7477C45.0388 30.9852 44.701 31.098 44.3647 31.0538L41.6981 30.673C41.2237 30.6068 40.8516 30.2325 40.7882 29.7578L40.4096 27.106C40.3626 26.7683 40.4748 26.4279 40.7136 26.1844L44.191 22.7082C44.7747 22.1242 44.9536 21.248 44.6453 20.482C44.3553 19.7234 43.6345 19.2163 42.8225 19.1999C39.6803 19.1264 36.7001 20.5914 34.8392 23.1243C32.9783 25.6572 32.4712 28.939 33.4806 31.9155L31.2406 34.1555L23.8305 26.7443L23.2971 25.0377C23.1493 24.5754 22.8483 24.1773 22.4437 23.9092L18.9152 21.5625C18.059 21.0129 16.9355 21.1337 16.2155 21.8527L14.3903 23.6799C13.6712 24.404 13.554 25.5315 14.1087 26.3882L16.4553 29.9199C16.7252 30.3204 17.1231 30.6175 17.5838 30.7625L19.2841 31.2959L26.6953 38.706L24.4553 40.946C21.4771 39.9332 18.1918 40.4394 15.6567 42.302C13.1216 44.1647 11.6566 47.1484 11.7332 50.2933C11.7526 51.1014 12.2582 51.8178 13.0132 52.1067C13.7798 52.4148 14.6563 52.2355 15.2405 51.6512L18.7167 48.1749C18.9598 47.9392 19.2971 47.8269 19.633 47.8698L22.2996 48.2505C22.774 48.3168 23.1461 48.691 23.2095 49.1658L23.5871 51.8154C23.6348 52.1538 23.5225 52.4952 23.2831 52.7392L19.8068 56.2154C19.2246 56.7984 19.0458 57.6724 19.3525 58.4373C19.6486 59.1983 20.376 59.7043 21.1925 59.7173H21.3962C24.4975 59.7165 27.4085 58.2219 29.2165 55.7022C31.0243 53.1824 31.5078 49.946 30.5152 47.0079L31.2406 46.2825L43.7408 58.7839C44.3388 59.3937 45.1577 59.736 46.0117 59.7333C46.8673 59.7333 47.6878 59.3938 48.2933 58.7893L51.3216 55.7599H51.327C51.9302 55.154 52.2682 54.3333 52.2667 53.4783C52.2697 52.6267 51.929 51.8098 51.3216 51.2127L38.8266 38.7135ZM35.4783 32.9397C35.787 32.6319 35.8773 32.1673 35.7066 31.7663C34.7228 29.46 34.9578 26.8145 36.3326 24.7177C37.7073 22.6208 40.0398 21.3505 42.5471 21.3332L39.2042 24.676C38.4935 25.3934 38.1575 26.4009 38.2955 27.4014L38.6741 30.052C38.8693 31.4707 39.9833 32.5868 41.4016 32.7848L44.0682 33.1655C45.0665 33.2992 46.0703 32.9632 46.7871 32.2557L50.129 28.8573C50.1321 31.3754 48.8701 33.7267 46.7698 35.1157C44.6696 36.5047 42.012 36.7459 39.696 35.7575C39.2952 35.5865 38.8306 35.6764 38.5226 35.9848L36.7252 37.781C36.6687 37.781 36.6186 37.765 36.5588 37.765H36.5492C36.071 37.7673 35.5993 37.8765 35.169 38.085L32.7466 35.6669L35.4783 32.9397ZM20.1663 29.3333L18.2207 28.7274L15.8996 25.186L17.746 23.3482L21.266 25.6778L21.874 27.6287C21.9258 27.7935 22.0165 27.9435 22.1385 28.066L33.523 39.458L31.9912 40.9898L20.6035 29.601C20.4821 29.4772 20.332 29.3853 20.1663 29.3333ZM28.2912 47.1552C29.2756 49.462 29.0406 52.1085 27.665 54.2058C26.2893 56.303 23.9556 57.573 21.4475 57.5893L24.7893 54.2474C25.4998 53.5294 25.8361 52.5218 25.6992 51.521L25.3206 48.8714C25.1257 47.4524 24.0117 46.3358 22.5931 46.1375L19.9265 45.7568C18.9276 45.6207 17.9223 45.9569 17.2065 46.6667L13.8667 50.0672C13.8651 47.5492 15.1282 45.1988 17.2291 43.8107C19.3298 42.4225 21.9873 42.1823 24.3031 43.1712C24.7041 43.3419 25.1687 43.2515 25.4765 42.9429L28.2007 40.2133L30.6221 42.6347C30.4127 43.067 30.3033 43.5409 30.3021 44.0213C30.3021 44.0778 30.316 44.1279 30.3192 44.1867L28.523 45.9829C28.2118 46.2905 28.1201 46.7569 28.2915 47.1594V47.1552H28.2912ZM49.8133 54.2548L46.7905 57.2799C46.3647 57.6982 45.6831 57.7005 45.2545 57.2853L32.7466 44.7722C32.5445 44.576 32.4292 44.3072 32.4266 44.0255C32.4252 43.7349 32.5405 43.456 32.7466 43.2512L35.776 40.2229C35.9796 40.0175 36.257 39.9023 36.5461 39.9029C36.8315 39.9025 37.1048 40.018 37.3035 40.2229L49.8187 52.7264C50.0227 52.9235 50.1381 53.1948 50.1387 53.4784C50.1375 53.77 50.0205 54.0494 49.8133 54.2548Z" fill="#FB602F"/>
<path d="M38.8266 44.7821C38.4092 44.3645 37.7322 44.3643 37.3146 44.7816C36.897 45.199 36.8967 45.876 37.3141 46.2936L43.7418 52.7193C44.0097 52.9965 44.4062 53.1077 44.7792 53.0101C45.1521 52.9125 45.4433 52.6212 45.541 52.2484C45.6386 51.8755 45.5273 51.4789 45.2501 51.211L38.8266 44.7821Z" fill="#FB602F"/>
</g>
<defs>
<clipPath id="clip0_2926_18580">
<rect width="64" height="64" fill="white"/>
</clipPath>
</defs>
</svg>
