<svg width="64" height="64" viewBox="0 0 64 64" fill="none" xmlns="http://www.w3.org/2000/svg">
<g clip-path="url(#clip0_2926_18593)">
<path d="M58.6667 0H5.33333C3.91937 0.00169371 2.5638 0.564141 1.56397 1.56397C0.564141 2.5638 0.00169371 3.91937 0 5.33333L0 48C0.00169371 49.414 0.564141 50.7695 1.56397 51.7694C2.5638 52.7692 3.91937 53.3316 5.33333 53.3333H22.4V56.5333C21.2684 56.5333 20.1832 56.9829 19.383 57.783C18.5829 58.5832 18.1333 59.6684 18.1333 60.8V61.8667C18.1333 62.4325 18.3581 62.9751 18.7582 63.3752C19.1583 63.7752 19.7009 64 20.2667 64H53.3333C54.7473 63.9983 56.1029 63.4359 57.1027 62.436C58.1025 61.4362 58.665 60.0806 58.6667 58.6667V53.3333C60.0806 53.3316 61.4362 52.7692 62.436 51.7694C63.4359 50.7695 63.9983 49.414 64 48V5.33333C63.9983 3.91937 63.4359 2.5638 62.436 1.56397C61.4362 0.564141 60.0806 0.00169371 58.6667 0ZM5.33333 51.2C4.48464 51.2 3.67071 50.8629 3.07059 50.2627C2.47048 49.6626 2.13333 48.8487 2.13333 48V46.9333H30.9333V51.2H5.33333ZM20.6933 37.6832L19.6512 36.2251C19.6065 36.1629 19.5844 36.0874 19.5884 36.011C19.5925 35.9346 19.6226 35.8618 19.6736 35.8048L21.9189 33.5648C21.9742 33.5072 22.0483 33.4714 22.1278 33.4638C22.2072 33.4561 22.2868 33.4772 22.352 33.5232L23.8123 34.5664C24.1517 34.8099 24.5476 34.9627 24.9626 35.0103C25.3775 35.058 25.7978 34.9989 26.1835 34.8387C26.5693 34.6784 26.9077 34.4224 27.1668 34.0947C27.4259 33.7671 27.597 33.3787 27.664 32.9664L27.9509 31.2021C27.9612 31.1263 27.9991 31.0569 28.0573 31.0073C28.1156 30.9577 28.1902 30.9313 28.2667 30.9333H30.9333V36.3584C30.5805 36.3021 30.224 36.2714 29.8667 36.2667C27.8872 36.2692 25.9895 37.0567 24.5897 38.4564C23.19 39.8561 22.4025 41.7538 22.4 43.7333C22.4048 44.0906 22.4354 44.4471 22.4917 44.8H17.0667V42.1333C17.0654 42.0575 17.092 41.9839 17.1413 41.9263C17.1906 41.8687 17.2593 41.8312 17.3344 41.8208L19.0997 41.5328C19.5117 41.4656 19.8997 41.2945 20.227 41.0356C20.5544 40.7766 20.8103 40.4384 20.9704 40.053C21.1306 39.6676 21.1898 39.2477 21.1425 38.833C21.0951 38.4183 20.9427 38.0226 20.6997 37.6832H20.6933ZM30.9333 38.5216V44.8H24.6549C24.5773 44.4497 24.5366 44.0922 24.5333 43.7333C24.535 42.3194 25.0975 40.9638 26.0973 39.964C27.0971 38.9641 28.4527 38.4017 29.8667 38.4C30.2255 38.4033 30.583 38.444 30.9333 38.5216ZM30.9333 53.3333V56.5333H24.5333V53.3333H30.9333ZM20.2667 61.8667V60.8C20.2667 60.2342 20.4914 59.6916 20.8915 59.2915C21.2916 58.8914 21.8342 58.6667 22.4 58.6667H30.9333C30.9373 59.8245 31.3218 60.9489 32.0277 61.8667H20.2667ZM56.5333 58.6667C56.5333 59.5154 56.1962 60.3293 55.5961 60.9294C54.996 61.5295 54.182 61.8667 53.3333 61.8667H36.2667C35.418 61.8667 34.604 61.5295 34.0039 60.9294C33.4038 60.3293 33.0667 59.5154 33.0667 58.6667V55.4667H56.5333V58.6667ZM56.5333 53.3333H33.0667V42.6667H56.5333V53.3333ZM56.5333 40.5333H33.0667V21.3333H56.5333V40.5333ZM56.5333 19.2H33.0667V18.1333C33.0667 17.2846 33.4038 16.4707 34.0039 15.8706C34.604 15.2705 35.418 14.9333 36.2667 14.9333H53.3333C54.182 14.9333 54.996 15.2705 55.5961 15.8706C56.1962 16.4707 56.5333 17.2846 56.5333 18.1333V19.2ZM61.8667 48C61.8667 48.8487 61.5295 49.6626 60.9294 50.2627C60.3293 50.8629 59.5154 51.2 58.6667 51.2V46.9333H61.8667V48ZM61.8667 44.8H58.6667V18.1333C58.665 16.7194 58.1025 15.3638 57.1027 14.364C56.1029 13.3641 54.7473 12.8017 53.3333 12.8H36.2667C34.8527 12.8017 33.4971 13.3641 32.4973 14.364C31.4975 15.3638 30.935 16.7194 30.9333 18.1333V28.8H28.2667C27.6841 28.7974 27.1199 29.0035 26.6762 29.381C26.2324 29.7584 25.9384 30.2822 25.8475 30.8576L25.5616 32.6123C25.5534 32.6682 25.5305 32.721 25.4953 32.7652C25.4601 32.8094 25.4137 32.8435 25.3611 32.864C25.3118 32.8849 25.2579 32.8925 25.2048 32.8861C25.1516 32.8798 25.1011 32.8596 25.0581 32.8277L23.5936 31.7867C23.1196 31.4529 22.5437 31.2955 21.9659 31.3419C21.388 31.3882 20.8446 31.6354 20.4299 32.0405L18.1525 34.3189C17.7531 34.7346 17.5111 35.2766 17.468 35.8515C17.425 36.4264 17.5837 36.9983 17.9168 37.4688L18.9621 38.9312C18.9942 38.9739 19.0143 39.0244 19.0205 39.0774C19.0267 39.1304 19.0187 39.1841 18.9973 39.2331C18.9771 39.2849 18.9438 39.3305 18.9006 39.3655C18.8574 39.4004 18.8058 39.4235 18.7509 39.4325L16.9952 39.7195C16.4198 39.8092 15.8956 40.1019 15.5174 40.5447C15.1392 40.9875 14.932 41.551 14.9333 42.1333V44.8H2.13333V5.33333C2.13333 4.48464 2.47048 3.67071 3.07059 3.07059C3.67071 2.47048 4.48464 2.13333 5.33333 2.13333H58.6667C59.5154 2.13333 60.3293 2.47048 60.9294 3.07059C61.5295 3.67071 61.8667 4.48464 61.8667 5.33333V44.8Z" fill="#FB602F"/>
<path d="M27.0144 13.7329L25.6576 13.5089L26.4533 12.3921C26.7507 11.9822 26.8926 11.4797 26.8535 10.9748C26.8144 10.4698 26.597 9.99518 26.24 9.63586L24.4885 7.89399C24.1302 7.54142 23.659 7.32669 23.1578 7.28766C22.6567 7.24863 22.1579 7.38781 21.7493 7.68066L20.6251 8.48066L20.4011 7.12386C20.3208 6.62381 20.0647 6.16882 19.679 5.84071C19.2932 5.5126 18.803 5.33292 18.2965 5.33399H15.8368C15.331 5.33276 14.8413 5.51184 14.4556 5.83909C14.0699 6.16633 13.8134 6.62033 13.7323 7.11959L13.5083 8.47639L12.3915 7.68066C11.9815 7.38323 11.4791 7.24138 10.9741 7.28046C10.4691 7.31955 9.9945 7.53703 9.63519 7.89399L7.89332 9.64546C7.54075 10.0037 7.32602 10.475 7.28699 10.9761C7.24796 11.4773 7.38714 11.9761 7.67999 12.3847L8.47999 13.5089L7.12319 13.7329C6.62314 13.8132 6.16814 14.0692 5.84004 14.455C5.51193 14.8408 5.33225 15.331 5.33332 15.8375V18.2972C5.33209 18.803 5.51117 19.2927 5.83842 19.6784C6.16566 20.0641 6.61966 20.3206 7.11892 20.4017L8.47572 20.6257L7.67999 21.7425C7.38256 22.1525 7.24071 22.6549 7.27979 23.1599C7.31888 23.6649 7.53635 24.1395 7.89332 24.4988L9.64159 26.246C9.99986 26.5986 10.4711 26.8133 10.9723 26.8523C11.4734 26.8914 11.9722 26.7522 12.3808 26.4593L13.5051 25.6593L13.7291 27.0161C13.8105 27.5157 14.0676 27.9699 14.4539 28.297C14.8402 28.6241 15.3306 28.8027 15.8368 28.8007H18.2965C18.8023 28.8019 19.292 28.6228 19.6777 28.2956C20.0634 27.9683 20.3199 27.5143 20.4011 27.0151L20.6251 25.6583L21.7419 26.454C22.1518 26.7514 22.6542 26.8933 23.1592 26.8542C23.6642 26.8151 24.1388 26.5976 24.4981 26.2407L26.2453 24.4924C26.5979 24.1341 26.8126 23.6628 26.8517 23.1617C26.8907 22.6606 26.7515 22.1617 26.4587 21.7532L25.6587 20.6289L27.0155 20.4049C27.5151 20.3234 27.9692 20.0664 28.2963 19.6801C28.6234 19.2937 28.802 18.8034 28.8 18.2972V15.8375C28.8012 15.3316 28.6221 14.8419 28.2949 14.4562C27.9676 14.0705 27.5137 13.8141 27.0144 13.7329ZM26.6667 18.2972L25.3109 18.5212C24.954 18.5807 24.6181 18.73 24.3348 18.9551C24.0515 19.1802 23.8301 19.4736 23.6915 19.8078C23.5528 20.142 23.5014 20.506 23.5421 20.8655C23.5829 21.2251 23.7143 21.5683 23.9243 21.8631L24.7328 22.9905L22.9867 24.7217L21.8667 23.9207C21.5719 23.7108 21.2287 23.5793 20.8691 23.5385C20.5096 23.4978 20.1456 23.5492 19.8114 23.6879C19.4772 23.8265 19.1838 24.0479 18.9587 24.3312C18.7336 24.6145 18.5843 24.9504 18.5248 25.3073L18.2965 26.6673H15.8368L15.6128 25.3116C15.5533 24.9547 15.4039 24.6188 15.1789 24.3355C14.9538 24.0522 14.6603 23.8308 14.3261 23.6921C13.9919 23.5535 13.628 23.5021 13.2684 23.5428C12.9089 23.5835 12.5656 23.715 12.2709 23.9249L11.1435 24.7335L9.41225 22.9873L10.2133 21.8673C10.4232 21.5726 10.5547 21.2293 10.5954 20.8698C10.6362 20.5103 10.5848 20.1463 10.4461 19.8121C10.3074 19.4779 10.086 19.1845 9.80274 18.9594C9.51944 18.7343 9.18355 18.585 8.82665 18.5255L7.46665 18.2972V15.8375L8.82239 15.6135C9.17928 15.5539 9.51517 15.4046 9.79847 15.1795C10.0818 14.9544 10.3032 14.661 10.4418 14.3268C10.5805 13.9926 10.6319 13.6286 10.5912 13.2691C10.5505 12.9096 10.419 12.5663 10.2091 12.2716L9.40052 11.1441L11.1467 9.41292L12.2709 10.214C12.5656 10.4239 12.9089 10.5554 13.2684 10.5961C13.628 10.6368 13.9919 10.5854 14.3261 10.4468C14.6603 10.3081 14.9538 10.0867 15.1789 9.80341C15.4039 9.52011 15.5533 9.18422 15.6128 8.82732L15.8368 7.46732H18.2965L18.5205 8.82306C18.5801 9.17995 18.7294 9.51584 18.9545 9.79914C19.1795 10.0824 19.473 10.3038 19.8072 10.4425C20.1414 10.5812 20.5053 10.6326 20.8649 10.5918C21.2244 10.5511 21.5677 10.4196 21.8624 10.2097L22.9899 9.40119L24.7211 11.1431L23.92 12.2673C23.7101 12.562 23.5786 12.9053 23.5379 13.2648C23.4971 13.6244 23.5485 13.9883 23.6872 14.3225C23.8259 14.6567 24.0473 14.9502 24.3306 15.1753C24.6139 15.4003 24.9498 15.5497 25.3067 15.6092L26.6667 15.8385V18.2972Z" fill="#FB602F"/>
<path d="M17.0667 11.7324C16.0118 11.7324 14.9807 12.0452 14.1036 12.6313C13.2266 13.2173 12.543 14.0502 12.1393 15.0248C11.7356 15.9993 11.63 17.0717 11.8358 18.1062C12.0416 19.1408 12.5496 20.0911 13.2954 20.837C14.0413 21.5829 14.9916 22.0908 16.0262 22.2966C17.0608 22.5024 18.1331 22.3968 19.1077 21.9931C20.0822 21.5894 20.9151 20.9059 21.5012 20.0288C22.0872 19.1517 22.4 18.1206 22.4 17.0658C22.3983 15.6518 21.8359 14.2962 20.836 13.2964C19.8362 12.2966 18.4806 11.7341 17.0667 11.7324ZM17.0667 20.2658C16.4338 20.2658 15.8151 20.0781 15.2888 19.7265C14.7626 19.3748 14.3525 18.8751 14.1103 18.2903C13.8681 17.7056 13.8047 17.0622 13.9282 16.4415C14.0516 15.8207 14.3564 15.2505 14.8039 14.803C15.2515 14.3555 15.8216 14.0507 16.4424 13.9272C17.0631 13.8038 17.7065 13.8671 18.2913 14.1093C18.876 14.3515 19.3758 14.7617 19.7274 15.2879C20.079 15.8142 20.2667 16.4329 20.2667 17.0658C20.2667 17.9144 19.9295 18.7284 19.3294 19.3285C18.7293 19.9286 17.9154 20.2658 17.0667 20.2658Z" fill="#FB602F"/>
<path d="M42.6666 59.7329H46.9333C47.2162 59.7329 47.4875 59.6206 47.6876 59.4205C47.8876 59.2205 48 58.9492 48 58.6663C48 58.3834 47.8876 58.1121 47.6876 57.912C47.4875 57.712 47.2162 57.5996 46.9333 57.5996H42.6666C42.3837 57.5996 42.1124 57.712 41.9124 57.912C41.7124 58.1121 41.6 58.3834 41.6 58.6663C41.6 58.9492 41.7124 59.2205 41.9124 59.4205C42.1124 59.6206 42.3837 59.7329 42.6666 59.7329Z" fill="#FB602F"/>
<path d="M36.2667 46.9341H38.4C38.6829 46.9341 38.9542 46.8217 39.1543 46.6217C39.3543 46.4217 39.4667 46.1503 39.4667 45.8674C39.4667 45.5846 39.3543 45.3132 39.1543 45.1132C38.9542 44.9132 38.6829 44.8008 38.4 44.8008H36.2667C35.9838 44.8008 35.7125 44.9132 35.5124 45.1132C35.3124 45.3132 35.2 45.5846 35.2 45.8674C35.2 46.1503 35.3124 46.4217 35.5124 46.6217C35.7125 46.8217 35.9838 46.9341 36.2667 46.9341Z" fill="#FB602F"/>
<path d="M42.6666 46.9341H53.3333C53.6162 46.9341 53.8875 46.8217 54.0876 46.6217C54.2876 46.4217 54.4 46.1503 54.4 45.8674C54.4 45.5846 54.2876 45.3132 54.0876 45.1132C53.8875 44.9132 53.6162 44.8008 53.3333 44.8008H42.6666C42.3837 44.8008 42.1124 44.9132 41.9124 45.1132C41.7124 45.3132 41.6 45.5846 41.6 45.8674C41.6 46.1503 41.7124 46.4217 41.9124 46.6217C42.1124 46.8217 42.3837 46.9341 42.6666 46.9341Z" fill="#FB602F"/>
<path d="M36.2667 51.1997H38.4C38.6829 51.1997 38.9542 51.0874 39.1543 50.8873C39.3543 50.6873 39.4667 50.416 39.4667 50.1331C39.4667 49.8502 39.3543 49.5789 39.1543 49.3788C38.9542 49.1788 38.6829 49.0664 38.4 49.0664H36.2667C35.9838 49.0664 35.7125 49.1788 35.5124 49.3788C35.3124 49.5789 35.2 49.8502 35.2 50.1331C35.2 50.416 35.3124 50.6873 35.5124 50.8873C35.7125 51.0874 35.9838 51.1997 36.2667 51.1997Z" fill="#FB602F"/>
<path d="M42.6666 51.1997H53.3333C53.6162 51.1997 53.8875 51.0874 54.0876 50.8873C54.2876 50.6873 54.4 50.416 54.4 50.1331C54.4 49.8502 54.2876 49.5789 54.0876 49.3788C53.8875 49.1788 53.6162 49.0664 53.3333 49.0664H42.6666C42.3837 49.0664 42.1124 49.1788 41.9124 49.3788C41.7124 49.5789 41.6 49.8502 41.6 50.1331C41.6 50.416 41.7124 50.6873 41.9124 50.8873C42.1124 51.0874 42.3837 51.1997 42.6666 51.1997Z" fill="#FB602F"/>
<path d="M44.8 38.4001C46.2767 38.4001 47.7204 37.9622 48.9482 37.1418C50.1761 36.3213 51.1331 35.1552 51.6983 33.7908C52.2634 32.4265 52.4113 30.9252 52.1232 29.4768C51.8351 28.0284 51.1239 26.698 50.0797 25.6537C49.0355 24.6095 47.705 23.8984 46.2567 23.6103C44.8083 23.3222 43.307 23.47 41.9426 24.0352C40.5783 24.6003 39.4121 25.5573 38.5917 26.7852C37.7712 28.0131 37.3333 29.4567 37.3333 30.9335C37.3359 32.913 38.1233 34.8107 39.5231 36.2104C40.9228 37.6101 42.8205 38.3976 44.8 38.4001ZM44.8 25.6001C45.8548 25.6001 46.886 25.9129 47.763 26.499C48.6401 27.085 49.3237 27.9179 49.7273 28.8925C50.131 29.867 50.2366 30.9394 50.0308 31.974C49.825 33.0085 49.3171 33.9588 48.5712 34.7047C47.8253 35.4506 46.875 35.9585 45.8405 36.1643C44.8059 36.3701 43.7335 36.2645 42.759 35.8608C41.7845 35.4572 40.9515 34.7736 40.3655 33.8965C39.7794 33.0194 39.4666 31.9883 39.4666 30.9335C39.4683 29.5195 40.0308 28.1639 41.0306 27.1641C42.0304 26.1643 43.386 25.6018 44.8 25.6001Z" fill="#FB602F"/>
<path d="M42.9792 33.8199C43.1792 34.0199 43.4505 34.1324 43.7333 34.1324H43.8091C43.9617 34.1213 44.1101 34.0774 44.2443 34.0038C44.3785 33.9301 44.4952 33.8285 44.5867 33.7058L47.7867 29.4391C47.9564 29.2128 48.0293 28.9283 47.9893 28.6482C47.9493 28.3682 47.7996 28.1155 47.5733 27.9458C47.347 27.776 47.0625 27.7031 46.7825 27.7431C46.5024 27.7832 46.2497 27.9328 46.08 28.1591L43.6181 31.4423L43.4208 31.245C43.2196 31.0507 42.9502 30.9431 42.6705 30.9456C42.3908 30.948 42.1233 31.0602 41.9255 31.258C41.7277 31.4557 41.6156 31.7233 41.6131 32.0029C41.6107 32.2826 41.7182 32.5521 41.9125 32.7532L42.9792 33.8199Z" fill="#FB602F"/>
</g>
<defs>
<clipPath id="clip0_2926_18593">
<rect width="64" height="64" fill="white"/>
</clipPath>
</defs>
</svg>
