<svg width="64" height="64" viewBox="0 0 64 64" fill="none" xmlns="http://www.w3.org/2000/svg">
<path d="M56 30C55.37 30 54.747 30.086 54.139 30.255C53.03 29.046 51.559 28.279 49.946 28.063C49.48 24.092 46.094 21 42 21C41.071 21 40.162 21.16 39.291 21.477C37.201 19.875 34.635 19 32 19C25.746 19 20.594 23.809 20.052 30C20.034 30 20.017 30 20 30C16.14 30 13 33.141 13 37C13 40.859 16.14 44 20 44H35.552C32.65 46.553 28.921 48 25 48C16.178 48 9 40.822 9 32C9 23.178 16.178 16 25 16C27.102 16 29.002 16.314 30.647 16.936L30.817 17H55V15H31.179C29.349 14.336 27.271 14 25 14C15.075 14 7 22.075 7 32C7 41.925 15.075 50 25 50C30.13 50 34.974 47.81 38.39 44H41.348L42.194 45.919L38.943 49.17L36.834 48.125L36.349 48.459C34.018 50.069 31.416 51.145 28.617 51.656L28.037 51.761L27.282 54H22.719L21.964 51.762L21.384 51.657C18.584 51.145 15.983 50.07 13.652 48.46L13.167 48.126L11.058 49.171L7.83 45.943L8.875 43.833L8.54 43.349C6.932 41.021 5.856 38.419 5.343 35.617L5.237 35.037L3 34.282V29.718L5.237 28.964L5.343 28.384C5.856 25.581 6.931 22.98 8.54 20.652L8.875 20.168L7.83 18.058L11.057 14.831L13.166 15.876L13.651 15.542C15.982 13.932 18.584 12.856 21.383 12.345L21.963 12.24L22.718 10H27.281L28.036 12.238L28.616 12.343C29.068 12.426 29.53 12.577 30.019 12.738C30.252 12.814 30.484 12.889 30.714 12.959L44.535 13L46.535 10H51V8H45.465L43.465 11H31.148C30.98 10.948 30.811 10.893 30.641 10.837C30.291 10.723 29.934 10.606 29.563 10.509L28.718 8H21.281L20.441 10.491C17.775 11.051 15.279 12.082 13.006 13.564L10.659 12.4L5.4 17.658L6.564 20.007C5.083 22.278 4.051 24.774 3.49 27.443L1 28.282V35.718L3.491 36.558C4.052 39.227 5.084 41.722 6.565 43.994L5.4 46.342L10.658 51.6L13.007 50.436C15.28 51.918 17.776 52.95 20.442 53.509L21.282 56H28.719L29.559 53.509C32.225 52.949 34.721 51.918 36.994 50.436L39.343 51.6L44.577 46.367L43.533 44H56C59.86 44 63 40.859 63 37C63 33.141 59.86 30 56 30ZM56 42H20C17.243 42 15 39.757 15 37C15 34.243 17.243 32 20 32C20.26 32 20.534 32.025 20.836 32.076L22 32.185V31C22 25.486 26.486 21 32 21C34.365 21 36.664 21.848 38.473 23.386L38.956 23.796L39.533 23.535C40.318 23.18 41.148 23 42 23C44.607 23 46.824 24.673 47.65 27H42V29H44V38H42V40H48V38H46V29H48V30H49C50.589 30 52.048 30.735 53.005 32.018L53.462 32.63L54.173 32.351C54.764 32.118 55.378 32 56 32C58.757 32 61 34.243 61 37C61 39.757 58.757 42 56 42Z" fill="#FB602F"/>
<path d="M28 27C25.794 27 24 28.794 24 31V40H26V36H30V40H32V31C32 28.794 30.206 27 28 27ZM26 34V31C26 29.897 26.897 29 28 29C29.103 29 30 29.897 30 31V34H26Z" fill="#FB602F"/>
<path d="M38 27H34V40H36V35H38C40.206 35 42 33.206 42 31C42 28.794 40.206 27 38 27ZM38 33H36V29H38C39.103 29 40 29.897 40 31C40 32.103 39.103 33 38 33Z" fill="#FB602F"/>
<path d="M57 16C57 17.654 58.346 19 60 19C61.654 19 63 17.654 63 16C63 14.346 61.654 13 60 13C58.346 13 57 14.346 57 16ZM60 15C60.551 15 61 15.448 61 16C61 16.552 60.551 17 60 17C59.449 17 59 16.552 59 16C59 15.448 59.449 15 60 15Z" fill="#FB602F"/>
<path d="M56 12C57.654 12 59 10.654 59 9C59 7.346 57.654 6 56 6C54.346 6 53 7.346 53 9C53 10.654 54.346 12 56 12ZM56 8C56.551 8 57 8.448 57 9C57 9.552 56.551 10 56 10C55.449 10 55 9.552 55 9C55 8.448 55.449 8 56 8Z" fill="#FB602F"/>
<path d="M32.707 54.293L31.293 55.707L36.586 61H50V59H37.414L32.707 54.293Z" fill="#FB602F"/>
<path d="M55 57C53.346 57 52 58.346 52 60C52 61.654 53.346 63 55 63C56.654 63 58 61.654 58 60C58 58.346 56.654 57 55 57ZM55 61C54.449 61 54 60.552 54 60C54 59.448 54.449 59 55 59C55.551 59 56 59.448 56 60C56 60.552 55.551 61 55 61Z" fill="#FB602F"/>
<path d="M60 50C58.346 50 57 51.346 57 53C57 54.654 58.346 56 60 56C61.654 56 63 54.654 63 53C63 51.346 61.654 50 60 50ZM60 54C59.449 54 59 53.552 59 53C59 52.448 59.449 52 60 52C60.551 52 61 52.448 61 53C61 53.552 60.551 54 60 54Z" fill="#FB602F"/>
<path d="M43 52H55V54H43V52Z" fill="#FB602F"/>
<path d="M4 7C5.654 7 7 5.654 7 4C7 2.346 5.654 1 4 1C2.346 1 1 2.346 1 4C1 5.654 2.346 7 4 7ZM4 3C4.551 3 5 3.448 5 4C5 4.552 4.551 5 4 5C3.449 5 3 4.552 3 4C3 3.448 3.449 3 4 3Z" fill="#FB602F"/>
<path d="M12 7C13.654 7 15 5.654 15 4C15 2.346 13.654 1 12 1C10.346 1 9 2.346 9 4C9 5.654 10.346 7 12 7ZM12 3C12.551 3 13 3.448 13 4C13 4.552 12.551 5 12 5C11.449 5 11 4.552 11 4C11 3.448 11.449 3 12 3Z" fill="#FB602F"/>
<path d="M20 7C21.654 7 23 5.654 23 4C23 2.346 21.654 1 20 1C18.346 1 17 2.346 17 4C17 5.654 18.346 7 20 7ZM20 3C20.551 3 21 3.448 21 4C21 4.552 20.551 5 20 5C19.449 5 19 4.552 19 4C19 3.448 19.449 3 20 3Z" fill="#FB602F"/>
<path d="M28 7C29.654 7 31 5.654 31 4C31 2.346 29.654 1 28 1C26.346 1 25 2.346 25 4C25 5.654 26.346 7 28 7ZM28 3C28.551 3 29 3.448 29 4C29 4.552 28.551 5 28 5C27.449 5 27 4.552 27 4C27 3.448 27.449 3 28 3Z" fill="#FB602F"/>
</svg>
