<svg width="160" height="80" viewBox="0 0 160 80" fill="none" xmlns="http://www.w3.org/2000/svg">
<path d="M159.998 41.0138C159.48 61.9668 141.363 79.7944 120.403 79.9975C114.676 80.0509 109.221 78.9022 104.279 76.7866C103.542 76.4714 102.39 75.9401 101.722 75.4967C100.023 74.3641 98.7014 73.4797 96.8315 72.6142C91.7132 70.2368 86.0125 68.9119 80.002 68.9119C73.9914 68.9119 68.2801 70.2368 63.1671 72.6196C63.1618 72.6196 63.1564 72.6249 63.1564 72.6249C61.3025 73.485 59.5234 74.4841 57.8405 75.606C57.1726 76.0494 56.4834 76.4661 55.7461 76.7813C50.7881 78.9129 45.3065 80.0616 39.5577 79.9975C18.593 79.7677 0.497262 61.908 0.0110764 40.9497C-0.512508 18.4207 17.5939 0 40.0012 0C40.3752 0 40.7545 0 41.1232 0.0160273C47.7428 0.19767 54.1273 2.30258 59.844 5.64694C60.9125 6.272 62.0078 6.84899 63.1351 7.3672C63.1404 7.37254 63.1458 7.37254 63.1511 7.37789C68.2694 9.75527 73.9754 11.0855 79.9966 11.0855C86.0179 11.0855 91.7239 9.75527 96.8422 7.37789C98.3221 6.68871 99.7486 5.90872 101.127 5.05393C103.2 3.76107 105.385 2.67121 107.704 1.92327C107.779 1.9019 107.853 1.87519 107.928 1.85382C107.928 1.85382 113.784 0 119.997 0C142.426 0 160.543 18.4581 159.988 41.0138H159.998Z" fill="url(#paint0_linear_256_9153)"/>
<defs>
<linearGradient id="paint0_linear_256_9153" x1="160" y1="40.2649" x2="-9.08477e-07" y2="40.2649" gradientUnits="userSpaceOnUse">
<stop stop-color="#F47A35"/>
<stop offset="1" stop-color="#C11D1A"/>
</linearGradient>
</defs>
</svg>
